<?xml version="1.0" encoding="UTF-8" standalone="no"?>
<!-- Created with Inkscape (http://www.inkscape.org/) -->

<svg
   xmlns:dc="http://purl.org/dc/elements/1.1/"
   xmlns:cc="http://creativecommons.org/ns#"
   xmlns:rdf="http://www.w3.org/1999/02/22-rdf-syntax-ns#"
   xmlns:svg="http://www.w3.org/2000/svg"
   xmlns="http://www.w3.org/2000/svg"
   xmlns:sodipodi="http://sodipodi.sourceforge.net/DTD/sodipodi-0.dtd"
   xmlns:inkscape="http://www.inkscape.org/namespaces/inkscape"
   id="svg4176"
   version="1.1"
   inkscape:version="0.91 r13725"
   width="314.0625"
   height="547.5"
   viewBox="0 0 314.0625 547.5"
   sodipodi:docname="ComicCharacter110.svg">
  <metadata
     id="metadata4182">
    <rdf:RDF>
      <cc:Work
         rdf:about="">
        <dc:format>image/svg+xml</dc:format>
        <dc:type
           rdf:resource="http://purl.org/dc/dcmitype/StillImage" />
        <dc:title></dc:title>
      </cc:Work>
    </rdf:RDF>
  </metadata>
  <defs
     id="defs4180" />
  <sodipodi:namedview
     pagecolor="#ffffff"
     bordercolor="#666666"
     borderopacity="1"
     objecttolerance="10"
     gridtolerance="10"
     guidetolerance="10"
     inkscape:pageopacity="0"
     inkscape:pageshadow="2"
     inkscape:window-width="1600"
     inkscape:window-height="837"
     id="namedview4178"
     showgrid="false"
     inkscape:zoom="1.2237443"
     inkscape:cx="157.03125"
     inkscape:cy="273.75"
     inkscape:window-x="-8"
     inkscape:window-y="-8"
     inkscape:window-maximized="1"
     inkscape:current-layer="svg4176" />
  <path
     style="fill:#000000"
     d="m 73.147558,546.54162 c -5.308494,-1.24857 -6.585058,-3.69591 -6.585058,-12.62444 0,-5.83992 0.356393,-8.04588 1.445983,-8.95015 2.17165,-1.80232 0.24124,-3.01817 -2.897353,-1.82487 -3.273712,1.24466 -6.568317,0.54887 -7.376757,-1.55789 -1.126196,-2.93482 -0.630664,-15.80235 0.818,-21.24103 1.901985,-7.14058 3.757686,-10.5958 6.740284,-12.55007 2.211509,-1.44904 2.674926,-1.46533 4.926468,-0.17312 3.584717,2.05734 4.591672,1.31003 6.265552,-4.65001 0.820807,-2.92258 3.30444,-11.22004 5.519183,-18.43879 3.506613,-11.42948 5.650304,-20.57823 9.99501,-42.65625 1.671284,-8.49278 3.936152,-19.12104 8.71902,-40.91539 0.80829,-3.68315 1.46983,-7.48003 1.47008,-8.4375 2.6e-4,-0.95748 0.86484,-4.01504 1.92128,-6.79459 2.02498,-5.32783 2.57518,-14.49155 1.6948,-28.22752 -0.50824,-7.92968 0.26934,-10.58379 3.5369,-12.0726 4.09887,-1.86757 5.50932,-10.60101 2.61575,-16.19656 -1.67631,-3.24163 -1.12309,-10.65933 1.12197,-15.04366 1.65993,-3.24163 1.66369,-7.71522 0.007,-9.08961 -0.96025,-0.79695 -3.64823,-0.80489 -10.54687,-0.0311 -10.725996,1.20299 -15.004309,0.79499 -25.029863,-2.38694 -13.607533,-4.31879 -15.771566,-6.88313 -20.295964,-24.05028 -2.141951,-8.12732 3.065423,-22.57589 10.101452,-28.02785 7.244944,-5.61385 11.363069,-8.0349 15.108961,-8.88259 2.278522,-0.51563 4.336242,-1.52081 4.57271,-2.23376 0.794314,-2.39445 -8.021156,-0.42136 -29.809096,6.67189 -10.540718,3.43163 -31.875,3.2361 -31.875,-0.29211 0,-0.47564 -1.213969,-0.8648 -2.697708,-0.8648 -4.430044,0 -5.248172,-1.97729 -5.192185,-12.54871 0.06384,-12.05568 1.492895,-22.19752 4.011366,-28.46833 1.087506,-2.70781 2.215129,-6.27334 2.505827,-7.9234 0.290699,-1.65006 2.209656,-5.46293 4.264348,-8.47305 3.838157,-5.6229 4.009866,-7.27401 0.756467,-7.27401 -6.441131,0 -22.2585653,-12.95625 -24.4485577,-20.02611 -0.6167173,-1.99092 -1.8842236,-4.09631 -2.8166808,-4.67864 -2.05002725,-1.28026 -2.19166134,-4.28073 -0.3189422,-6.75669 0.7570389,-1.00089 1.3898514,-3.20445 1.40625,-4.8968 0.034476,-3.55791 2.197471,-9.18583 4.5186953,-11.75723 2.289911,-2.53671 8.3415654,-5.04854 13.7567934,-5.70997 5.522991,-0.67459 13.272655,1.53727 14.058229,4.01239 0.284174,0.89535 2.183561,3.25558 4.220859,5.24495 2.996073,2.92559 3.961205,3.40372 5.04871,2.50117 2.505998,-2.0798 5.299063,-11.6245 5.698394,-19.473054 0.223523,-4.393182 1.017673,-8.850617 1.870768,-10.500322 0.815302,-1.57662 1.482367,-3.786955 1.482367,-4.911856 0,-1.1249 0.873403,-3.45847 1.940895,-5.185709 C 57.485728,74.764893 57.152614,73.125 54.352657,73.125 52.173729,73.125 50.625,70.45594 50.625,66.700808 c 0,-6.899829 2.812001,-7.685461 5.528414,-1.544558 1.768742,3.998534 3.96624,5.363006 5.261615,3.267046 0.323502,-0.523438 2.141369,-1.599994 4.039703,-2.392348 3.998037,-1.668757 16.05114,-13.908616 21.464858,-21.797444 l 3.720052,-5.420832 0.651985,-13.172214 C 92.137876,8.5434566 93.028879,3.092796 95.255738,1.3902515 97.9563,-0.67447181 99.600619,0.09431832 102.07402,4.5780923 l 2.25533,4.088494 -2.18783,6.6735167 c -1.20331,3.670434 -2.11568,8.154045 -2.02749,9.963582 0.0882,1.809536 -0.283171,6.938513 -0.825252,11.397727 -0.882553,7.260091 -0.783169,8.763026 0.950732,14.376711 2.56709,8.311288 4.73071,11.878191 6.99748,11.535936 0.98464,-0.14867 2.25523,-1.114059 2.82351,-2.145309 0.56829,-1.03125 1.12853,-2.040586 1.24497,-2.24297 0.11644,-0.202382 0.85472,0.16568 1.64062,0.817917 0.84629,0.702359 1.44107,2.763655 1.45872,5.05547 0.0164,2.128271 0.54375,4.527754 1.17188,5.332185 5.66029,7.248961 5.43856,7.075277 6.74737,5.285369 1.66955,-2.283251 7.25506,-3.136258 8.74903,-1.336133 0.6283,0.757054 2.17498,4.278784 3.43709,7.826063 1.26209,3.547279 2.31049,6.236833 2.32977,5.976788 0.13061,-1.761731 5.1633,-14.154153 7.62003,-18.763453 5.50991,-10.337648 15.1464,-17.017602 22.14552,-15.351134 1.43729,0.342212 5.30369,2.108065 8.59199,3.924117 5.23977,2.893795 6.28264,3.949969 8.4375,8.545096 2.29923,4.903003 2.45876,6.125158 2.45876,18.836935 0,12.556781 -0.20113,14.147587 -2.63671,20.85411 -1.45019,3.99319 -2.40457,7.63596 -2.12085,8.09504 0.28373,0.45906 1.68118,1.07165 3.10546,1.36129 1.42428,0.28964 6.17554,1.39901 10.55835,2.46524 4.38281,1.06624 11.55469,2.07116 15.9375,2.23316 4.38281,0.162 8.8125,0.68331 9.84375,1.15848 1.03125,0.47516 12,0.86393 24.375,0.86393 19.44524,0 22.47854,-0.19092 22.34196,-1.40625 -0.0869,-0.77344 -1.6647,-5.625 -3.50617,-10.78125 -1.84147,-5.15625 -3.35239,-10.045566 -3.35759,-10.865137 -0.0111,-1.751382 3.74389,-3.666113 7.18963,-3.666113 5.40975,0 10.61342,5.61149 10.61342,11.44523 0,0.98474 0.35891,1.56861 0.79758,1.2975 0.43867,-0.27112 2.21419,0.55221 3.94562,1.82961 4.07792,3.00859 9.03581,4.39535 11.3281,3.16855 0.95767,-0.51252 1.7412,-1.33791 1.7412,-1.83421 0,-1.46735 6.62399,-10.24861 8.48024,-11.242055 0.93995,-0.503044 3.20526,-0.914625 5.03402,-0.914625 2.72721,0 3.42648,0.404231 3.88933,2.2484 1.09376,4.35788 0.007,6.46042 -5.58035,10.80418 -4.19369,3.25981 -6.34193,5.86843 -8.93819,10.85367 -1.87972,3.60938 -3.88355,7.40625 -4.45296,8.4375 -0.56941,1.03125 -1.54143,4.40625 -2.16004,7.5 -0.61862,3.09375 -1.51252,7.52344 -1.98647,9.84375 -0.9686,4.74205 -3.02298,6.77281 -6.44195,6.36787 -2.87753,-0.34082 -6.41434,-5.38525 -7.19391,-10.26039 -0.80781,-5.05176 -1.74808,-5.48088 -8.77472,-4.00464 -25.16455,5.28686 -29.66086,6.02216 -36.82496,6.02216 -4.77978,0 -9.58723,0.59499 -12.31372,1.524 -3.92558,1.33758 -5.35078,1.37473 -11.65138,0.3037 -3.94828,-0.67115 -9.53688,-1.93062 -12.41912,-2.79882 -4.2548,-1.28165 -7.80912,-1.49134 -18.89797,-1.11488 l -13.65756,0.46367 -0.62245,7.13928 c -0.66552,7.63327 0.35731,14.25927 2.59578,16.81577 0.75778,0.86545 2.11182,3.05009 3.00899,4.85478 1.69381,3.40718 5.78,7.4077 7.62617,7.46629 1.68831,0.0535 2.12693,-3.37394 0.76717,-5.99488 -0.68451,-1.31939 -1.52886,-4.29473 -1.87633,-6.61185 -0.51934,-3.46317 -0.3499,-4.32112 0.952,-4.8207 0.87271,-0.3349 2.17348,-0.018 2.89726,0.70574 1.12631,1.12631 1.11688,1.69245 -0.0663,3.97291 -1.26321,2.43483 -1.22053,2.86179 0.50525,5.05577 1.10578,1.40578 1.65829,3.1105 1.33661,4.12403 -0.75519,2.3794 0.55591,2.16599 4.8378,-0.78747 6.80925,-4.69672 16.95663,-9.47939 23.4725,-11.06307 6.28672,-1.528 6.66738,-1.51742 11.92687,0.33113 10.26224,3.60689 13.43703,6.13209 24.74611,19.68287 7.19637,8.62283 8.77875,22.71558 3.71247,33.06336 -6.01747,12.29057 -20.9766,22.36091 -37.00071,24.90853 -2.6222,0.41688 -2.96482,0.77962 -2.497,2.6436 0.29823,1.18822 -0.30482,5.67763 -1.3401,9.97645 -2.28875,9.50366 -3.80949,46.68472 -2.85043,69.69104 0.31833,7.63596 0.0922,9.06093 -2.38039,15 -2.4762,5.94777 -2.80235,8.01149 -3.48179,22.03125 -2.22391,45.88894 -3.86161,66.82454 -5.86688,75 -0.82207,3.35156 -1.7727,10.81682 -2.11252,16.58946 -0.61301,10.41367 -0.6021,10.49159 1.39711,9.96878 1.59592,-0.41735 2.01496,-0.1116 2.01496,1.47014 0,1.09839 -0.48359,2.77141 -1.07464,3.71785 -1.53478,2.45756 -0.27122,6.69127 1.99702,6.69127 1.00328,0 2.29505,0.87988 2.8706,1.9553 1.32613,2.4779 1.8388,1.94243 2.38924,-2.49548 0.63142,-5.09078 2.27435,-7.99337 5.90954,-10.44045 4.97846,-3.35131 7.3046,-2.83648 12.5496,2.77751 9.64007,10.31827 10.65903,12.81783 8.75195,21.46894 -0.71446,3.24099 -0.61335,3.45215 1.91053,3.99029 1.4657,0.31253 5.39151,0.005 8.72403,-0.68472 5.09649,-1.05387 6.30001,-1.68783 7.57543,-3.99029 1.6439,-2.96765 4.15065,-3.85102 11.44358,-4.03268 3.18861,-0.0794 4.45312,-0.4923 4.45312,-1.45399 0,-0.7387 -0.84375,-1.61087 -1.875,-1.93818 -4.73042,-1.50138 0.0896,-6.49178 8.51366,-8.81458 5.89073,-1.62426 9.76763,-1.10248 9.76763,1.31458 0,1.63016 -0.80105,1.94396 -6.13452,2.40314 -9.92179,0.8542 -11.3292,2.89988 -3.24048,4.71006 2.83594,0.63466 5.15625,1.42802 5.15625,1.76305 0,2.96792 -7.3843,5.64303 -15.64952,5.66935 -3.25538,0.0104 -4.11627,0.26669 -3.10048,0.92315 0.77344,0.49984 4.04297,0.91525 7.26562,0.92315 4.51425,0.0111 5.85938,0.32961 5.85938,1.38762 0,1.96636 -3.02575,3.31423 -7.43993,3.31423 -3.48959,0 -4.09227,0.38846 -7.10175,4.57744 -4.07325,5.66967 -7.67182,7.40704 -11.80013,5.69703 -2.76014,-1.14329 -3.01947,-1.05585 -5.2242,1.76127 L 234.2391,510 l -10.01018,-0.046 c -5.50559,-0.0253 -15.81095,-0.44719 -22.9008,-0.9375 -7.08984,-0.49032 -18.607,-1.26704 -25.59368,-1.72605 -13.74826,-0.90323 -14.91846,-1.3612 -17.59401,-6.88559 -1.67693,-3.46249 -1.18712,-4.91568 4.72268,-14.01152 2.78683,-4.28924 4.69019,-8.71868 6.03978,-14.05555 2.08269,-8.23594 2.06647,-10.98959 -0.19506,-33.11903 -0.52695,-5.15625 -0.70117,-11.71835 -0.38717,-14.58243 0.56502,-5.15366 -0.20419,-9.59472 -5.25879,-30.36168 -0.99653,-4.09425 -1.81187,-10.08963 -1.81187,-13.32306 0,-6.3031 2.90246,-20.42833 5.21488,-25.37895 2.62515,-5.62014 4.87501,-16.61912 5.42268,-26.51011 1.17335,-21.1905 -4.24928,-63.10951 -8.33118,-64.4034 -0.53618,-0.16996 -1.44783,1.27862 -2.02588,3.21907 -1.46131,4.90543 -5.67129,17.17871 -8.76736,25.55933 -1.42867,3.86719 -2.90214,8.71875 -3.2744,10.78125 -0.37226,2.0625 -1.2851,4.95079 -2.02856,6.41843 -0.74345,1.46762 -1.7019,4.63169 -2.12991,7.03125 -1.72145,9.65117 -3.93745,18.42857 -5.22759,20.70609 -0.74983,1.3237 -1.90534,4.60566 -2.56779,7.29324 -1.2354,5.01207 -1.114,7.14384 1.40351,24.64474 1.19072,8.27748 1.12211,10.40745 -0.65504,20.33709 -0.30823,1.72219 -3.08886,6.15554 -6.54789,10.43979 -3.30668,4.09554 -5.75302,7.70557 -5.43631,8.02228 0.31671,0.31671 0.13484,0.57584 -0.40417,0.57584 -0.53901,0 -1.49169,1.23532 -2.11709,2.74513 -0.62539,1.50983 -1.73125,2.97315 -2.45749,3.25183 -0.72622,0.27868 -1.32041,1.26982 -1.32041,2.20252 0,0.9327 -0.65018,2.62407 -1.44483,3.75859 -1.7746,2.53361 -4.15849,10.17935 -4.1638,13.35443 -0.002,1.28906 -1.01592,6.14062 -2.2528,10.78125 -1.2369,4.64062 -2.77558,10.75781 -3.4193,13.59375 -0.64373,2.83594 -1.7439,5.9884 -2.44484,7.00548 -2.04975,2.97423 -1.6382,10.1877 0.7019,12.30234 2.62765,2.3745 6.46117,10.04995 6.46117,12.93651 0,2.52662 -4.7073,6.97418 -10.07978,9.52358 -7.379817,3.50196 -16.743428,15.43121 -21.563822,27.47234 l -2.421811,6.04958 2.136566,1.73008 c 2.240074,1.8139 4.741347,2.29979 4.741347,0.92104 0,-0.44499 4.113281,-1.10259 9.140625,-1.46134 10.125905,-0.72259 17.585435,-2.75725 25.939215,-7.0752 3.05173,-1.57739 6.21579,-2.65803 7.03125,-2.40141 0.93681,0.29481 2.02684,-0.48698 2.96079,-2.12354 1.43605,-2.51641 7.72529,-5.38586 9.45781,-4.3151 0.43054,0.26609 0.78281,1.96739 0.78281,3.78065 0,2.42669 -0.6548,3.83489 -2.48083,5.33531 -1.36447,1.12113 -4.10693,3.60427 -6.09437,5.51808 -1.98744,1.91382 -5.19529,3.91256 -7.12854,4.44164 -1.93326,0.5291 -4.78233,1.7416 -6.33128,2.69445 -2.78841,1.71534 -11.73768,2.97171 -24.83998,3.48724 -3.351562,0.13188 -7.28137,0.70405 -8.732906,1.27152 -2.995783,1.17117 -8.017257,1.19994 -12.807036,0.0734 z m 2.643099,-18.72912 c 1.670404,-7.69701 7.90724,-19.67438 12.326368,-23.67188 1.622544,-1.46773 2.286927,-2.57812 1.542573,-2.57812 -1.935838,0 -13.722098,12.86322 -13.722098,14.97594 0,0.99868 -1.054688,3.36996 -2.34375,5.2695 -2.457098,3.62074 -2.698251,5.14093 -1.737607,10.95361 0.515098,3.11677 0.719587,3.34225 1.700505,1.875 0.61325,-0.91729 1.618554,-3.98811 2.234009,-6.82405 z m -7.590529,-16.875 c 4.832378,-12.50191 3.272321,-21.1407 -2.99072,-16.56105 -1.256125,0.91851 -2.037681,3.59978 -2.937625,10.07812 -1.424681,10.25572 -1.024889,13.27622 1.70231,12.86129 1.338558,-0.20366 2.540558,-2.01784 4.226035,-6.37836 z m 6.265625,3.01886 c 1.640819,-5.16976 7.756473,-12.537 16.196998,-19.51174 9.397449,-7.76549 11.022399,-10.3176 8.500112,-13.35006 -4.297772,-5.16704 -4.550297,-11.75045 -0.806972,-21.03783 1.501987,-3.72651 3.377079,-8.67392 4.166869,-10.99423 4.33302,-12.72994 9.94633,-30.01106 10.81053,-33.28125 0.95455,-3.6121 5.17593,-9.51178 11.73913,-16.40625 3.61917,-3.80185 5.1888,-8.01112 6.64225,-17.8125 0.67185,-4.53058 1.44148,-6.9479 2.164,-6.79687 1.66485,0.34798 1.36395,-1.07933 -0.81025,-3.84337 -1.06236,-1.35058 -2.17393,-3.9491 -2.47015,-5.77448 -0.43948,-2.70822 -0.86033,-3.21677 -2.28717,-2.76391 -0.96173,0.30524 -1.7486,0.28489 -1.7486,-0.0452 0,-2.57053 4.4311,-17.64396 6.57987,-22.38296 3.14598,-6.93834 6.54513,-16.76641 6.54513,-18.92419 0,-1.80283 4.16115,-16.28178 9.95107,-34.62528 2.27852,-7.21875 4.13571,-14.49609 4.1271,-16.17188 -0.0151,-2.93042 -0.16795,-3.05331 -4.00004,-3.21534 -10.77787,-0.4557 -16.46248,2.05102 -25.13685,11.08448 -6.3503,6.61318 -5.95912,4.79025 -6.00638,27.99024 -0.0267,13.09432 -0.19001,14.38522 -2.3724,18.75 -1.80505,3.6101 -3.04406,4.89367 -5.39062,5.5845 -3.41616,1.00571 -4.01738,2.84928 -1.17188,3.59339 1.70624,0.44619 1.875,1.27876 1.875,9.25031 0,8.27235 -0.77094,13.36155 -4.02529,26.5718 -1.95288,7.92728 -8.744154,42.66385 -11.547194,59.0625 -0.264403,1.54687 -1.059919,4.92187 -1.767797,7.5 -1.809638,6.59076 -5.179593,20.84452 -5.993696,25.35129 -0.376424,2.08385 -1.567822,5.66979 -2.647552,7.96875 -1.079731,2.29898 -2.491844,5.86746 -3.13803,7.92996 -0.646187,2.0625 -1.952385,5.98067 -2.902663,8.70704 -0.950278,2.72637 -1.737842,6.52325 -1.750144,8.4375 -0.03509,5.46058 -1.482786,10.37346 -3.58247,12.15742 -2.512712,2.13488 -3.808217,8.66679 -1.718926,8.66679 0.796076,0 1.685732,-0.75089 1.977015,-1.66864 z M 227.8125,500.80328 c 0,-1.09712 -15.61952,-4.23012 -17.9938,-3.60923 -1.17737,0.30789 -3.724,0.0854 -5.65918,-0.49437 -2.90646,-0.8708 -4.13755,-0.77501 -7.07728,0.55062 -2.74714,1.23878 -4.13689,1.38499 -6.09362,0.64104 -1.39416,-0.53006 -3.17131,-0.7195 -3.94923,-0.42099 -2.17355,0.83407 -1.67678,3.14492 0.69498,3.23288 1.16016,0.043 7.59375,0.25683 14.29688,0.47512 6.70312,0.21829 14.50781,0.73826 17.34375,1.15552 4.83093,0.71076 8.4375,0.0565 8.4375,-1.53059 z m -50.85938,-0.82453 c -0.90234,-0.2358 -2.3789,-0.2358 -3.28125,0 -0.90234,0.23581 -0.16406,0.42875 1.64063,0.42875 1.80469,0 2.54297,-0.19294 1.64062,-0.42875 z m 5.60548,0.0799 c -0.31153,-0.31152 -1.12013,-0.34482 -1.79688,-0.074 -0.74787,0.29927 -0.52573,0.52142 0.56641,0.5664 0.98827,0.0407 1.54199,-0.18087 1.23047,-0.49239 z m -78.72042,-8.60436 c 0.65674,-1.97025 -1.04727,-1.22327 -4.921683,2.1575 -2.056866,1.7948 -4.085672,3.26327 -4.508456,3.26327 -0.422785,0 -0.514041,0.41204 -0.202791,0.91565 0.626813,1.01421 9.02387,-4.50927 9.63293,-6.33642 z M 170.625,496.875 c 0,-0.51562 -1.02979,-0.9375 -2.28842,-0.9375 -1.25863,0 -2.54915,0.42188 -2.86783,0.9375 -0.33804,0.54696 0.61526,0.9375 2.28842,0.9375 1.5773,0 2.86783,-0.42188 2.86783,-0.9375 z m 30.83672,-6.16189 c 0.77592,-0.7492 -1.96261,-3.05713 -4.33361,-3.65222 -4.15829,-1.04366 -7.89578,-4.33257 -9.79016,-8.61512 -1.23798,-2.79865 -2.37292,-4.07077 -3.63182,-4.07077 -1.00712,0 -1.83113,-0.23867 -1.83113,-0.53038 0,-1.08038 2.22262,-4.6564 3.46305,-5.57175 1.04252,-0.76932 1.09742,-2.24585 0.29409,-7.91003 -0.98118,-6.91828 -0.91798,-7.85263 1.93785,-28.64409 0.5666,-4.125 1.40473,-14.46094 1.86253,-22.96875 0.9454,-17.56988 2.46809,-42.08326 3.26112,-52.5 0.69417,-9.11826 2.68409,-17.69633 5.10501,-22.00658 l 1.92964,-3.43557 -1.91011,-6.41377 -1.9101,-6.41378 1.82471,-15.31827 c 2.102,-17.646 3.33894,-40.39946 2.39967,-44.14179 -0.86476,-3.44551 -5.76661,-4.82232 -12.57313,-3.53149 -3.85381,0.73086 -6.00955,1.92422 -10.16251,5.62569 -2.89911,2.58393 -5.60877,4.69806 -6.02146,4.69806 -1.17255,0 -0.86461,4.71281 0.62973,9.63774 0.74789,2.46482 1.42421,6.2617 1.50293,8.4375 0.0788,2.17581 0.69923,7.33101 1.37891,11.45601 1.84564,11.2013 2.64435,34.05968 1.41516,40.50016 -1.71041,8.96177 -5.21854,20.50025 -6.76954,22.26546 -0.43041,0.48985 -0.78255,1.77657 -0.78255,2.85938 0,1.08281 -0.40141,2.37016 -0.89202,2.86077 -1.42867,1.42867 -1.67771,21.28266 -0.27283,21.75095 0.64067,0.21355 1.16986,1.72422 1.17598,3.35703 0.007,1.63281 0.63894,5.28906 1.40629,8.125 1.54898,5.72479 3.70485,32.02807 2.87553,35.08396 -0.29065,1.07101 0.18986,7.71869 1.0678,14.77263 1.357,10.90308 1.42382,14.01797 0.44575,20.78257 -0.63278,4.37649 -1.80692,9.52827 -2.60921,11.44843 -0.8023,1.92016 -1.22551,4.42036 -0.94049,5.55599 0.35928,1.43152 -0.18599,2.72637 -1.7779,4.22188 -1.26286,1.1864 -2.13869,2.41217 -1.94628,2.72394 0.36896,0.59785 33.5466,0.17192 34.1791,-0.43879 z m 20.22178,-0.68399 c 0.77782,-1.18711 1.68983,-3.53644 2.0267,-5.22072 0.56022,-2.80112 0.19242,-3.4567 -4.31168,-7.68537 -4.12275,-3.87064 -5.50621,-4.62303 -8.50062,-4.62303 -3.6813,0 -6.5229,1.88012 -6.5229,4.31583 0,4.84316 5.77683,12.16235 11.10019,14.06381 4.56994,1.63237 4.5826,1.63063 6.20831,-0.85052 z M 110.72546,277.13843 c 0.8287,-0.37056 2.06382,-2.44471 2.74471,-4.60922 2.29053,-7.28138 6.84248,-10.31917 17.06684,-11.38976 3.47504,-0.36387 6.52889,-1.00238 6.78633,-1.41893 0.84076,-1.36038 -3.53043,-1.88302 -15.44834,-1.84707 -12.49988,0.0377 -20.33319,0.83564 -29.780235,3.03359 -3.947333,0.91838 -6.069919,1.0496 -6.471352,0.40008 -0.84553,-1.3681 2.233527,-3.37283 6.180087,-4.02376 1.844012,-0.30415 4.618375,-0.95894 6.16525,-1.45511 6.79787,-2.18043 30.62827,-1.80604 43.49255,0.68329 4.78767,0.92645 2.87907,-1.03901 -3.22767,-3.32384 -6.31261,-2.36184 -16.20208,-4.35025 -26.20238,-5.26834 -10.12824,-0.92982 -10.88194,-0.9182 -21.070653,0.32456 -5.129777,0.62571 -9.232528,0.73415 -9.710024,0.25665 -1.341027,-1.34102 2.079489,-2.56215 10.728899,-3.83023 12.524308,-1.83616 29.593638,0.0106 44.192318,4.78123 7.98803,2.61036 8.51553,2.67058 9.7017,1.10757 0.68991,-0.9091 1.26779,-1.91764 1.2842,-2.24123 0.0677,-1.33624 -3.00742,-2.87046 -11.79077,-5.88254 -13.2553,-4.54563 -21.2613,-5.60915 -36.65132,-4.86877 -16.405989,0.78924 -29.067038,1.82958 -29.614578,2.4334 -1.500404,1.6546 -3.688748,7.36888 -4.497574,11.74422 -1.908413,10.32355 2.954089,19.78224 12.752588,24.8067 3.376133,1.73121 5.098099,1.88492 17.800214,1.58895 7.73438,-0.18022 14.74052,-0.63086 15.56921,-1.00144 z m 65.03539,-29.57416 c 0.39871,-1.25621 2.49391,-2.85316 5.48888,-4.1836 2.66421,-1.1835 8.21902,-4.69597 12.34402,-7.80549 4.39954,-3.31648 10.60046,-6.89906 15,-8.66625 17.52194,-7.03813 18.81292,-8.22449 17.34913,-15.94305 -1.2731,-6.71308 -1.18863,-8.46588 0.40804,-8.46588 1.88795,0 2.21536,0.7688 3.48796,8.19003 1.11321,6.49178 1.09892,6.58774 -1.62352,10.89679 -2.15317,3.40804 -3.29029,4.34769 -5.26294,4.349 -4.58718,0.003 -19.98143,7.01289 -24.67117,11.23411 -3.51309,3.16213 -12.25437,8.45507 -13.96354,8.45507 -1.50496,0 -9.00521,7.05388 -9.00521,8.46927 0,0.90137 17.70846,-8.03705 18.75,-9.46415 1.76525,-2.4187 8.20199,-5.56762 11.38083,-5.56762 3.73572,0 4.6915,-1.36517 2.49417,-3.5625 -0.875,-0.875 -0.45833,-1.125 1.875,-1.125 1.65,0 3,0.40864 3,0.90808 0,1.64049 2.93829,-0.17937 3.75412,-2.32516 0.53877,-1.41706 1.88584,-2.30293 4.14693,-2.72711 1.84192,-0.34555 3.34895,-1.00169 3.34895,-1.45809 0,-0.4564 0.94922,-0.96463 2.10937,-1.12939 1.42586,-0.2025 2.21589,-1.05506 2.43807,-2.63105 0.18077,-1.28231 1.1894,-3.54025 2.2414,-5.01764 1.70812,-2.39884 1.85628,-3.63213 1.38511,-11.52958 -0.41,-6.87218 -0.99769,-9.61974 -2.63648,-12.32612 -1.50457,-2.48468 -2.0997,-4.91301 -2.07684,-8.47402 0.031,-4.82731 -0.0947,-5.07375 -3.82366,-7.4994 -3.10927,-2.02252 -5.30768,-2.59893 -11.35572,-2.97742 -5.83307,-0.36503 -7.5,-0.7819 -7.5,-1.8756 0,-0.77344 0.94922,-1.54106 2.10937,-1.70583 1.16016,-0.16476 2.10938,-0.69211 2.10938,-1.17187 0,-3.2752 -20.35891,4.50204 -22.56218,8.61889 -0.74792,1.3975 -0.7572,1.79647 -0.0313,1.34787 2.45682,-1.5184 0.67279,1.97139 -3.65646,7.15252 -2.57813,3.08544 -4.6875,6.05474 -4.6875,6.59846 0,0.54373 -1.61216,3.56543 -3.58257,6.7149 -3.877,6.19693 -7.11677,13.62072 -6.30042,14.43708 0.2794,0.27939 0.65132,0.3322 0.8265,0.11736 0.17518,-0.21485 3.24965,-4.24814 6.83215,-8.96287 3.58249,-4.71473 7.98711,-10.19911 9.78802,-12.1875 4.57229,-5.04831 14.39102,-13.45901 15.71214,-13.45901 2.22036,0 0.99692,2.66385 -2.85061,6.20674 -10.06261,9.26583 -16.56601,16.45758 -20.70149,22.89258 -2.47225,3.84694 -6.07771,9.15832 -8.01216,11.80308 -5.13606,7.02198 -9.69583,16.00354 -9.34637,18.40988 0.26143,1.80015 0.94179,1.28127 4.8487,-3.6979 2.49952,-3.18553 7.88759,-8.5902 11.97347,-12.01036 4.08588,-3.42017 10.0535,-8.63869 13.26136,-11.59671 9.59606,-8.84864 20.36374,-14.68584 20.36374,-11.03927 0,0.81609 -1.29542,2.15369 -2.87871,2.97245 -4.76685,2.46503 -13.96692,9.80617 -22.90253,18.27496 -4.64064,4.39818 -9.79091,8.94947 -11.44508,10.11397 -3.76613,2.65129 -13.39868,16.18777 -13.39868,18.82895 0,1.08165 0.43092,1.96663 0.9576,1.96663 0.52668,0 1.4258,1.02759 1.99805,2.28354 1.04019,2.28299 1.04179,2.2822 6.44415,-3.17071 2.97202,-2.99985 5.69387,-6.36857 6.04855,-7.48605 z m -23.88585,7.87506 c 0,-1.6697 -2.25275,-2.77094 -3.7612,-1.83865 -0.69238,0.4279 -0.47298,1.07059 0.65822,1.92826 2.22938,1.69028 3.10298,1.66505 3.10298,-0.0896 z m -89.80336,-6.9791 c 0.327748,-2.23308 0.161908,-2.58433 -0.831094,-1.76021 -1.39012,1.1537 -1.695751,4.54998 -0.409451,4.54998 0.457101,0 1.015347,-1.2554 1.240545,-2.78977 z m 5.080336,-9.12076 C 66.379231,238.56673 63.75,239.80452 63.75,240.94106 c 0,0.69334 0.599492,0.67907 1.955293,-0.0465 1.075412,-0.57554 1.726419,-1.27531 1.446683,-1.55505 z m 74.410524,0.69576 c 0,-1.26432 -11.91799,-6.75185 -22.42448,-10.32514 -10.96736,-3.73003 -17.62707,-4.5312 -21.830264,-2.6262 -3.215775,1.45748 -11.057756,1.2395 -11.057756,-0.30737 0,-1.3164 -4.11076,-0.98303 -7.261814,0.58892 -1.574312,0.78538 -4.463757,2.89475 -6.420989,4.6875 -3.129958,2.86693 -3.31466,3.25956 -1.533385,3.25956 1.11387,0 2.47678,-0.84375 3.028688,-1.875 0.551908,-1.03125 1.494877,-1.875 2.095485,-1.875 0.812695,0 0.804258,0.28776 -0.03298,1.125 -1.934755,1.93476 -1.360998,3.82437 0.984375,3.24195 1.160156,-0.28809 8.465567,-0.99023 16.234246,-1.56028 14.705105,-1.07905 30.260995,-0.21718 35.711195,1.97856 1.46516,0.59027 3.50768,1.41173 4.53893,1.82545 1.45798,0.58491 5.30753,1.92394 7.73438,2.6903 0.12891,0.0407 0.23437,-0.332 0.23437,-0.82825 z m 13.39769,-6.59902 c 1.04734,-8.39209 5.77267,-23.70645 9.22709,-29.90417 1.60965,-2.88793 3.69141,-6.76023 4.62612,-8.6051 0.93471,-1.84487 2.35752,-3.90043 3.16179,-4.56791 1.75307,-1.45492 1.92927,-3.78135 0.29043,-3.83463 -0.64453,-0.021 -2.6235,-1.27908 -4.39773,-2.79582 -2.78088,-2.37732 -3.42747,-2.58067 -4.6875,-1.47413 -0.86216,0.75714 -2.64719,1.10058 -4.35219,0.83737 l -2.89054,-0.44624 0.11789,-19.82815 c 0.0649,-10.90548 -0.11098,-18.89295 -0.39071,-17.74992 -0.27973,1.14302 -1.19502,2.87563 -2.03399,3.85025 -1.34334,1.56053 -2.16684,1.67144 -6.89979,0.92924 -6.4145,-1.00589 -10.25679,-2.84377 -12.22492,-5.84749 -2.23121,-3.40526 -3.30245,-12.35962 -2.42253,-20.24951 0.43129,-3.86719 0.67384,-7.16428 0.53902,-7.32688 -0.13483,-0.1626 -1.59339,1.02231 -3.24125,2.63315 -2.46019,2.40491 -3.48694,2.82098 -5.7402,2.32608 -2.4369,-0.53523 -3.24031,-0.0552 -7.17701,4.28824 -2.43811,2.69002 -5.21869,6.41693 -6.17906,8.28204 -4.01488,7.79717 -10.497807,12.02971 -23.309865,15.21845 -7.127669,1.77398 -21.56315,2.22025 -26.037745,0.80496 -2.017739,-0.6382 -1.519264,3.91564 1.018085,9.30077 3.013169,6.39496 4.606915,11.2707 4.606915,14.09386 0,3.16643 4.94664,9.98039 8.626927,11.88354 1.538524,0.7956 3.027265,1.2166 3.30831,0.93555 0.281047,-0.28104 -0.01155,-2.37733 -0.650215,-4.65843 -0.638665,-2.28109 -0.885269,-5.01684 -0.548008,-6.07945 0.816827,-2.5736 5.867,-6.74702 7.435905,-6.14498 1.796892,0.68953 3.389581,6.78223 3.389581,12.96657 0,5.83539 1.054159,6.19335 3.189386,1.08304 1.494581,-3.57704 5.027014,-6.24166 10.625194,-8.0149 2.18395,-0.69178 4.70663,-2.07084 5.60597,-3.06459 1.85208,-2.04654 7.1265,-4.46452 9.73858,-4.46452 3.87512,0 3.35786,8.04256 -0.79827,12.4121 -1.34361,1.41258 -2.12263,2.88915 -1.73117,3.28125 0.39145,0.3921 4.57945,0.83769 9.30664,0.9902 4.72721,0.15252 9.54414,0.75116 10.70429,1.3303 4.73421,2.36328 1.07506,8.11768 -6.45051,10.1441 -2.56277,0.69009 -3.62761,1.48907 -3.62761,2.72193 0,0.95981 -1.43438,3.30606 -3.1875,5.21387 -1.75313,1.90781 -3.87568,4.28349 -4.7168,5.2793 -0.84111,0.9958 -2.78174,2.06103 -4.3125,2.36718 -1.53076,0.30615 -2.76978,0.82032 -2.75339,1.14258 0.10559,2.07497 3.39867,4.17717 8.3546,5.33332 3.15768,0.73664 8.57026,2.66201 12.02796,4.27862 6.24601,2.92024 19.01273,12.54724 21.12525,15.92991 1.82349,2.91989 2.95264,1.46851 3.73507,-4.80095 z m 72.56213,-1.4496 c 0.798,-0.79799 1.27678,-1.62501 1.06397,-1.83782 -0.77172,-0.77172 -4.40669,0.69379 -4.89827,1.97484 -0.6857,1.78691 2.00657,1.6907 3.8343,-0.13702 z m -91.19062,-1.68657 c -0.46757,-1.21848 -6.61755,-4.26948 -15.3942,-7.63705 -2.32031,-0.8903 -4.79517,-1.84734 -5.49968,-2.12676 -1.02253,-0.40554 -1.07182,-0.11729 -0.24438,1.42879 0.68076,1.27203 3.65386,2.80848 8.66171,4.47625 4.19384,1.39667 8.7335,3.11772 10.08813,3.82455 3.02521,1.57849 2.98077,1.57786 2.38842,0.0342 z m -28.5192,-10.11126 c 0,-1.58105 -3.76596,-7.37628 -4.79338,-7.37628 -0.48976,0 -1.1333,0.63281 -1.43009,1.40625 -0.2968,0.77344 -1.14055,1.40625 -1.875002,1.40625 -2.185622,0 -2.713144,2.94144 -0.780919,4.35432 2.111521,1.54398 8.879391,1.70364 8.879391,0.20946 z M 68.169977,216.69887 C 79.450555,213.04249 82.5,210.78143 82.5,206.07369 c 0,-3.91851 0.03153,-3.9025 -7.114559,-3.6132 -2.623945,0.10622 -6.631758,-0.30952 -8.90625,-0.92389 -2.274492,-0.61437 -9.625767,-1.21363 -16.336165,-1.33172 -7.228971,-0.12721 -13.051006,-0.66975 -14.287322,-1.33141 -1.673793,-0.89579 -2.507592,-0.84086 -4.214598,0.2776 -1.420969,0.93106 -2.592216,1.10493 -3.525178,0.52331 -2.215057,-1.38088 0.12947,-4.20563 3.49065,-4.20563 1.532301,0 3.385052,-0.49591 4.117224,-1.10202 0.732173,-0.60611 2.995228,-1.23892 5.029012,-1.40625 3.625665,-0.2983 3.741487,-0.42309 5.938238,-6.39798 3.109766,-8.45819 4.987103,-12.55118 6.084146,-13.26476 3.17219,-2.06335 -4.372726,-5.35041 -10.78174,-4.69723 -1.395785,0.14224 -3.355392,-0.17894 -4.354683,-0.71374 -2.364449,-1.26541 -3.167884,-0.21389 -5.315617,6.95698 -0.926603,3.09375 -2.962508,8.36719 -4.524233,11.71875 -2.903932,6.23202 -3.226847,9.16825 -1.984028,18.04059 0.35988,2.56914 0.182648,5.70976 -0.419725,7.43773 -1.227368,3.52083 -0.884389,3.8546 6.011078,5.84961 10.82301,3.13134 24.827188,2.67744 36.763727,-1.19156 z m 24.788492,-1.55219 c -0.459452,-1.71795 -0.984631,-2.31506 -1.418604,-1.61288 -0.37899,0.61322 -0.213508,2.00355 0.367737,3.08962 1.414879,2.64372 1.95126,1.88997 1.050867,-1.47674 z M 238.30008,204.44354 c -0.38366,-1.02042 -0.65566,-0.90924 -1.14678,0.46875 -0.3541,0.99355 -0.4175,2.40843 -0.14088,3.14417 0.38366,1.02042 0.65566,0.90924 1.14678,-0.46875 0.3541,-0.99355 0.4175,-2.40843 0.14088,-3.14417 z m -68.61258,-0.89566 c 0,-1.06221 -0.33674,-0.96104 -1.37644,0.41356 -0.75703,1.00089 -1.37643,2.45262 -1.37643,3.22606 0,1.06222 0.33675,0.96104 1.37643,-0.41356 0.75704,-1.00089 1.37644,-2.45262 1.37644,-3.22606 z M 88.65891,201.9571 c -0.313297,-1.24828 -0.970229,-2.2696 -1.459848,-2.2696 -0.489619,0 -0.727755,0.52734 -0.529191,1.17187 0.198563,0.64454 0.6747,2.4375 1.058081,3.98438 0.517865,2.08949 0.800338,2.37169 1.098824,1.09773 0.220972,-0.94314 0.145432,-2.73611 -0.167866,-3.98438 z m 25.50502,2.5765 c 0.88432,-1.37629 2.5592,-3.27125 3.72196,-4.21102 1.16276,-0.93977 2.11411,-2.6876 2.11411,-3.88407 0,-2.43455 1.55568,-3.30669 5.93605,-3.32786 3.23397,-0.0157 6.11231,-1.3748 5.08564,-2.40146 -0.35352,-0.35352 -3.50536,-0.81372 -7.0041,-1.02267 -3.49874,-0.20895 -7.41603,-0.79095 -8.70509,-1.29333 -1.28906,-0.50237 -4.875,-1.22567 -7.96875,-1.60733 -4.75714,-0.58686 -5.66891,-1.0016 -5.90961,-2.68815 -0.21026,-1.47324 0.34081,-2.1512 2.10938,-2.59509 3.61551,-0.90743 3.01147,-2.72473 -0.63914,-1.92291 -4.923152,1.0813 -6.997042,3.03372 -8.712217,8.20191 -2.013128,6.06596 -1.953133,16.56879 0.103575,18.13156 0.8052,0.61183 5.013065,1.08085 9.833892,1.0961 8.11705,0.0257 8.48548,-0.0652 10.0343,-2.47568 z m 131.28659,-3.33338 c 0.19218,-2.28474 -0.37704,-4.63639 -1.64062,-6.77799 -1.0642,-1.80368 -1.9349,-4.11228 -1.9349,-5.13024 0,-1.88401 -2.38439,-3.4701 -3.51579,-2.33869 -0.34234,0.34233 0.31302,2.39836 1.45636,4.56894 1.77695,3.37348 2.62907,7.06584 2.9301,12.69651 0.14876,2.78252 2.43116,0.23545 2.70485,-3.01853 z m -10.246,-8.74164 c -1.20814,-2.21159 -2.46854,-4.02108 -2.8009,-4.02108 -1.0134,0 0.45257,4.96924 2.44013,8.27145 2.81798,4.68188 3.14372,0.84407 0.36077,-4.25037 z M 79.507778,195.3149 c 0.197421,-1.38583 -0.331278,-2.22573 -1.668128,-2.65003 -3.103914,-0.98515 -13.388325,-9.59805 -16.006709,-13.40519 -3.776957,-5.49167 -4.870949,-5.01668 -8.234021,3.57512 -1.635657,4.17868 -2.97392,8.76447 -2.97392,10.19065 0,2.50546 0.229571,2.62554 6.796875,3.55535 3.738281,0.52928 10.171875,0.91747 14.296875,0.86263 6.939039,-0.0923 7.521618,-0.25142 7.789028,-2.12853 z m 5.216816,-13.21706 c -0.590572,-4.16977 -1.781469,-5.72847 -3.252687,-4.25725 -0.527961,0.52796 -0.350882,2.57208 0.454696,5.24881 0.856033,2.84438 1.061793,5.52637 0.58587,7.63655 -0.492597,2.18411 -0.384164,3.37112 0.330116,3.61374 1.425924,0.48436 2.601456,-7.16211 1.882005,-12.24185 z m 98.585066,2.77431 C 182.67971,184.24222 180,186.58048 180,187.76009 c 0,0.53241 0.84634,0.20209 1.88075,-0.73404 1.03441,-0.93613 1.67742,-1.90539 1.42891,-2.1539 z m -71.2483,-8.10556 c 3.44112,-1.4378 4.36477,-3.33883 1.61052,-3.31474 -1.88039,0.0164 -2.98298,0.71272 -4.80229,3.03252 -1.56418,1.99449 -1.02117,2.0425 3.19177,0.28222 z m -51.573054,-9.32121 c 1.712523,-1.25222 1.613561,-1.58166 -2.464242,-8.20312 -2.580189,-4.18967 -4.952571,-9.62378 -6.041665,-13.83884 -1.166901,-4.5162 -2.860034,-8.2819 -4.847475,-10.78125 -1.679824,-2.11251 -3.05832,-4.38922 -3.063325,-5.05935 -0.0179,-2.39628 -2.874395,-6.69517 -6.066676,-9.13004 -3.234972,-2.46744 -14.635123,-6.01117 -19.436138,-6.04171 -1.43259,-0.009 -3.064995,0.75493 -3.773213,1.76605 -0.686537,0.98018 -2.292491,1.9294 -3.568785,2.10938 -2.2659078,0.31954 -2.3200865,0.51738 -2.3014037,8.40377 0.017445,7.36381 0.2583647,8.42172 2.7301857,11.98856 3.672143,5.29891 4.676669,4.08569 5.164096,-6.23695 0.03043,-0.64454 0.814335,-1.17188 1.742002,-1.17188 2.051346,0 4.133905,5.1543 3.326872,8.23395 -0.356282,1.35958 0.02839,2.7913 1.054646,3.9253 0.888522,0.98181 1.338329,2.23356 0.999575,2.78168 -0.780038,1.26213 -3.31776,1.30731 -3.31776,0.0591 0,-0.51563 -0.84375,-0.9375 -1.875,-0.9375 -3.23826,0 -2.03006,1.32527 3.319742,3.6414 2.839508,1.22933 6.108242,3.35881 7.263851,4.73217 1.955065,2.32346 20.460447,12.26246 22.81724,12.25485 0.581396,-0.002 1.582271,0.62939 2.224167,1.40283 1.45956,1.75867 3.794103,1.79747 6.113306,0.10163 z M 48.408462,155.14462 c -1.476908,-0.76704 -3.64057,-1.39462 -4.808137,-1.39462 -2.873974,0 -5.350886,-5.38932 -3.06488,-6.66863 0.858271,-0.48031 1.283498,-1.56948 1.014442,-2.59835 -0.516828,-1.97635 0.66505,-3.13847 2.192188,-2.15554 1.302106,0.8381 4.070425,6.26559 4.070425,7.98037 0,0.73615 0.906389,1.94027 2.014199,2.67583 3.099296,2.05786 1.900448,3.88452 -1.418237,2.16094 z M 11.002095,126.00209 c -1.2878091,-1.28781 0.649085,-3.18959 3.248475,-3.18959 1.978087,0 2.938914,-0.53134 3.273331,-1.81015 0.260351,-0.99558 1.068268,-2.03844 1.795373,-2.31745 1.257854,-0.48269 5.993226,0.83122 5.993226,1.66291 0,0.21683 -2.04084,1.70383 -4.5352,3.30446 -4.186682,2.68659 -8.420655,3.70438 -9.775205,2.34982 z m 275.187025,17.66177 c 2.07288,-6.73 2.0583,-7.39431 -0.324,-14.76836 -1.07106,-3.31529 -1.70668,-6.41728 -1.41248,-6.89331 1.03401,-1.67305 -2.27804,-7.58571 -5.05307,-9.02073 -3.15998,-1.6341 -4.71207,-4.03014 -4.71207,-7.2743 0,-2.94171 -3.25273,-6.33216 -6.07494,-6.33216 -3.15767,0 -3.7337,1.49203 -2.11259,5.47207 0.76932,1.8888 1.99633,5.96543 2.72667,9.05918 1.05545,4.47093 1.91319,6.00969 4.18065,7.5 1.56901,1.03125 3.9511,3.28275 5.29354,5.00333 1.99964,2.56289 2.27908,3.55377 1.54596,5.48199 -0.78325,2.06012 0.1186,11.61665 1.50984,15.99906 0.86339,2.71967 2.88743,0.78957 4.4325,-4.22677 z M 86.6062,143.86843 c 3.547474,-0.79545 7.555287,-2.02014 8.906253,-2.72153 3.975788,-2.06415 12.275467,-10.54659 13.733337,-14.03575 0.74104,-1.77358 2.20109,-3.49565 3.24453,-3.82683 1.86758,-0.59275 4.87339,-6.01845 6.14831,-11.09812 0.85526,-3.40763 3.59444,-2.97726 4.00888,0.62987 0.21921,1.90792 0.69719,2.49281 1.71729,2.10136 0.77745,-0.29833 1.82413,-0.54243 2.32597,-0.54243 0.50182,0 1.99905,-2.42578 3.32716,-5.39063 2.06332,-4.60609 2.41943,-6.75501 2.44689,-14.76562 0.0265,-7.751724 -0.3269,-10.146056 -2.04146,-13.828125 -1.14048,-2.449219 -2.7104,-4.453125 -3.48869,-4.453125 -0.7783,0 -2.23022,1.842705 -3.22647,4.094899 -0.99626,2.252194 -2.44909,4.624163 -3.22854,5.271042 -2.13794,1.774337 -1.74137,2.660936 1.86409,4.16739 3.17302,1.325769 4.27356,3.555231 2.34375,4.747919 -1.37662,0.850791 -1.14191,2.34375 0.36845,2.34375 1.98919,0 2.5697,2.614266 1.47951,6.6629 -1.00196,3.72101 -3.29719,4.91252 -4.32143,2.24335 -0.29681,-0.77344 -1.17896,-1.40625 -1.96037,-1.40625 -1.15448,0 -1.20274,-0.26268 -0.25755,-1.40155 1.23001,-1.48209 0.89175,-2.18938 -3.92764,-8.212569 -1.95743,-2.446371 -2.00423,-2.885059 -0.88564,-8.300783 1.00424,-4.862053 0.97649,-5.948861 -0.18537,-7.260879 -0.75152,-0.848633 -1.51541,-2.341502 -1.69755,-3.317485 -0.67115,-3.59638 -3.12808,-3.95001 -8.95144,-1.288399 -2.99323,1.368074 -5.864095,2.617181 -6.37972,2.775792 -3.626513,1.115551 -12.207056,7.198956 -14.115597,10.007626 -2.726321,4.012141 -1.664762,4.852887 2.365322,1.873316 5.894776,-4.358196 13.562359,-1.990777 15.941095,4.921922 0.81917,2.380537 2.81084,5.833284 4.42594,7.672779 1.6151,1.83949 3.19169,4.14846 3.50355,5.13102 0.31186,0.98258 1.6147,2.34721 2.89522,3.03253 1.83677,0.983 2.32822,1.97991 2.32822,4.7228 0,3.54213 -1.94082,6.23077 -3.70894,5.13801 -0.53821,-0.33264 -0.98432,-2.37286 -0.99136,-4.53384 -0.0209,-6.41057 -0.81633,-7.92806 -5.29119,-10.09431 -3.72594,-1.8037 -4.92798,-1.93124 -11.375082,-1.20702 -5.811021,0.65277 -7.271061,1.13639 -7.529555,2.49408 -0.431942,2.26871 5.245386,9.02956 10.279618,12.2415 10.191609,6.50245 9.531739,11.9858 -1.708932,14.20077 -2.415085,0.47589 -3.180459,0.21612 -4.027726,-1.36701 -1.361296,-2.54361 -0.352664,-4.07262 2.346219,-3.5567 1.461692,0.27942 2.002648,0.0312 1.692626,-0.77673 -0.854812,-2.22759 -3.06903,-2.19438 -5.77992,0.0867 -1.489131,1.25303 -3.863753,2.71784 -5.276937,3.25513 -1.824566,0.69369 -2.399358,1.42007 -1.982769,2.50569 0.902501,2.35188 -2.074747,4.89819 -7.607924,6.50673 -6.100653,1.7735 -9.910667,1.08271 -12.542946,-2.2742 -2.297059,-2.9294 -5.289124,-4.76988 -7.830476,-4.81667 -1.750266,-0.0323 -1.747339,0.0296 0.09818,2.07615 1.046224,1.16016 2.871025,3.87758 4.055114,6.0387 3.818083,6.96856 9.828153,7.7142 28.475698,3.53286 z m 18.99012,-23.23897 c -0.79098,-1.89308 -1.88155,-3.44196 -2.42348,-3.44196 -0.54194,0 -0.98534,-0.63281 -0.98534,-1.40625 0,-1.58478 3.31702,-1.92779 4.23762,-0.43822 1.31025,2.12003 2.07983,6.34906 1.36566,7.50462 -0.53036,0.85815 -1.18598,0.19545 -2.19446,-2.21819 z m 42.73002,22.33884 c -2.21306,-15.51311 -2.17367,-18.24051 0.30454,-21.0933 0.67188,-0.77344 2.55931,-4.02416 4.19429,-7.22383 2.442,-4.77904 3.7193,-6.17902 7.155,-7.84222 3.74754,-1.81414 4.60802,-1.90544 8.27702,-0.87818 2.25208,0.63053 4.51423,0.88715 5.027,0.57023 0.51278,-0.31691 1.82033,-3.32489 2.90567,-6.6844 1.56688,-4.850025 1.99418,-8.662585 2.07447,-18.509274 0.0982,-12.038199 0.0235,-12.529493 -2.5514,-16.789624 -2.95154,-4.883267 -5.41668,-6.392702 -10.44031,-6.392702 -3.47751,0 -11.52262,3.984725 -11.52262,5.707132 0,0.517328 -0.94922,1.895605 -2.10938,3.062839 -4.74367,4.772618 -7.13635,9.016037 -9.8562,17.480029 -4.14799,12.908231 -5.39162,21.32232 -5.27428,35.68431 0.11756,14.38765 1.0852,18.44048 5.36919,22.4882 3.36929,3.18346 6.87375,3.41219 6.44701,0.42079 z m 72.45491,-0.9558 c 3.09375,-0.74702 8.72783,-1.3648 12.52019,-1.37286 6.72081,-0.0143 21.40189,-2.37512 32.23128,-5.18308 2.95706,-0.76673 6.39239,-1.39406 7.63407,-1.39406 4.47961,0 4.04631,-4.75561 -0.65481,-7.18665 -2.38048,-1.23099 -6.17732,-1.4737 -21.68326,-1.38608 -10.33861,0.0584 -21.7506,0.21822 -25.35997,0.3551 -3.60938,0.13689 -7.93359,-0.10104 -9.60938,-0.52874 -2.36688,-0.60407 -3.04687,-0.48196 -3.04687,0.54714 0,1.9554 -7.18781,9.39697 -8.61691,8.92111 -2.25124,-0.7496 -1.8273,-3.31913 1.09715,-6.64989 3.26358,-3.71701 2.88788,-4.34435 -3.22721,-5.38888 -18.39069,-3.14135 -30.83879,-6.99661 -32.79119,-10.15566 -1.13045,-1.82911 -6.16614,-2.16959 -8.59085,-0.58085 -3.6919,2.41902 -8.96815,14.68975 -8.62116,20.04984 0.26391,4.07671 0.45649,4.36302 3.09392,4.59978 1.54687,0.13886 4.67267,0.68919 6.9462,1.22298 2.27353,0.53377 10.28916,0.95698 17.8125,0.94046 13.47855,-0.0296 26.17692,1.47356 29.69389,3.51501 2.3605,1.37016 4.39857,1.31094 11.17241,-0.32467 z M 76.874843,134.06258 c 3.204435,-1.71495 1.404831,-2.24956 -3.216775,-0.95559 -2.355557,0.65951 -5.669239,0.90413 -7.526885,0.55564 -3.194701,-0.59934 -4.666975,0.5731 -2.146808,1.70959 1.796386,0.81009 10.60119,-0.0845 12.890468,-1.30964 z m 22.203073,-7.67586 c -0.299269,-0.74787 -0.521419,-0.52573 -0.5664,0.56641 -0.04069,0.98827 0.180862,1.54199 0.492393,1.23047 0.311522,-0.31153 0.344822,-1.12013 0.07397,-1.79688 z M 79.6875,126.22893 c 8.217583,-3.11259 13.161338,-5.65245 12.849766,-6.6016 -0.553224,-1.68532 -7.486617,-5.22025 -10.271641,-5.23691 -1.417969,-0.008 -2.578125,-0.41951 -2.578125,-0.9134 0,-0.49389 -1.879143,-1.99923 -4.175872,-3.3452 -5.182587,-3.0372 -5.967117,-5.17009 -3.286436,-8.93475 1.69371,-2.378598 2.480582,-2.767257 4.641571,-2.292629 2.295834,0.504253 2.725918,0.216393 3.653883,-2.445572 0.784531,-2.250506 0.774944,-3.782623 -0.03772,-6.030034 -0.943749,-2.609892 -0.819,-3.450611 0.932544,-6.284671 1.112117,-1.799451 2.022035,-4.171151 2.022035,-5.270446 0,-1.412654 0.583912,-1.998718 1.99138,-1.998718 1.095259,0 5.261638,-1.476563 9.25862,-3.28125 3.996984,-1.804688 7.71659,-3.28125 8.26579,-3.28125 2.31198,0 1.96206,-2.058006 -0.77496,-4.557888 -1.61377,-1.473962 -3.495421,-4.320952 -4.181436,-6.326646 -1.013053,-2.961859 -1.749591,-3.698646 -3.921928,-3.923231 -2.08516,-0.21557 -3.490758,0.559264 -6.377568,3.515625 C 83.514992,63.303533 82.5,63.663284 82.5,60.862512 c 0,-1.646013 -0.832955,-1.207587 -5.343391,2.8125 -2.938866,2.619369 -5.813062,4.762488 -6.387102,4.762488 -0.574041,0 -2.267144,1.276988 -3.762451,2.837753 l -2.71874,2.837753 1.840217,3.431692 c 1.012119,1.88743 2.510389,4.09091 3.329489,4.896622 1.057792,1.040503 1.368785,2.619304 1.073404,5.449305 -0.479916,4.598015 -2.646422,5.441055 -3.613884,1.40625 C 65.738037,84.377738 62.067932,78.75 60.039442,78.75 c -0.420272,0 -0.963158,1.356061 -1.206414,3.013469 -0.377868,2.574575 0.1528,3.625725 3.643595,7.217258 2.247232,2.312085 4.085877,4.541961 4.085877,4.955282 0,0.413316 0.632812,0.751491 1.40625,0.751491 1.85272,0 1.786743,1.775672 -0.145301,3.910556 C 65.472104,101.19626 63.75,100.73205 63.75,97.5 c 0,-3.198497 -2.855068,-6.5625 -5.569672,-6.5625 -2.831279,0 -3.240921,1.779558 -0.637493,2.76938 4.690867,1.783467 5.190905,7.54312 0.654873,7.54312 -2.082505,0 -3.822708,1.82726 -3.822708,4.01396 0,1.67872 0.15761,1.66656 3.261389,-0.25169 4.360972,-2.69523 8.359254,-2.2593 8.733999,0.95226 0.231257,1.98186 -0.399876,2.69945 -3.847311,4.37435 -3.498256,1.69959 -4.349091,2.68744 -5.607853,6.511 -1.672325,5.07976 -0.951892,6.90012 2.730818,6.90012 2.037938,0 2.228958,-0.38636 2.228958,-4.50832 0,-4.44439 1.984036,-8.82015 3.370536,-7.43365 0.391235,0.39124 0.0048,1.23433 -0.858855,1.87353 -1.262475,0.93443 -1.432789,1.95918 -0.869062,5.22895 0.918598,5.32814 2.45506,5.44157 3.044881,0.22479 0.739378,-6.53957 2.822554,-6.05334 2.638747,0.61592 -0.08376,3.03891 0.156913,6.02558 0.534815,6.63704 0.908313,1.46968 5.859963,1.3904 9.951438,-0.15933 z m 212.47376,-0.38391 c 0.58713,-0.37882 1.50235,-2.2708 2.03381,-4.20439 0.93629,-3.40647 0.89088,-3.51563 -1.46245,-3.51563 -1.3358,0 -3.16203,-0.66362 -4.05827,-1.47472 -1.49481,-1.35278 -1.68109,-1.31228 -2.25305,0.48982 -0.87606,2.76021 0.30475,7.36382 2.16759,8.4508 1.90221,1.10997 2.21177,1.132 3.57237,0.25412 z M 54.375,112.37109 c 0,-2.93861 -1.398176,-1.95851 -3.563188,2.49774 -2.863762,5.89448 -2.573883,6.97085 0.750688,2.78742 1.546875,-1.94649 2.8125,-4.32481 2.8125,-5.28516 z m 253.53492,-8.0246 c 0.97952,-2.55258 -1.63287,-1.16957 -4.62867,2.45044 l -1.875,2.26567 3.01747,-1.74731 c 1.65961,-0.96102 3.22841,-2.29699 3.4862,-2.9688 z M 179.0625,105.9375 c 0,-0.51562 -0.42188,-0.9375 -0.9375,-0.9375 -0.51563,0 -0.9375,0.42188 -0.9375,0.9375 0,0.51563 0.42187,0.9375 0.9375,0.9375 0.51562,0 0.9375,-0.42187 0.9375,-0.9375 z m -99.805201,-1.81263 c -0.339876,-0.54993 -1.542276,-0.98492 -2.672002,-0.96665 -1.980865,0.0321 -1.970594,0.0794 0.28829,1.32954 2.507017,1.38745 3.383057,1.25409 2.383712,-0.36289 z M 98.4375,96.988641 c 0,-2.208544 -4.324134,-6.051141 -6.809453,-6.051141 -2.634019,0 -6.153872,2.349175 -5.099562,3.403481 0.409358,0.40936 1.559264,0.235331 2.555348,-0.386737 1.583567,-0.988952 1.993404,-0.778409 3.262689,1.676118 1.595628,3.085594 6.090978,4.088054 6.090978,1.358279 z M 85.774613,96.573234 c 0.328443,-0.531431 -0.04787,-0.688593 -0.882171,-0.368447 -1.624141,0.623241 -1.9213,1.295213 -0.57277,1.295213 0.485194,0 1.139918,-0.417047 1.454941,-0.926766 z m 96.740807,-9.561515 c -0.29927,-0.747875 -0.52142,-0.525728 -0.5664,0.566406 -0.0407,0.988281 0.18086,1.541992 0.49239,1.230469 0.31152,-0.311524 0.34482,-1.120117 0.074,-1.796875 z"
     id="path4186"
     inkscape:connector-curvature="0" />
</svg>
