<?xml version="1.0" encoding="UTF-8"?>
<!-- Created with Inkscape (http://www.inkscape.org/) -->
<svg width="955" height="824" version="1.1" viewBox="0 0 955 824" xmlns="http://www.w3.org/2000/svg" xmlns:cc="http://creativecommons.org/ns#" xmlns:dc="http://purl.org/dc/elements/1.1/" xmlns:rdf="http://www.w3.org/1999/02/22-rdf-syntax-ns#"><metadata><rdf:RDF><cc:Work rdf:about=""><dc:format>image/svg+xml</dc:format><dc:type rdf:resource="http://purl.org/dc/dcmitype/StillImage"/><dc:title/></cc:Work></rdf:RDF></metadata><path d="m0 412v-412h955v824h-955z" fill="#fdfdfd"/><path d="m451.5 769.05-9-.7802-17-4.1268-20.848-3.2399-.691-.42706-.69099-.42706-23.77-3.9504-22-4.9974-28-9.3248-16-6.0118-19-9.8475-11.112-6.579-12.888-8.7239-14.886-10.978-21.114-17.854-23.264-23.744-21.136-25.538-4.965-7-20.884-31-13.876-25-16.601-34-1.3313-5-1.3313-5-5.2698-20-1.6471-6.5711-7.6817-11.429-17.013-17.199-11-7.1454-14.842-2.2268-9.1582-2.7524-19.629-4.4958-39.371-19.867-.87005-.85029 7.87-8.0892 6.7364-4.1833 16.264-4.8494 16.086-3.6698 29.914-14.962 18-10.36 7.6031-7.3491 6.6733-12 5.0504-16 3.2668-10.663 3.9635-29.337 1.018-7.4004 1.018-7.4004 1.5301-6.0996 1.5301-6.0996 3.5518-16 14.93-29 9.7036-16 9.085-14 15.949-22 22.36-27 14.772-14.024 22.87-18.676 28.609-18.938 29.516-15.1 7-2.6336 15-6.2766 21-7.0704 12 1.0227 9.7582 4.4043 8.2855 5.2922 19.556 14.798-.86635 2.2577-11.667 25.899-13.066 13.107-31 17.808-28 16.926-7 4.1767-16 10.695-25.315 19.036-18.833 24.296-12.045 18-6.659 11-12.157 24-3.3806 8-2.9817 8.5-2.9818 8.5-4.2094 14-1.9915 10-1.9915 10-1.8363 10.5-1.8363 10.5-2.7819 17 .2186 37.5.21861 37.5 3.0767 8 3.0767 8 12.689 38 1.4714 6.9202 3.8779 9.0468 23.732 38.131 17.877 23.902 12.762 13.046 18 15.103 25.67 19.394 16.33 10.571 22 11.923 9 4.3567 11 4.8487 16 5.1256 15 3.9511 20.436 3.2128 76.564.0484 26-2.0523 9-1.141 13-3.7628 18-5.3127 21-6.7171 9-3.2473 6-2.6955 15.806-7.1624 16.956-10.205 11.983-9.284 14.653-11.059 15.602-15.072 10-10.997 3.3404-4.2091 10.869-15.664 9.2323-15.37 9.9368-19.109 7.3472-16.521 3.6762-8 5.9559-14.011 1.5427-4.5439 1.5427-4.5439 3.0812-14.901.99885-2.5.99886-2.5 2.0411-13.5 2.0411-13.5 2.9892-25 2.9446-11.81 1.12-20.19-.98086-7.5-.98085-7.5-5.1844-26-3.9517-19.723-1.8153-2.2774-1.5203-5-4.9168-11-9.9771-21-10.191-18-10.942-16-8.8942-11-30.317-31-23.987-21.871-24.552-19.604-14.448-9.7232-17-10.677-26-13.502-.53964-43.352 18.54-18.935 26.837 1.4229 11.163 4.8715 8 3.6868 17 7.3183 29 15.05 20 13.069 16 12.559 33.182 33.686 18.302 21.52 17.312 23.48 4.3555 6 15.182 25 9.9344 20 3.4593 8 4.9469 12 5.7124 16.538 3.1811 17.462 1.9608 5 3.7625 28 4.2399 24 1.9695 8.5287v4.8261l11.5 5.4013 17.207 8.5236 12.793 4.1006 22 6.2823 13 3.7306 18.482 4.4178 12.018 12.516v1.9742l-28.5 19.091-12 1.3341-14 5.8722-8.2191 3.9019h-1.3027l-8.4782 3.8404-41 18.546-6.2131 2.9-3.6094 8.6067-3.6094 8.6067-3.8071 12.035-1.4919 6.9646-1.5084 2-2.5153 8-4.5536 11-1.3841 10-15.236 32-13.873 24.921-14.815 21.772-15.257 19.307-31.127 31.187-15.598 11.813-8.4019 6.1368-16 9.7728-50.317 25.378-10.683 1.4189-13 5.5017-12 4.1379-22 5.1359-21 4.892-8 1.406-18 4.527-51 1.0236zm-63.5-146.72-1.5-.58711-8-3.5029-5-1.4766-8.9966-4.0379-33.003-22.098-14-10.271-16-14.801-15.848-17.054-10.34-14-10.537-17-9.8084-20.566-4.1121-10.434-4.9644-14-3.9568-23.921-1.3794-5.0394-1.3793-5.0394-.55823-10-.55824-10 .86473-13.617.86474-13.617 1.0479-1.958 1.0479-1.958 1.6221-14.425 1.6221-14.425 5.2183-17 1.3673-2 5.6223-15 17.305-34 10.715-16 7.1569-9.0629 8.9875-10.546 19.423-16.391 10.719-8.3045 17.858-11.883 22.943-12.812 21.057-4.4391 15-3.2316 18-3.8761 22-3.1859 37-.91783 29 7.0457 8 1.2928 22 5.969 17 5.6921 15 6.2483 15 7.2463 12 7.1418 20 14.289 17.218 17.864 11.305 14.862 12.907 15.969 12.064 20.253 8.8906 18.778 3.1091 7.5 3.1091 7.5 2.8439 8 2.8439 8 2.3692 35.792 1.0495 2.6038 1.0495 2.6038v18l-1.0255 2.5408-1.0255 2.5408-2.3784 33.918-5.0649 17-6.6211 20-4.371 10-5.797 12-2.607 4.5-2.607 4.5-8.2326 12-11.754 14.618-18.275 18.111-14 11.43-16 11.065-19.609 11.457-16.391 7.6097-21.069 7.2095-37.931-.03063-1.1147-.73468-1.1147-.73469-17.271-21.674.007-.66308.007-.66307 22.049-29.5h3.1016l15.336-5.2225 14-5.9574 28.468-13.713 14.191-8.2881 13.763-11.846 13.72-16.473 14.935-21 7.6085-32 1.4649-4.8653 1.4649-4.8653.96106-8.458.96106-8.458-1.0567-13.083-1.0567-13.083-.98574-1.595-4.829-31.592-4.1783-10.701-14.119-29.124-2.5762-4.0872-2.5761-4.0872-2.557-4-2.557-4-10.901-14.393-13.146-10.807-15-9.6121-6-3.386-21.555-12.429-11.445-3.6447-30-5.729-61 .1148-16.441 4.4128-23.559 11.186-19.562 9.7673-15.438 10.324-10.953 10.195-13.73 15-10.41 14-8.3124 14-6.7886 15-6.1783 19-1.0639 13.393-1.0639 13.393v41.696l4.6229 11.259 4.6229 11.259 1.7916 4.5 1.7916 4.5 9.3543 17.973 14.232 17.027 13.085 13.712 22 18.432 17 12.119 19.443 12.237 13.557.0838 19.833 18.865-1.1029 9.7754-1.1029 9.7754-3.17 10-6.0173 7-41.44.41541-1.5-.5871zm55.5-104.32-11-.66442-12.442-5.3478-12.057-6.1271-15.5-11.498-11.769-12.874-9.8962-15-3.2675-7.0663-3.2675-7.0663-.70912-6.4337-.70911-6.4337-3.921-20-2.6742-21 2.3568-6.25 2.3568-6.25 5.0063-13.108 9.8517-20.886 10.947-15.506 14.695-14.13 9-6.0497 12-6.2989 15-5.0861 19-3.2434 41-.0402 11 3.6102 20.731 9.7076 16.474 11.075 12.138 12.455 4.8823 6 6.6089 12 2.2989 3 5.4933 13.268 2.911 15.732 1.2193 23-1.1544 16.911-1.1544 16.911-2.2706 9.1788-6.4017 15.286-9.3752 15.042-12.649 12.964-13.751 8.882-8 4.5844-16.402 5.7089-17.598 2.0162-38-.3081-11-.66441z" fill="#7c6382"/><path d="m447.93 768.6-.48135-.48135-30.27-6.1697-22.679-3.9309-21.756-3.9383-15.244-3.8842-9-3.3075-13-4.0908-12-3.6028-12-5.3112-16-8.1244-10-6.0708-17-11.115-29-23.038-28.008-28.033-20.69-25.273-7.6782-10.727-14.762-22-4.2081-7-13.945-25-16.493-34-4.8485-19-3.6306-15.36-11.166-15.845-12.666-11.795-10.996-8.4286-27.908-5.9502-17.171-4.059-38.829-19.441-.5-.41791-.5-.41792 11.459-10.286 20.541-6.3929 16.385-4.091 32.932-16.85 5.6834-3.5146 10-6.4649 5.3542-5.6868 7.0333-12.493 7.1558-23.518.95693-5.4943.95693-5.4943 1.5328-12 1.5328-12 1.7738-11 5.1632-23.317 4.004-10.683 3.8472-7.5 3.8472-7.5 8.4854-15 4.2096-7 17.147-25.761 3-4.3271 13.913-17.912 15.818-18.567 21.27-19.478 17-13.178 22-14.866 20.521-11.412h.7903l20.99-10h1.2206l8.4782-3.8921 12-4.1882 13.933-4.1581 11.294 1.0241 9.2481 4.0909 11.525 7.5781 15 11.798.30212.78033.30213.78033-4.1042 7.6576v1.6477l-8.3502 17.252-13.15 13.202-12 6.485-6 3.4923-15 8.7431-25 15.092-25.925 16.825-19.478 14.93-7.597 7.3968-12 15.881-3 4.3825-13.157 19.7-3.737 6-8.708 16-3.0291 6.5-3.0291 6.5-6.5804 17-2.5393 8.5-2.5393 8.5-4.1288 18-1.6538 8.5-1.6538 8.5-2.784 17-.5616 30.5-.56159 30.5 1.8133 28 2.053 4.5 2.053 4.5 4.5034 13.5 4.5034 13.5 6.412 21 .53728 2 .53727 2 3.4448 5.9228 3.4448 5.9228 18.263 29.154 9.9706 14 14.005 17 6.6552 6.6297 25.466 21.042 3.0392 2.3287 11.166 8.3421 18.795 12.864 25.292 14.088 15.708 6.9481 11 4.1071 13.675 4.1946 24.325 5.4563h98l23-3.6844 21-5.9458 34-10.999 6-2.6519 15-6.4879 16-9.048 9-6.21 21.273-16.45 13.727-12.342 6.0976-6.181 14.203-17.389 11.112-16.873 13.666-24.737 12.553-28 2.7643-6 4.9364-11.376 1.1958-5.8122 1.1958-5.8122 1.5877-3.0166 6.0235-29.983 1.1544-11 1.1544-11 4.3473-22-.1428-37-1.575-7-1.575-7-4.3647-22-1.3071-5-1.3071-5-3.7292-9-3.7292-9-8.1542-17-10.904-20-16.202-23.911-25.906-27.089-11.2-11-20.894-19.07-12-10.055-12.909-9.8748-4.345-3-20.746-13.738-5-3.2604-10-5.45-18.5-9.2807v-43.312l17.689-17.607 26.811 1.3835 14 6.0086 12.417 5.7562h1.2194l31.364 15.725 11 6.5092 11 7.1527 18.048 13.414 38.952 39.744 24.447 30.955 1.8511 2.5 1.8511 2.5 9.0023 13 15.049 25 11.3 23.616v.82423l4.7653 10.559 1.473 5 3.5803 8 .68723 4 .68722 4 4.7761 20 1.8018 12 4.2882 28.525 1.796 4.7237 1.2425 10.252 1.2425 10.252 32.513 15.646 10.647 2.9656 18 5.3056 34 8.831 11.5 12.052v1.6897l-26.857 17.982-12.104 1.3694-9.5399 4.1518-8 3.5234-27 11.422-11 5.0706-20.217 9.5128-4.0126 1.2736-8.1892 18.451-1.1393 4.5-1.1393 4.5-4.8126 15-1.9494 4-5.0462 14.259-2.0308 10.741-14.297 29-12.103 22-13.849 20.926-10.027 13.074-9.0825 11-23.104 23.687-20 16.445-13 9.0162-19 11.062-10 5.1612-32.66 16.192-12.34 2.6829-14 5.408-15 5.0014-22 5.0502-22 4.7306-22 5.4932-62.088.64848zm52.069-15.595 10.5-.89541 31-5.0087 19-3.9783 23.478-6.1015 24.044-8.0377 17.478-7.1961 27.558-13.751 16.442-10.489 16.297-11.595 21.775-18.714 23.32-24.341 17.708-23.395 9.0367-14 13.3-24.111 5.1294-11.889 1.872-4 5.759-15 5.0643-16 7.4295-24 2.585-6 .74234-2.5.74235-2.5 6.613-13.202 10.449-11.432 11.398-5.7538 25.778-10.864 44-15.488 12.341-4.7588h3.0409l.53176-.86041.53177-.86042-7.4455-3.0766-17-5.0875-21-6.2982-12-4.109-14-5.7713-8.9484-4.4365-10.542-6.555-1.4358-2.2225-1.4358-2.2225-5.1456-13.757-4.9302-20.243-3.9227-25-4.0742-24.11-4.9555-17.89-4.9828-13-9.3828-18-14.939-25.801-9.7262-15.199-12.567-18-19.748-25-30.265-30.009-17.409-13.396-15.591-10.451-7-4.3925-18-9.9618-10-4.4575-13-4.7391-24.528-5.1732-21.35-1.8757-.97996.97995 3.1676 10.476 2.4656 11 5.5433 11 6.6811 6.2599 14 8.6719 16 10.923 22.808 16.862 21.192 17.12 27.24 25.685 19.76 22.207 14.725 19.271 9.1877 14 10.172 18 3.0891 6.5 3.0891 6.5 3.0167 7 3.0166 7 2.5432 8 2.5432 8 3.0131 10.058 4.2626 22.942 2.0354 17-1.0172 50-6.1201 36-4.8776 20-1.6549 6-1.6549 6-2.9087 9-2.9087 9-2.5669 7-2.5669 7-2.6997 6-6.1171 14.104-5.8259 11.075-8.5105 14.821-5.1894 8-12.05 17-3.026 3.8264-15.565 17.608-17.735 15.901-18.7 13.721-11 7.159-8.5579 5.3453-22.165 11.106-7.2771 2.705-15 6.2925-21 6.5948-23 5.1791-16.335 3.0886-21.665 2.8257-32 2.4138-31-1.2798-25.204-2.8204-23.796-5.2997-14-4.1766-18-6.8489-30-14.841-9-5.1612-29-19.333-18-14.958-24.735-24.049-12.424-15-9.9826-13-9.018-14-3.0615-5-3.0615-5-7.9445-15-10.936-25-2.1438-5.5-2.1438-5.5-5.0976-17.697-4.8846-23.303-1.2766-9.5-1.2766-9.5.11524-28.5.11523-28.5 3.1033-23 4.2317-24 5.0612-21 8.0874-24 6.985-17 8.444-17.081 12.455-20.919 11.638-16.66 14.996-17.34 13.753-13.783 13-10.471 19.264-13.001 49.736-27.64 19.408-12.735 6.0801-6.9248 4.0123-7.8647v-8.2112l-2.1407-3.9999-9.3593-4.2755-23-.0092-25 8.5813-23 11.06-17 10.247-21 14.788-16.948 14.239-21.376 21-18.35 22-16.325 22.977-12.703 21.023-12.574 25-3.0538 9-3.0538 9-4.2566 18-3.8469 21-1.9401 10-1.9401 10-4.9866 18.495-4.1614 11.122-6.1058 13.06-8.1806 8.8749-9.3322 6.8504-12.706 7.182-14.159 5.7729-13 4.9072-10 3.2926-18 6.0464-1.6977 1.6948 6.6977 1.4261 11 3.616 21 6.358 16.796 5.8716 21.204 10.879 12.437 10.229 8.6342 13.322 7.6142 17 1.8104 4 4.567 13.5 4.567 13.5 1.8262 5.5 1.8262 5.5 6.2693 14.9 7.2483 13.1 9.0123 15 9.9602 16 17.069 24 17.085 21 24.073 24.74 20 16.388 17 12.182 11 6.4694 7 4.0332 21.138 10.557 20.862 7.8387 15 5.1349 10.833 3.3064 19.167 4.9388 20 3.9126 9 1.8335 28 3.4492 18 1.3929 28 .22169 10.5-.8954zm-105-130.92-7.5-.75478-18.457-7.33h-1.3118l-39.231-26.27-17.265-13.72-26.739-27.628-16.012-23.882-2.8975-6-2.1998-3-7.6722-17-2.6258-6-6.1016-16.919-2.8886-17.081-5.0569-24 .1008-22 1.7139-17 1.5724-8.5 1.5724-8.5 2.9397-23.491 3.9672-9.5089 7.2199-18.784 10.285-21.216 7.8222-14 12.73-19 13.953-15.881 13.582-11.771 22-16.425 8.5-5.4241 7.5-4.7531 16.77-9.2776 16.23-3.9121 23-5.1162 33-6.1326 44.305-1.0625 13.695 4.12 16.51 3.0942 16.49 4.2034 20.463 5.906 14.537 6.0582 7.0783 2.6349 14.32 7.2114 14.974 8.8527 15.628 11.498 16.686 16.175 13.823 18 11.152 14 5.2251 8 10.397 18.284 4.6962 10.358 4.6962 10.358 8.0953 21 .76791 8.5.76792 8.5 3.5511 32-.02 9-3.4691 29-.89843 9.1438-.89843 9.1438-6.2215 19.712-6.1455 17-10.656 22-8.5486 13.05-5.9367 7.9496-10.063 11.906-18 17.761-16 12.481-12 8.0556-15 8.8029-6 3.5049-12.463 6.0722-8.5369 2.7955-14.007 4.8177-23.446 1.4438-16.174-1.4109-13.516-16.231-4.4286-6.408 9.4958-13.592 11.424-15.198 9.6506-2.595 18-6.8704 16-7.3024 24.072-12.285 10.928-6.9919 10.653-9.5796 16.467-20.177 12.395-17.331 4.0358-15.835 4.0358-15.835 1.8725-9 1.8725-9 .57479-5.5911.57478-5.5911-1.508-12.909-1.508-12.909-1.519-9.5-1.519-9.5-2.6179-15-5.1263-12-12.196-25-1.243-1.9653-1.243-1.9653-12.287-19.069-8.7128-10.368-12.496-10.023-11.504-7.4133-7-4.2513-5-2.8194-20.961-11.746-10.039-2.1217-14.405-3.6524-24.868-2.3382-54.726 1.0394-9 2.243-10 4.2079-32.657 15.815-13.343 8.0894-10.145 7.8066-17.253 17.531-10.412 13-9.7999 15-4.0585 8.5-4.0585 8.5-2.8085 7.6069-2.8085 7.6069-3.4197 18.786-.48643 28.099-.48642 28.099 3.1372 6.8011 8.3565 20.939.78973 1.5306.78972 1.5306 8.3156 16.861 5.6825 8.1393 16.044 18.293 21.085 19.039 18.536 13.904 18.443 12.29 9.3551 4.9742 12.202.037 18.723 17.804-2.2786 23.335-5.0526 9.9709-6.9318 2.8963-24.46.79592-7.5-.75477zm22.544-16.187 5.6195-2.1025 6.8361-6.0022v-1.6959l-14.5-9.4046-45-24.981-14-9.1679-12-8.8691-25.035-25.175-11.632-17.735-6.7408-12.265-6.2555-15-2.7997-9-2.7997-9-2.3159-11.5-2.3159-11.5-.0494-41 4.5268-23 6.2344-19.968 4.788-11.032 3.3346-6.5 3.3346-6.5 4.5656-8.4417 11.4-15.223 12.602-14.075 17.482-14.551 19.937-13.146 21.739-10.834 27.419-9.3831 15.581-2.8563 18-2.1998 37 1.0517 23 4.197 20.245 5.8891 21.755 9.274 15 8.0215 17 12.245 16.759 16.03 11.373 14 10.517 16 12.801 26 5.878 17 2.5675 10 2.5675 10 2.1788 13 .53696 19 .53695 19-3.3009 24.993-2.9236 10.003-2.9236 10.003-2.5028 6.3604-2.5028 6.3604-9.1291 16.884-9.2917 13.395-13.652 14.714-13.489 11.294-13.776 8.6974-30.224 14.507-5 1.5136-34 16.691-5.6561 4.7831 6.0307 13.3h8.7999l26.826-4.9565 17-5.8397 8-3.3623 13-6.1711 19.704-12.899 17.471-14.658 16.485-17.415 8.3064-11.198 6.1516-9 7.2033-12 6.2861-12 6.6746-17 5.0958-16 1.5618-7 1.5618-7 .96851-7.5.96852-7.5v-41l-.96644-7.447-.96643-7.447-5.1756-21.071-4.8117-14.334-6.7532-16.012-9.64-17.689-12.875-19-12.559-15-19.691-19.138-14-10.944-14-9.111-15.007-8.2174-14.993-6.2705-21-6.6822-8-1.4292-8-2.7984-31-5.2988-44 .0845-28.37 5.3174-19.63 5.198-14.952 4.8534-24.048 11.73-20 13.409-13 11.283-15.576 15.881-16.558 22.131-4.676 8-6.8805 12-9.0214 21-4.959 15-4.1056 18-1.7593 10-.6115 26.593-.61151 26.593 2.2343 18.945 4.7531 20.869 6.2749 17.668 7.1879 14.332 7.229 12 14.904 20 22.175 22.689 19.517 15.771 17.483 11.703 14 8.2059 20 7.9885 14 2.9799 5.425.163 5.6195-2.1025zm31.456-87.966-12.5-.89631-13.191-3.9988-16.809-9.2274-14-10.679-9.1753-9.6296-10.097-14.156-7.2191-14.844-2.9344-16-4.3406-25-.90298-7.7306-.90299-7.7306 3.9801-9.5388 7.1018-18.481 7.8831-16.519 8.2085-12.57 13.38-14.184 11.243-8.6514 14.775-7.595 8.0822-3.313 26.642-5.187h39.624l15.651 6.2094 19.384 9.642 11.616 8.4184 10.68 10.23 8.4744 11 10.07 18 5.7757 19-.10246 29-.10245 29-6.2913 20-9.8252 18-9.714 11.086-7.9646 7.1082-10.779 7.3436-16.371 7.7778-19.85 4.4634-37 .54917zm51.242-15.775 7.7422-2.0707 12.001-4.8473 14.366-8.6803 11.912-12.058 7.4553-11 4.5577-8.9616 4.7883-14.038 2.9356-16.762-.008-23.238-2.793-17.205-5.1508-14.279-4.3208-8.4695-8.1182-11.046-10.653-10.455-12.14-8.2444-14.317-7.1146-18.676-5.6414-21.743-2.2766-19.169 2.2607-16.43 5.693-10.982 5.5319-15.49 10.877-11.909 13.369-4.6837 7-3.0971 5.5-3.0971 5.5-2.5377 7.5-2.5377 7.5-1.0737 7.8224-1.0737 7.8224.008 18.355 2.921 18 2.8907 8 2.8907 8 2.5805 5 2.5805 5 10.771 14 13.09 11 13.184 7.3075 18.583 6.1386 13 1.9276 34-.64642 7.7422-2.0707zm-37.242-19.245-7.5-.79136-14-5.2855-11-6.7195-14.2-14.615-4.3484-6.3766-8.0693-16.341-3.8516-15.283.0298-13 2.3126-8.5 2.3126-8.5 6.2088-11.584 10.505-13.202 13.101-10.855 18-8.6117 18-4.496 15.756 1.2056 17.025 5.1929 15.219 9.103 11.607 11.247 6.6471 10 5.1533 13 .98835 4.5.98834 4.5.67829 7.5531.6783 7.5532-2.3595 17.731-6.4282 16.163-7.564 11.375-12.981 12.143-12.408 6.4163-15 5.607-11 1.0397-7 .62198-7.5-.79136z" fill="#4f2d57"/><path d="m453 768.36-3.5-.45583-26-5.1583-26-4.6298-26-4.9234-12-2.9005-20-6.5154-3-1.4679-11-2.5341-4-2.4717-7.7287-2.5338-21.271-11.031-.5-.72969-.5-.7297-6.4448-3.3019-7.5552-5.0138-3.778-2.4633-10.222-7.4614-4-3.0563-7-5.3976-19.857-17.085-15.447-16-7.342-8-16.773-20-10.114-14-16.684-25-8.6285-15-21.395-42.384-2.1109-6.308-2.1109-6.308-2.0482-8-2.0482-8-2.6206-11-4.8398-7-8.2659-11-7.716-7.1384-10-7.9525-5.7015-3.5873-18.371-2.7598-7.9273-2.7679-14-2.4616-42.67-21.068 7.6384-6.2643 3.6189-3.5876 18.412-6.0391 14.915-3.1054 30.753-15.268 5.3322-2.7794 13.332-7.711 8.9338-8.9338 5.9492-10.576 6.1522-20 3.167-11 3.8387-33 4.1828-19 4.1012-16.612 6.2393-13.388 13.821-25 5.1046-8 5.6772-8.327v-2.173h1.8024l4.3187-7.3197 14.344-19.18 19.223-23 15.812-15.259 6-5.1409 13-10.651 4.2858-2.9496 14.714-10 2-1.5282 7-4.5392 20.043-10.933 8.9575-4.3552 11-5.0067 11-4.3055 22-8.0576 13.085-.06704 7.9151 2.5596 16.824 11.232 4.9626 3.3462.60655.83259.60654.83259 7.4863 5.5799-1.389 2.2044-1.389 2.2043-1.447 5-5.0141 11-8.9095 13.386-7.271 5.6135-14.067 8.3511-18 10.279-16 9.7852-7.3835 4.0662-7.6165 5.0555-1.5.98411-1.5.9841-13 8.3223-.5.58641-.5.5864-13 8.9067-2 1.5044-6.8679 5.5889-11.132 11.035-4.4708 5.9646-10.529 14.006-10.142 14.994-14.065 25-7.0659 16-5.3163 14-1.8657 4.4942-6.9379 27.506-.69013 5-.69012 5-1.6971 4.5504-1.0791 6.7248-1.0791 6.7248-2.8473 32-.006 26 1.0156 19.364 1.0155 19.364 3.0558 8.1359 3.0558 8.1359 3.668 10 7.402 24 3.7681 11.508v1.7664l15.326 24.726 9.1495 14 2.025 3.2355 3.9921 5.7645 11.854 15.858 14.105 14.849 21.049 17.483 10 7.3889 4 2.9902 7.7639 5.9224 16.833 11.2 20.403 11.377 15.476 7.4314h1.222l6.3023 2.9277 18 5.9283 15 3.3325 15 2.964 85 .188 24.467-2.3393 9.533-2.2841 14-3.7857 16-4.7136 14.489-4.3307 5.5111-2.8748 3.0771-.012 6.9842-3.5608 9.835-3.756 18.771-9.7611 1.1661-.96446 1.1661-.96446 11-7.3545 12-9.6418 4.7461-3.4969 15.254-13.292 10.114-10.708 6.8863-8.2532 3.5688-4.7468 5.4312-7.4382 5.7824-9.5618 4.6162-7 8.0985-15 2.193-5 1.8051-4 1.9288-3 2.4302-5.5 2.4302-5.5 7.3008-17 2.8922-6 2.3892-8.5 2.3892-8.5 5.169-22.032 1.5076-12.484 1.5076-12.484 6.06-38.891v-13.371l-2.0191-13.369-2.0191-13.369-1.4731-5.5-1.4731-5.5-3.1582-18.967-.79842-1.0166-.79841-1.0166-2.5186-8-1.2787-2.5-1.2786-2.5-4.9661-11-8.3835-17-5.6958-10-1.996-4.2535-10.685-15.747-8.196-11-7.5043-8-21.491-22-13.732-13-8.2379-7-15.984-14-3.853-3-15.964-12-7.9967-5.1998-10-6.3142-3-2.0645-8-4.691-22.5-11.648v-43.461l16.5-16.493 26 .52165 14 6.0858 11 4.9364 9.8292 4.328 20.171 10.197 10.917 5.8028 16.083 10.447 3.7686 2.5525 15.263 12.091 31.968 32.307 10 11.446 12.707 15.156 3.2494 5 9.0687 12 10.139 15 10.125 17 4.9235 9.5066 4.9234 9.5066 10.132 23.987 2.4928 8 1.4933 2 1.1612 7 1.1612 7 3.0327 10.683 1.9363 12.659 1.9363 12.659 1.4678 9 1.4677 9 2.1424 10 1.0811 7.6054 1.0811 7.6054 29.622 14.346 12.656 4.19 17 4.8125 19 5.1576 15.393 3.5537 4.6932 3.7291 7.4135 8.2424v2.1489l-26.354 17.529-13.627 1.4561-5.5181 3.0093-17 7.2351-8.2191 3.8794h-1.588l-11.193 5.1799-8 3.6328-24 11.203-2.8663 1.6175-1.5072 2.8663-5.9862 14-3.1694 10.5-3.1694 10.5-4.8729 13-1.4032 3.1558-1.4032 3.1558-1.1492 6.3442-1.1492 6.3442-14.575 30-1.3804 3-5.3681 9.1668-4.5418 8.3354-9.3406 14.498-10.009 14-9.7189 12-8.3894 9.938-18.065 18.062-10.935 9.3792-14 11.021-5 3.7836-17 10.012-7 4.1294-26.419 13.174h-.90211l-13.86 7.8542-12.819 2.2136-4 1.8252-15.487 6.0412-5.7567 1.6127-5.7562 1.6124-21.5 4.8405-21.5 4.8238-23 5.2782-52 .71385zm66.5-16.78 9-1.5756 26-4.7894 19-4.3038 4-1.8426 13-3.1377 4-1.8542 12-3.3184 2.2177-1.7692 10.782-3.8205 5.9275-2.6689 32.386-16.272 15.686-10.503 11.5-8.7249 12.5-9.4758 32.228-32.024 12.772-16.354 9.1867-12.646 8.8133-14.572 3.5222-6.0404 8.1759-15.388 10.647-25 .71515-3 .71514-3 1.5454-2 3.2817-13 2.8971-6.3023v-1.8052l7.126-21.893 3.374-7.9905 5-9.5081 7-8.737 7-4.9744 17-7.5315 6-2.6096 13-5.2666 10-3.0929 1.9088-1.1601 28.091-9.7832 12-3.9033 6.5-3.0366v-1.4946l-19.5-6.3985-6-1.2889-2-1.451-15-3.5927-3-1.5738-11-3.2849-8.4782-3.8218h-1.6122l-21.91-11.167-3.7656-3.3333-5.7344-12.323v-1.8462l-4.2289-12.83-1.9218-11-1.9218-11-3.9413-27-1.8889-6-1.0931-6.2525-1.0931-6.2524-6.0089-18.234-8.1364-16.261-12.167-22-.79962-.33333-.79961-.33334v-2.1172l-8.3172-13.216-9.1036-14-15.841-22-14.128-17-13.11-13.701-12-11.601-18-14.83-12-8.454-8-5.3182-27.215-15.321-9.785-3.6187-1.0935-.82033-1.0934-.82033-15.813-4.2074-12-2.6924-20-2.15-8.5-1.1752v1.299l1.5765 6.7055 1.5765 6.7055 5.2931 16.601 9.7139 10.899h1.8271l30.513 20.477 1 1.065 19 13.865 28.279 23.468 27.907 27.626 21.521 26 1.1464 1.5 1.1464 1.5 15.677 23.625 13.376 26.375 3.1862 8 3.1862 8 5.3316 16 3.9045 17 2.8918 16 .58691 24.5.5869 24.5-3.3788 33.914-1.6185 3.086-.7135 5.5-.71351 5.5-2.686 12-4.9632 19-4.1774 15-2.7968 6-2.3754 9-.75713 1-.75714 1-1.0225 3-1.0225 3-2.3377 5.5-2.3378 5.5-10.478 20.587-11.532 19.413-10.669 15-16.677 20.109-18.714 17.067-15.418 12.154-22.916 15.132-23.666 11.907-9.3903 4.13h-1.1315l-8.4782 3.8921-12 4.2111-18 5.0443-22 4.9289-21 2.9914-18 3.3814-65 .0474-10-2.3816-21-3.3092-19-4.9861-16-5.6486-8-3.3362-11-5.0182-14-7.2211-9.4089-5.0957-13.591-8.2406-20.912-14.455-24.088-20.562-16.778-16.742-13.272-16-10.05-13-15.055-24.018-13.521-27.982-2.5662-5-2.5186-8-1.4533-2-5.5135-17-3.895-16-.93206-4-.93205-4-3.1109-22-1.9762-30.059 1.8673-30.941 4.1785-33.781 1.0106-3.1094 1.0106-3.1094 1.5738-9 1.5738-9 2.9972-10 1.9911-6.4545 1.9911-6.4545 3.5528-9.5455 3.5528-9.5455 4.9522-11 6.06-12.729 7.0398-12.271 1.1287-2 1.1287-2 9.8961-15 9.8881-13 10.427-12 13.92-14.012 22.19-16.988 12.643-7.8844 50-27.928 17.684-11.979 7.6414-9.6671 2.0922-9.7557-1.9289-6.9858-3.4888-3.0179-9.3856-2.2819-18.614.07026-12 2.7785-14 5.2723-11 4.9802-19.964 10.104-28.656 19.009-19.381 16.233-26.511 26.73-18.552 23.321-7.9372 12-1.1318 1-7.0199 11-1.8994 3-1.8994 3-1.7648 3-1.7648 3-13.52 27.03-1.6131 3.9851-1.6131 3.9851-2.5357 11-.82279 1.0467-.82279 1.0467-4.2539 21.907-2.3576 12.5-2.3576 12.5-2.0921 10-2.0921 10-.82952 1.512-.82953 1.512-3.4185 11.976-7.7382 16.357-7.6236 8.4446-10.496 7.7584-16.661 8.6434-9.8426 3.6406-2 1.4666-11.976 3.4693-1.512.7814-1.512.78139-24 7.5437-1.9833 1.6965 1.4916.96171 1.4916.96172 8 2.2368 20 6.0058 18 5.8474 12 4.839 13 6.6523 6 3.821 9.5756 7.8404 2.9585 4.3001 2.9585 4.3001 9.4681 18.65 4.5832 13 9.0505 27 2.9055 6.3023v1.5663l4.2156 9.1314 4.8338 10.3 16.824 27.924 5.0868 7.7754 8.5398 12.655 15.679 21.216 14.574 17.129 28.748 28 9.5337 7 11.465 8.7309 16.639 10.871 4.3611 2.037 10 5.8112 5 2.13 10 4.7442 9.0071 4.1152 10.993 3.8241 13 4.3924 4 1.7799 16 4.2343 20 4.9355 27 5.0424 13 1.823 23 1.8725 55-.68816zm-129.56-130.52-4.5647-.83764-8.8706-3.9668-8-2.5411-16-10.134-.5-.54588-.5-.54589-13-8.5101-3-1.9531-12-8.4085-1-1.125-8-5.9577-23.108-23.031-8.892-10.84-3-4.4592-7.1646-10.701-5.8798-10-1.4117-2.5-1.4117-2.5-2.4321-5-5.035-11-1.6681-4-1.6681-4-5.7832-16.211-3.0382-18.789-3.9598-17 .0308-38 3.8853-18 3.0589-26 3.9774-9.3708v-2.07l5-10.931v-1.4967l1.9051-4.0657 1.9051-4.0657 7.5044-16 8.9248-16 9.0623-14 13.626-17.187 13.871-12.813 5.7018-4.459 17-13.26 12.951-8.2814 3.4304-2 20.618-11.714 18-3.8861 23-5.0386 25-3.985 8-2.3763h45l2.3086 1.3165 2.3086 1.3166 18.383 3.7888 19.967 4.2205 2.0334 1.6001 16 3.4755 2 1.5214 8 2.4836 4 2.4738 8 2.547 7 3.5993 14.136 6.9703 7.8639 5.2234 3 1.9509 9.4739 6.643 7.1553 5.8695 11.532 11.05 24.925 30.95 9.0147 13 10.49 18.938 7.6337 17.062 9.226 23.178 1.0677 13.411 1.0677 13.411 3.4653 26.1-3.4733 25.9-2.1664 25-6.1261 20-1.8929 4.6854-1.8929 4.6854v2.4978l-1.8713 4.0657-1.8713 4.0657-8.2177 17-5.5397 9.4323-8 11.334-14.233 17.234-14.767 14.023-8.37 6.9767-4.63 3.4152-6 4.7243-17 11.064-11 6.1496-16 8.191-8 2.1358-6 2.6225-7 2.3747-26.131 1.0925-15.28-1.4318-13.87-17.559-2.4043-4.4924 7.6714-11.286 10.514-13.846v-1.4114l6.5-2.4445 4-1.6554 11-3.4074 2-1.4747 8-2.5186 5-2.5722 37.5-18.533v-1.5017l4.2798-1.3584 17.014-16.276 9.8109-12 1.4864-2 1.4864-2 9.6589-13.064 2.0234-3.9681 2.0234-3.9681 2.1991-9.5 2.1991-9.5 4.6494-20 2.1688-6.9868-.0402-21.013-.96834-6-.96833-6-2.4671-15.5-2.4671-15.5-1.7656-8.2008-2.062-4.3996-2.062-4.3996-4.031-9-4.031-9-2.8186-5.1409-2.8186-5.1409-4.7687-8.7182-1.2313-1-2.7986-5-11.09-14.782-7.111-6.9214-15.942-11.297-21.943-12.5h-1.6154v-1.8044l-6.0884-2.1224-2.8378-2.0207-2.8378-2.0207-12.736-3.177-12-2.7092-18-2.4574-50-.85074-14 2.342-9.5707 1.8145-13.429 6.1681-31 15.271-2.6429 2.5667h-1.9054l-9.6451 6.6347-3.5451 2.8653-15.839 15-15.86 19.267-2.3845 5.2334h-1.4587l-4.3465 8.5-6.0489 11-3.1495 9-2.5232 4-3.3239 12-1.9553 9-.54791 31.704-.54792 31.704 1.9806 4.2959 1.9806 4.2959 2.5617 7 1.2625 3 1.2625 3 7.4519 17 2.5719 4.5 2.5719 4.5 5.0799 7 1.9998 2.3745 1.9998 2.3745 8 9.2444 14 14.01 10 8.3943 13.086 10.602 17.914 12 1 1.0617 14.12 8.4383 12.88.014 17.205 15.485 2.1751 3.2812-1.003 10.359-1.003 10.359-5.0556 11.132-4.3186 2.702-35 .55983-4.5647-.83763zm30.801-15.406 3.2365-1.6876 7.027-6.1698-.0584-2.2928-13.442-8.3907-33-18.189-3-1.8994-8-4.295-16-10.21-1.5-1.1728-1.5-1.1728-18-14.843-13.562-14.431-10.522-14.397-6.2631-10-8.0388-17-4.9924-13-4.3231-16-3.0641-17v-43l1.5485-8.5 1.5486-8.5 1.922-7.5 1.922-7.5 5.4204-15 11.113-22 4.291-7.1392 7.2207-9.9767 13.353-15.31 14.637-12.574 3.7895-3 14.569-10 9.4309-5.4447 17-8.133 3.4598-1.9141 24.54-7.8046 12-3.2372 22-1.9646 25.288-.00167 20.712 1.9821 19 4.1697 12.549 3.8504 17.451 6.8434 13 6.4036 6.4553 3.4759 17.27 11.73 17.729 16.689 12.096 15.036 11.153 16.936 10.573 20.997 7.0449 20.387 3.3844 11 3.9091 21 2.21 26.675-2.187 25.325-4.1143 21-1.9329 4-3.0944 10.877-4.1207 9.1226-6.1866 12-11.079 17-19.109 19.723-11.499 8.7598-11.501 6.4152-.5.59825-.5.59824-12 5.6622-12 5.586-17 7.3519-22 10.928-7.6639 4.6131-3.0664 3.0664 3.1674 5.6983 3.0788 7.7825 21.484-1.1895 12-2.8468 15.784-4.237 2.216-1.7485 8-2.5239 19-9.3617 16.863-11.635 2.1373-1.6396 9-7.4803 14.725-14.12 14.275-17.333 6.2563-8.6667 8.9126-15 9.0256-18 2.5662-8 .8005-1.0191.80051-1.0191 3.4303-13.962 1.4946-2 3.312-21 1.9541-9 .1182-42.453-2.0082-6.5474-2.3368-16.943-2.6355-8.0566-3.3014-12-2.8888-6.3023v-1.3625l-6.2261-14.186-11.915-21.644-13.18-18.506-10.461-12-17.718-17.335-12-9.8141-20-13.204-15.159-7.6464-7.8411-3.402-13-4.9674-12-3.3325-19.398-4.6172-.97844-.6047-.97844-.60471-20.645-2.7828-29-2.4097-33.947 3.2875-13.053 2.8716-17.447 3.9632-1.7765.90527-1.7765.90526-10 2.3795-15 6.1681-16.569 8.7318-5.4308 3.6593-10 6.7022-17 14.026-12.112 12.303-12.057 14.818-3.7843 6-1.257 1-9.9324 16-6.2505 12-4.8538 11-2.5132 8-1.5662 2-4.2981 16-.93406 3.5-.93407 3.5-1.5942 12-1.5942 12-1.5971 26 .85298 22 .91682 5 .91683 5 3.3026 22 1.4974 2 3.4303 13.962 1.5173 2.0382 3.6032 9.7445 9.1412 16.256 4.5532 7 5.5469 7.8073 10.689 13.193 10.477 11 12.98 12.358 16.854 13.096 2 1.585 12.002 8.1359 13.806 8.3873 13.528 5.9373h1.2745l9.2608 4.2188 9.1294 1.6605 15-.54164 3.2365-1.6876zm37.764-87.783-9-.84048-19.123-1.8051-9.8774-4.4587-7-3.3843-4.9713-2.8789-14.81-10.889-6.9535-7.111-6.4921-8-7.3544-10.596-6.8944-14.525-.9273-5.9398-.92731-5.9398-2.6391-15-2.6391-15-.79286-6.5-.79285-6.5 2.9181-7.5 2.9181-7.5 2.8583-6.3023v-1.5048l2.5646-5.5965 2.5646-5.5965 6.0537-12 6.317-9.9832 3-3.5377 13.221-13.479 3.8046-3 8.9744-5.8898 10-5.3241 8-2.5467 2-1.5469 31-5.1956 31.758.004 14.242 5.1021 9 4.006 10 5.1512 10 6.1557 14.312 11.56 6.505 8.2133 4.6601 6.867 3.3019 6.4448.72607.5.72606.5 2.7872 5.9195 2.7872 5.9196 4.7948 19.161 1.0332 24-.91749 16-.9175 16-4.2895 15.784-1.6926 2.216-3.3411 8.6017-9.2199 13.995-13.256 13.554-11 7.152-13.044 6.697-5.956 2.429-10 2.0522-23.602 3.0188-15.398-.29202-9-.84047zm32-12.855 4-.90067 13.578-3.0972 9.4218-4.0184 12-6.3105 2.8233-2.0927 2.8233-2.0927 9.3892-9.1079 9.3206-12.399 5.3532-11.493 1.8616-4.0016 2.0553-7.4992 2.0553-7.4992 1.6722-10 .0268-26-1.6095-9-4.1717-15.092-3.0488-6.7952-3.0488-6.7952-4.0624-5.318-4.4396-5.7699-9-9.3399-7.9429-5.8902-9.8533-6.4122-18.204-7.9398-15-3.2374-15-2.099-15 1.1091-17 4.2396-7 3.0528-12.988 6.2868-15.012 11.279-9 9.7209-1.5 2.1635-1.5 2.1635-6.419 9.1533-5.8886 13.52-4.6924 17 .1388 34 5.2592 18.658 4.2102 9.3422 5.2301 10 8.5353 11.184 11.306 10.333 14.113 8.2424 11.782 4.7876 13.426 3.1036 8 1.5997 29 .1632 4-.90068zm-27-22.491-1-.32072-15-3.4389-9.9023-4.9993-6.0977-4.2625-8-6.8738-10.045-12.503-3.8158-7.8118-3.8158-7.8118-1.389-2.7916-1.3889-2.7916-1.2239-8.4648-1.2239-8.4648 1.1432-8.7436 1.1432-8.7435 5.6161-13.012 6.5652-10.624 13.435-13.568 14-9.0681 15.444-6.1447 16.556-2.306 17.037 2.094 15.386 5.9247 13.983 9.296 11.992 13.087 6.9548 14.322 4.1469 16.333v20.753l-2.5762 8.8863-2.5762 8.8863-2.8506 5.647-2.8506 5.647-9.5387 11.978-11.023 8.4754-15.085 7.2019-18.79 4.6922-14.21-.1579-1-.32072zm23.715-14.661 5.2832-1.133 14.693-6.974 12.91-12.077 7.9857-13.673 1.9351-8.7515 1.9351-8.7515v-10l-1.9125-8.6481-1.9125-8.6481-6.3986-12.704-13.244-13-11.989-6.2556-11-3.7231-22 .0876-14.259 5.3972-9.7408 5.4275-16.244 16.066-8.5814 18-.43198 10-.43199 10 4.8293 15.034 8.1668 13.966 13.733 13.243 14.437 7.2702 10.524 1.8818 16.431-.90114 5.2832-1.133z" fill="#341c3b"/></svg>
