<?xml version="1.0" encoding="UTF-8"?>
<!-- Created with Inkscape (http://www.inkscape.org/) -->
<svg width="953" height="827" version="1.1" viewBox="0 0 953 827" xmlns="http://www.w3.org/2000/svg" xmlns:cc="http://creativecommons.org/ns#" xmlns:dc="http://purl.org/dc/elements/1.1/" xmlns:rdf="http://www.w3.org/1999/02/22-rdf-syntax-ns#"><metadata><rdf:RDF><cc:Work rdf:about=""><dc:format>image/svg+xml</dc:format><dc:type rdf:resource="http://purl.org/dc/dcmitype/StillImage"/><dc:title/></cc:Work></rdf:RDF></metadata><g transform="translate(-1.0235 1.0235)"><path d="m0 413.5v-413.5h953v827h-953z" fill="#fdfdfd"/><path d="m439.42 802.81-4.9214-3.1862-22.477-18.79-33.844-35.337-18.502-22.745-30.966-34.255-111.34-111-18.248-20-7.5115-10-14.337-17-27.778-29.082-39.73-38.918-15.648-17.13 107.38-107.9 11.94-15.973 10.962-13 9.9546-11 94.143-94.838 16.741-14.662 1.2589.0624 12.757 11.996 36.131 30.442 27.112 23.886 24.578 24.221-.28905 57.446-.28905 57.446-5 8.1633-5.3709 6.3367h-3.0973l-11.84-5.7352-11.692-9.0704-13-12.694-10.979-8.6007-27.021-24.747-20.539-21.271-9.6676 10.618-10.814 13-15.569 21-8.1336 11-14.233 18-1.0816 1-13.192 16-6.3232 9-15.307 22.87 3.4858 2.1295 15.374 10.822 23 19.456 36.889 37.722 38.88 39.518 25.231 20.848 10.78 7.1878.14679-.27662.1468-.27662 5.1887-8 9.5503-16 9.7182-14.693 10.092-11.603 11.695-8.2036h1.8611l1.3169 52.5.004 178.18-.65995 24.162-.65994 24.162h-1.3372l-4.9214-3.1862zm48.579-2.8752-4.5-2.9042-6.15-3.238.38226-112.15.38225-112.15 7.7965-26 2.4245-7.5h2.8041l8.8588 6.095 13.502 13.445 14.922 19.96 9.7356 10.833 9.88 7.8665 2.5309-.97119 4.5069-8.7628 10.286-13.966 120.14-120.55.2766-.80535.27659-.80535-11.553-10.647-32.628-32.194-14.688-18-16.653-21-18.929-19.598-13.603-11.129-14.143 11.571-41.357 42.882-15 12.383-16.389 10.391h-1.056l-11.122 5.266-1.4327-1.4304-1.124-100.34-3.3822-19-1.0984-4.7573-1.0984-4.7573 14.578-17.485 31.125-31.128 31-26.937 33-28.068 1.3151-.78301 1.3151-.783 49.055 48.699 21.419 25 15.813 20 57.168 58 9.9771 12 8.185 11.08 13.79 16.01 8.9619 9.0845 31 31.831 15.874 18.994 12.626 19.442v2.3322l-13.322 15.226-90.367 90-22.862 27-7.8283 10-8.9495 10-113.29 114-24.506 30.575-15.36 17.425-23.013 22.658-13.223 10.842-.88868-.0786-.88868-.07861zm-39.5-282.07-10-8.0613-24-21.713-78.51-78.838 2.5097-1.9085 10-5.7491 7.991-4.2518 17.009 12.203 35 23.281 18 10.555 24 12.173 10.519 4.4441h2.1026l24.378-11.888 18.687-11.173 17.313-11.573 16.372-11.288 15.628-11.047 16-10.153 3.6225-2.3784 11.901 12.72-26.524 25.577-38.181 38.703-19.819 20.296-21.968 20.47-20.371 17.734-1.6617-.0736-10-8.0613zm-325.4-182.14-1.8306-4.2707-14.24-29.038-2.0028-9.9206-1.8017-7.4429-2.5-4.2785-2.5-4.2785-28.526-56-2.5109-5-1.4093-13-1.5334-2-21.546-42-6.6981-12.666-.032646-3.6669-.032646-3.667-1.7406-5.034-1.7406-5.034-19.454-35.397v-1.6097l9.8884-9.7397 11.612 5.8958 32 16.689 20 11.022 12 7.1778 10 6.9009 73.718 36.746 24.29 13.613 20.499 13.039 18.993 7.516-.022 9.2147-.62591 3.7874-.62591 3.7874-11.226 7.3374-15 11.944-31.676 31.144-15.493 18-22.994 35.022-11.517 12.44-9.5878 7.0381h-2.3031l-1.8306-4.2707zm652.26-7.5009-3.8864-3.7716-9.1324-11.957-15.836-24.667-10.605-13.333-32.832-33.387-15.564-13.301-16.206-10.801-1.3021-15.404 1.9678-1.9678 19.999-8.435 18.541-11.495 7.5-4.7096 7.5-4.786 21-12.567 26-14.87 6-3.47 31-17.613 52-29.429 17-10.007 14-8.1878 26.5-1.3694v1.0476l-3.014 8.7515-1.879 4-6.2181 16-4.5541 7-10.03 17-7.091 13-5.9671 11-9.8807 17.023-6.9843 10.977-63.819 128-7.777 14-11.224 11.5h-1.3214z" fill="#826888"/><path d="m439.5 802.29-4-2.5926-20-16.466-35.068-35.732-12.824-16-12.068-14-29.012-32-123.16-123-11.846-16-17.293-20-8.4237-9-71.104-71.505 19.797-20.453 83.1-83.042 23.61-29.584 18.668-20.416 87.621-88.323 17-15.166 2 .066 10 9.0234 25 21.348 36 31.022 29.646 28.984-.34711 55.523-.3471 55.523-3.79 9-5.8296 7.5h-4.7378l-5.5941-2.4291-13.479-8.7381-19.521-18.417-6-4.5881-13-11.225-37.091-36.627-3.9086 4.8308-15.485 18.252-31.785 42.442-16.794 20-9.1621 12-17.206 25.772 19.433 13.481 22.071 19.009 70.929 72.473 21 18.416 16 12.065 4.8123 2.522 3.416-4.5287 11.519-19.209 11.253-16.978 14.193-14.312 6.4926-3.3575.76839.76838 2.3045 85.879-.62726 86.5-.62725 86.5-.64309 8.75-.64308 8.75-1.2181-.1176-4-2.5926zm-7.4477-135.29-1.0616-37.5.01-44.198-.64245-7.6001-.64244-7.6001-9.8078 12.399-2.4073 3.0459-4.4975 5.9771-4.4981 5.9771-1.0101 1-8.7382 11.5h-1.5025l-13.754-11.188-6.5193-5.3116-10.349-9-15.117-14-19.014-18.177-15-14.141-11-10.294-20.816-19.388-24.184-22.967-38.5-37.965v-2.2564l13.426-18.811 1.6409-2 13.013-17 3.3742-5 15.045-19.199 5-6.6188 9.5671-12.182 4.4329-5.7225 16.478-20.278 4.5218-5.7383 4.3944-5.2617 11.657-14 3.9486-4.7238 8.2686-9.0234 19.731 17.957 16.059 15.79 39.975 39 12.957 11.546.68158-2.7729.68159-2.7729 1.5689-35 1.5689-35 .56256-8.5363.56255-8.5363-45.421-43.927-14.47-14-16.667-15-8.5531-7.7496-1.6866 1.3748-1.6866 1.3748-52.474 53-5.4112 6-37.247 38.078-39 40.227-41.193 42.695-49.276 51.706 2.6793 3.8252 23.79 24.642 20 21.031 33 34.784 22.931 24.011 20.069 21.027 28 29.716 15 15.543 38 39.502 4.8184 5.2123 38.182 39.687 25 25.576 42 43.255.30698-34.259.30698-34.259zm53.013 130.63-7.4343-4.3401.1983-101.39.19829-101.39.57075-11.5.57074-11.5 7.7359-25 1.3162-5.5189 1.8216-1.1258 12.457 8.9102 11.076 11.735 14.924 19.984 15 15.211 5.82 3.7438 1.09-1.8842 1.09-1.8842 11.81-18.171 124.13-124.49-27.941-26.302-19.634-20.206-10.455-13-19.911-24.948-14.995-15.792-15.298-12.76h-2.4245l-13.777 11.5-29.506 30.945-13 12.767-13 10.512-10.762 7.4758-16.132 7.8012h-2.6058l-.22608-5.25-.22607-5.25-.1104-85-1.2434-8.722-1.2434-8.722-3.8627-15.457 2.3878-3.0988 14.325-17 28.699-28.173 12-10.915 13-10.864 16-14.176 24.377-20.371h1.6706l55.092 55.5 11.058 13 1.5896 2 1.5896 2 9.5058 12 12.03 14 50.628 50.747 17.46 22.011 11.678 14.242 45.322 47.101 7 7.9076 12.182 15.991 8.2624 13.782-6.3647 8.218-102.22 103-13.861 16.042-6 7.7987-9.894 12.159-27.106 27.874-82.184 82.126-12.816 14.054-28 34.875-29 29.291-14.551 12.281-2.4486-.0336-7.4343-4.3401zm21.934-34.102 4.5-4.0146 32-32.066 25-26.807 11-11.366 28-29.515.53912-.84575.53913-.84575 17.922-18.666 19-20.086 29-30.692 23.096-24.12 19.904-20.912 3-3.2164 29-30.723 15-15.511 40-42.247v-1.7007l-12.24-13.689-19.538-22-8.2211-9.1808-13-14.771-12.842-14.048-10.158-11.084-13-14.708-5-5.3903-8.0556-8.8172-19.944-21.961-3-3.165-14-15.808-5.023-5.0657-27.977-30.909-3-3.2166-14-15.749-6-6.329-15.555-17.146-6.4454-7.8274-4.6111-3.5001-15.389 12.596-4.183 4.0812-11.815 10-31.002 30.231-6 5.4511-23.835 23.215 1.2033 36.552 1.2033 36.552 1.5662 22.471 1.4312 1.4312 48.696-49.088 19.736-16.897 4.264-2.9173 9.2894-6.6328 6.4466 5.21 8.8374 7.4229 13.163 13.173 15 16.01 18.987 20.817 16.907 18 14.916 16 14.19 15.135 14.252 15.865 5.2482 6.2887v1.5043l-6.8021 10.207-19.701 23-12.997 13.779-50 50.696-26 27.371-22 22.2-15.215 13.955-9.7847 8.4749-1.25.0126-1.25.01253-.032-1.5-6.2069-7-7.2611-8.8677-4-4.2315-13-14.804-9.4048-9.5969h-1.8084l-.50151 56.478-.5015 56.478.5009 42.526.50091 42.526 3.2144-2.469 4.5-4.0146zm-60.711-248.18-11.789-9.6539-8-6.9391-89.511-89.169 5.5109-4.5119 1.3567-.072 12.164-7.2458 14.48 10.212 37 24.647 7 4.2199 23.307 13.207 17.693 8.2004 7.3827 2.6292 26.617-13.519 14.261-8.2504 32.739-22.08 23-15.903 14.554-9.1174h1.5144l10.386 10.517-87.455 88.216-22 20.576-16.244 13.691h-2.1783l-11.789-9.6539zm39.211-33.917 24-23.539-2.0885.61031-45.213 22.944-2.349-1.1172-2.349-1.1172-11-5.0165-9-4.3248-9-3.6187-12-5.422 6 6.6687 37.643 37.504 1.357-.0316 24-23.539zm-369.12-161.14-9.589-19.792-2.0243-12.97-11.544-22.03-25.928-51.143-1.4504-12.857-3.6152-6-21.479-42-1.8664-3.1007-1.8664-3.1007-2.1648-15.564-13.562-24.234-8.1735-15.194 9.4478-9.3058h2.9863l3.945 2.6892 34 17.575 29 16.08 17 11.005 79 39.725 8.0005 4.4249 14.999 8.8418 14.248 9.3944 19.325 7.7158-.57358 15.979-9 5.9552-24.529 19.83-32.759 34.284-9.3294 11.509-12.412 19.491-8.785 13-17.3 17.223-2.2064 1.1809-2.2064 1.1808zm20.069-15.292 2.2165-3.5 11.809-18 20.022-24.945 35-35.204 16.554-14.684-17.554-9.8767-16-8.0961-.5-.59688-.5-.59689-11-5.6357-22-11.574-27.313-15.291h-2.0445l-2.6429-2.5-9-4.4781-21-11.201-48.5-24.914v2.3993l6 12.699v1.5243l3.7201 6.9704 1.52 5 6.0169 13 3.9183 9 4.6791 10 6.3145 14 3.6513 8 5.3581 12 5.5653 12 5.2918 11.483 4.7946 10.517 6.9423 15 13.448 30 4.9094 11 2.8358 6 3.1578 8 1.0566-2 1.0566-2zm636.55 20.25-5.1593-5.75-27.236-41-46.105-46.158-19-13.254-3.655-2.5903-.54937-8.0152-.54938-8.0152 19.754-7.8424 2-1.4177 32-19.53 18-11.022 24-14.017 36-20.265 24-13.695 44-25.005 22.154-13.357 26.346-1.3909v1.02l-1.9826 4.2768-1.9826 4.2768-3.6188 9.4881-3.6188 9.4881-3.4789 5.0238-18.615 33-7.6437 14.231-14.052 22.769-68.718 137.23-7.4258 11.187-6.9331 6.0873h-2.7704zm7.259-24.719 2.2403-4.4687 28.179-50.563.67248-1.5.67249-1.5 3.2775-6 3.2775-6 12.758-24 47.411-94.537 4.1405-9.9632h-1.1009l-16.019 9.0086-8.2691 3.9416-3 1.9633-33.647 18.587-8.8181 5-17.535 10.187-6.9985 3.8133-.50075.56033-.50076.56032-19 10.647-6 3.0759-1 1.388-8 4.3434-7.4179 4.4253-28.164 16-6.72 4-16.404 9.1883 14.658 12.812 37.174 37 14.529 18.502 8.8155 12.498 4.2649 7.736 4.2648 7.736.51943.028 2.2403-4.4687z" fill="#7d6382"/><path d="m438.81 801.71-4.6888-3.217-18.944-15.587-33.757-34.55-12.865-15.859-18.935-22-22.979-25-111.29-111-13.002-14-10.679-14-16.357-19-24.913-26-41.585-41-13.7-15.142 106.41-106.86 11.915-16 19.861-23 89.762-91 21.445-19.463 2-.0236 17.005 15.486 24.995 20.898 31 27.021 27.712 27.081-1.0019 110-1.1332 3.6816-1.1332 3.6816-3.3135 4.8184-3.3135 4.8184-4.534.66758-12.897-6.3493-12.386-10.174-16.099-15.144-20.288-17-33.613-33.511-5 5.7656-15.338 18.126-17.507 23.619-11.122 15-24.033 29-4.9534 7-14.227 21-2.2382 4.216 10.418 6.7287 15.321 11.497 22.679 20.761 60 61.63 23.687 21.597 19.943 14.57h3.2555l14.385-23.647 10.12-15.353 9.9619-11.155 11.148-7.6782.83776.83776 1.2252 49.498 1.2252 49.498-1.2827 147-1.3095 30.5-.59818-.0353-.59818-.0354-4.6888-3.217zm-6.277-117.46-.79419-89.75-1.24-26-13.492 17-17.008 21.833v1.6672h-3.2844l-10.216-8.5466-7-5.2012-13-11.49-25.895-24.262-3.154-3-33.951-32.136-35-32.789-27.694-27.075-16.287-16.608-1.3099-2.3919 9.291-12.466 11-15.186 4.1592-5.3472 9.9728-13 16.727-22 42.388-53 19.801-23h2.3622l15.59 13.935 45 44.264 26.921 25.28.67328-.7396.67328-.73959 1.651-30 1.651-30 1.8531-31.75-45.422-44.209-20-19.089-12.063-10.952-8.4745-7.6155-4.4623 3.6912-32.236 32.924-23.764 24.32-23 23.718-94 97.008-33.327 34.954-9.3797 10-8.8537 9.1301 12.56 13.057 76 79.778 14 14.855 6 6.2786 34.97 36.901 25.03 26.02 25 26.046 39 40.831 38.973 40.103 34.195 35 8.657 9.5h1.003zm54.434 114.47-5.5319-3.2197-3.9363-3 1.2492-224 5.404-17 3.8423-13 .49663-1.3171.49664-1.3172 8.2844 4.6343 14.472 14 20.191 26 1.7823 2.0242 1.7823 2.0242 12.604 10.452h1.7061l2.755-4.75 2.7551-4.75 9.0262-13 123.15-123.59-10-9.2086-36.7-36.167-31.281-39.03-15.014-15.74-15.298-12.76h-2.4138l-15.304 12.765-32.989 34.509-11 10.539-14 10.802-7 4.3264-15.991 8.0593h-2.5086l-.20651-6.25-.2065-6.25-.1386-84-1.278-8.957-1.278-8.957-1.9226-6.9379-1.9226-6.9379 5.4528-6.4214 8.8887-10.789 33.111-33.093 14-12.101 24-20.88 25.382-21.426h1.6658l55.114 55.5 14.972 18 8.5615 11 11.194 13 50.398 51 7.8835 9 14.715 19 13.076 14.813 38.25 39.187 10.922 13 9.9679 13 7.4002 12.262v2.7984l-11.306 12.94-84.194 84.073-21 22.93-10.127 11.997-4.8438 7-10.801 12-111.27 112-8.3023 10-30.543 37-24.111 24.124-14.551 12.376-2.4486-.0606-5.5319-3.2197zm35.612-49.22 8.2405-8 39.53-42 19.15-20.136 28-29.861 17-17.98 19.098-20.023 20.902-22.016 34-35.857 19.121-20.127 43.871-46 16.171-17 17.3-18 .0183-1.1811.01837-1.1811-26.254-29.638-30.246-33.911-50.763-56.089-7.314-8-21.022-23-71.901-79.14-13.668-15.186-7.3323 4.9544-28 24.729-10 9.428-47.5 46.146.0258 36.068 1.0245 24.5 1.0245 24.5 1.4824 15 54.943-55.13 17-14.033 11.492-7.6144 7.884 5.4636 23.726 23.314 25.71 28 12.189 13.086 23 24.883 16.004 17.031 19.496 21.234v1.3518l-7.7136 10.415-17.394 21-89.368 92-34.197 34-14.917 12.299-17.911-21.255-19.271-21.044-5.9674-5.6237-.60709 15.812-.60708 15.812-.36826 81 .1605 44.856.16049 44.856 16.339-14.712zm-70.08-229.2-6-4.6201-19-16.064-88.558-88.115-.97098-.33333-.97097-.33334v-1.6604l16.5-9.8804 3-.98653 13 9.1038 39 26.208 25.439 14.387 18.561 9.1495 9.9527 3.8264 25.047-12.108 17-10.142 23-15.414 18-12.493 28.274-18.823h1.9355l10.076 10.654-86.319 86.846-22.787 21.669-16.424 13.831-1.7557-.081-6-4.6201zm32.687-37.701 23.313-22.902 2.4624-3.4811-46.937 23.784h-4.1732l-22.968-11h-.82423l-10.559-4.7966-8-3.5979-1.75-.85546.38249 1.1475.3825 1.1475 43.939 43.97 1.4201-.51524zm-368.66-162.17-9.5113-19.669-2.2772-13.258-18.498-36-18.23-35.54-1.1017-7.2301-1.1017-7.2301-5.5521-10-21.499-42-1.7717-2.2215-.9647-7.6088-.9647-7.6088-17.281-31.561-1.4404-2-2.6294-6.6245 8.7106-8.8755h3.1386l3.945 2.7053 24 12.576 21 10.974 16 8.9505 7 4.4984 14 8.9564 69 34.318 16 8.5758 19.624 11.945 8.3756 5.4598 4.5064 1.9931 8.4936 3.7951 7.7433 2.4874-.46728 8.072-.46727 8.072-3.8088 2.6525-21 15.278-36.152 35.926-12.656 15.265-22.43 34-13.007 14-9.2168 6.5963zm19.504-13.677 3.2398-5.25 12.642-19.024 22.931-27.976 34.656-34.066 13.419-12.029-22.419-12.231-15-7.9013-20-10.62-35.574-19.652h-.68273l-15.743-8.695-22-11.566-18-9.4733-30.183-15.266h-1.334l2.0179 3.5 12.177 29 2.6675 6 24.412 54 6.9138 15 3.6502 8 9.217 19.573 9.104 20.427 3.681 8 4.8328 11 10.844 24.488 1.2915.012 3.2398-5.25zm636.66 18-5.481-6.25-21.067-32-6.6399-8.9964-37-37.706-16-13.39-5-3.4498-9.336-6.0292-.70657-7.5401-.70656-7.5401 2.1633-2.1633 18.773-7.4134 12.454-8.2724h.99822l8.3604-5.6771 40-23.988 45-25.58 20-11.636 37-20.752 8-4.582 30-17.515 25.731-1.3131-.55891 1.272-.55892 1.272-5.262 13-1.3143 3-1.3143 3-1.4942 5-14.466 24-7.5963 14-2.2901 4.2221-2.2901 4.2221-9.4864 16.556-8.7127 13.697-67.905 135.93-6.9128 10.806-8.069 8.069h-2.8309zm7.4048-23.033 1.593-3.2174 25.988-46.127 8.1829-15.873 17.158-32 51.214-102.6-.80214-.80214-10.927 5.5595-22 11.66-23 12.925-9 5.0314-7.2779 4.2307-16.722 9.5583-27 15.784-17 9.8415-32 18.279-1.5.95834-1.5.95833-21.5 12.192v1.6391l6.5 5.3337 29 27.456 20.396 22 7.4864 10 8.342 11 11.543 19.5 1.2322-.0652 1.593-3.2174z" fill="#69516e"/><path d="m441 802.61-3.5-2.0084-19-15.367-38.35-38.733-13.525-17-13.933-16-17.192-18.887-19-19.921-43.607-43.192-52.393-52.129-18.295-19.871-17.509-22-5.1954-5.8313-31.341-33.169-52.159-51.986v-1.8791l97.773-98.135 14.384-15.787 2.2859-3.6063 2.2859-3.6063 22.64-26 62.131-62.046 27.803-28.541 16.197-14.427 4.491-3.7875 4.6619 4.8018 9.0941 8.4391 13.917 11.561 24.836 20.838 7 6.4299 22 19.596 18.5 18.929v106.43l-1.0168 5.3865-1.0169 5.3865-6.3633 9-1.0515.74823-1.0515.74822-6-1.2389-9-5.1618-7.9333-6.0958-4.4924-4-14.574-13.457-25-21.729-30.598-30.784-8.3174 8.9708-11.06 13-24.584 33-10.44 13.72-5 6.0759-3.7141 3.9177-12.858 16.286-1.4276 2.0129-8.5392 12.361-8.9568 13.626-.004 1.4716 8.5 5.5284 9 6.6496 23.417 19.35 39.583 40.615 38 38.414 20 16.652 15.654 11.065 2.1474-2.1474 4.1988-7.0161 6.7647-11.583 14.7-22.224 13.998-13.205 5.7145-2.9551 1.323 78.212-.13734 71.086-.13733 71.086-.61267 28.058-.61266 28.058-3.5-2.0084zm-8.5551-187.4-.68347-48.294-1.6208.58715-15.751 20-15.547 20.5-2.3422-7e-4-29-24.081-27.91-26.418-41.172-39-25.918-23.959-48.758-48.283 6.7579-9.2481 11.405-15.51 15.595-20.767 28.717-37.127 5.7358-7.1065 29.326-36 15.893-18.5h1.1014l15.19 13.5 59.175 58.095 14.845 12.776 1.1944-11.436 1.1944-11.436 1.0331-20 1.0331-20 1.2008-33-62.639-60.243-23.57-21.29-3.7553 2.0098-.33716.90898-.33715.90899-78.957 80.705-37.043 38.022-34 35.006-26 27.03-33.2 34.942-15.434 16.374-.0122.6365-.0122.63651 10.477 11.353 33.321 35 63.723 67 15.258 16 41.759 44 26.188 27 43.932 45.944 30 30.99 35.084 36.066 14.916 15.668.6284-111.67-.68347-48.294zm52.192 181.72-7.8632-5.0412.73964-3.191.73965-3.191 1.361-219 .61057-1.5.61058-1.5 3.1879-10.5 3.1879-10.5 1.0159-2.75 1.0159-2.75h1.4145l9.0549 5.9977 10.493 10.493 9.2955 11.74 17.308 21.447 10.453 8.3232 3.2387-.002 5.8191-10.498 13.166-17 117.52-117.3v-2.7198l-11.407-9.9829-35.146-35-14.375-18-17.776-22-20.797-20.321-6-4.8818-4.4179-2.3236-13.582 11.792-28.219 28.734-8.7437 9.7254-18.038 15.392-14.093 9.2657-14.907 7.152-.71813-3.7676-.71812-3.7676.1666-76-1.1462-13.325-1.1462-13.325-3.0811-13.351-.53517-2.7042-.53516-2.7042 15.714-18.585 26.089-26.007 25.043-22 12.868-11.228 29-24.562 1.3947-2.1575 2.7758 2.4738 2.7757 2.4738 47.104 47 10.311 12 26.006 32.113 56.633 56.896 12 15.782 16.734 20.209 42.566 44 9.409 10.803 10.425 14.197 7.6326 12.473-2.7059 3.5272-13.062 14.89-90.145 90.11-12.853 15-1.1108 1-20.708 26-91.698 91.733-28.09 29.077-12.396 15.898-11.686 14.292-17.314 18.884-8.1586 8.1162-14.841 13.201-7.264 6.299-.86799-.0177-.86798-.0178-7.8632-5.0412zm18.231-28.094 3.632-3.1708 16.635-15.158 46.471-49 33.779-36 35.036-37 20.109-21 32.969-34.928 62.831-66.072 19.169-20.023 32-33.676.30963-1.3294.30963-1.3293-18.619-20.784-21-23.787-29.803-33.072-15.197-16.876-31.906-35.124-7.0935-7.8585-9.2126-10.142-24.637-27-11.15-12.141-15.216-16.859-31.822-35-3.3663-3.7219-3.3663-3.7219-5.2298 3.7601-19 15.921-21.211 19.767-48.287 46.995.006 34 .93364 15.5.93363 15.5.68439 17.75.68438 17.75 1.1284.0345 1.1284.0344 43-43.766 19.886-18.593 18.482-13.71h2.0288l12.604 10.4 21 21.373 30.99 33.727 15.01 16.038 24.184 25.962 22.316 24.452v1.2835l-11.482 15.265-11.966 14-35.969 37-37.084 38-19.5 20.429-19.5 20.429-25.892 22.643h-1.4393l-11.669-13.468-20.353-23.032-11.647-12-.61247 24.5-.61248 24.5-.13041 71-.13042 71 .63749 6.75.6375 6.75h.94676zm-53.92-251.92-10.253-8.1683-18.148-16.242-83.081-83.207 17.315-10.293h2.5617l1.5787 1.3715 1.5787 1.3715 20 13.681 14 9.3129 20 12.907 20.522 11.481 20.478 9.6332 7.3155 2.5767 27.685-13.777 13-7.7547 34-22.883 24-16.934 3-1.3222 8-5.3229 1.1392-.66071 1.1392-.6607 7.7216 7.5732 1.3522 1.6796 1.3522 1.6796-50.704 50.73-30 30.579-27 25.48-15 12.776-3.2991 2.5609zm49.052-46.117 13.5-13.379 2.909-3.6112-7.7556 3.2405-1.0767.85358-1.0767.85358-42.202 21.25-46.219-21h-3.3191l24.621 25.5 23.819 22.77 23.3-23.098zm-381.29-150.82-9.6781-20.025-2.1032-13.165-13.702-26.279-22.298-43.822-3.1748-16.178-5.5326-10-16.546-32-6.738-13.574-1.695-13.499-21.241-38.325v-1.1959l9.0331-9.1628 14.467 7.4679 10 5.3526 28 14.825 6 3.1853 15 8.7685 14 9.1582 46 22.745 15 7.4766 24 12.525 5.3087 3.7535h.94895l10.78 6.5 12.44 8.5h1.3036l8.2191 3.9713 10 3.5913-.1 1.2187-.1 1.2187-.3 13.598-8.1364 4.9021-20.663 16.401-36.023 36.599-9.7806 12-7.7146 12-14.549 22-11.634 12.16-8 5.8289-.55715.75267-.55716.75268zm31.292-30.049 7.5-10.814 13.932-17.606 32.841-33.443 21.731-19.453-1.5041-1.4571-14-7.3848-15-8.0664-10-5.377-31-16.613-15-8.4249-33-17.587-10.229-5.5231-51.338-26.315-.8457.32211-.8457.3221 6.8816 16 5.1181 12 2.5856 6 38.349 84.753 8.5602 18.247 5.437 12 2.7106 6 18.117 40.507v1.0638l3.3205 5.0678 8.1795-13.404zm628 37.707-3.5-3.3559-11.659-15.771-18.296-27.977-18.005-19.023-24.04-24.025-13.1-11.04-15.305-9.9356-.095-16.345 7.5-2.4445 10-4.4555 2-.75651 11-6.6351 9-5.7958 3.5-2.0677 3.5-2.0677 9-5.8677 9-5.1092 8-4.9114 16-9.1692 36-20.652 34.746-19.723 7.2538-4.2307 9-5.0314 24-13.469 2-1.5969 13-7.4169 7-4.0404 24-1.3277.68256.4619-9.226 23.651-2.6232 5-2.6232 5-1.2204 1.5-1.2204 1.5-26.496 48-2.2368 3.5-2.2368 3.5-6.4638 10-69.677 139.42-5.5355 7.5759-8.0406 8.5-1.0836-.018-3.5-3.3559zm18.619-50.391 13.775-24.736 33.677-64 39.131-78.806 3.848-8.977-.58969-.58969-.58968-.58969-5.8972 3.3845-23.474 12.409-40 22.334-7 4.0888-19 11.041-26 14.889-18 10.635-26 14.942-7 4.0788-17.48 9.8189-.64193 1.0387-.64194 1.0387 15.763 14.155 30.694 30.109 17.653 21.053 9.1303 12.947 8.2659 14 1.5211 2.4328 1.5211 2.4328 1.7792-2.1972 1.7792-2.1972z" fill="#361d3b"/></g></svg>
