<?xml version="1.0" encoding="utf-8"?>

<!DOCTYPE svg PUBLIC "-//W3C//DTD SVG 1.1//EN" "http://www.w3.org/Graphics/SVG/1.1/DTD/svg11.dtd">
<svg version="1.1" id="Layer_1" xmlns="http://www.w3.org/2000/svg" xmlns:xlink="http://www.w3.org/1999/xlink" x="0px" y="0px"
	 viewBox="0 0 1920 1439" enable-background="new 0 0 1920 1439" xml:space="preserve">
<g>
	<path fill="#F7FDF7" stroke="#F7FDF7" stroke-width="0.394" d="M0,0h5.09C3.21,1.49,1.5,3.2,0,5.07V0z"/>
	<path fill="#78C6EF" stroke="#78C6EF" stroke-width="0.394" d="M5.09,0h1909.85c1.8701,1.5,3.5601,3.21,5.0601,5.09v473.39
		c-2.29-1.19-4.66-2.2-6.99-3.24c0.67-22.41,0.11-44.83,0.3-67.24c0-105.67,0-211.33,0-317c-0.1101-28.05,0.21-56.1-0.17-84.14
		C1865.76,6.49,1818.38,6.8,1771,6.7c-577.67,0-1155.3301,0-1733,0C27.61,6.76,17.22,6.55,6.84,6.85
		C6.55,66.56,6.84,126.28,6.68,186c-0.03,4.14,0.06,8.28,0.38,12.41c2.12-5.32,3.52-10.88,4.96-16.4
		C22.7,143.04,33.41,104.08,44.04,65.1c1.02-3.6,1.71-7.34,3.4-10.71c1.78-3.83,7.73-4.46,10.35-1.2c2.21,2.69,3.51,5.97,5.04,9.06
		c36.88,74.87,74.02,149.61,110.92,224.47c-1.65,1.85-3.25,3.73-4.82,5.64c-2.78-0.36-6.07,0.05-8.27-2.04
		c-2.96-2.77-5.1-6.24-7.54-9.44c-15.04-20.29-30.11-40.57-45.09-60.9c-6.43-8.26-12.19-17.04-18.99-24.99
		c-1.99,15.97-3.16,32.03-4.83,48.04c-0.86,7.58-0.98,15.26-2.45,22.76c-0.62,6.01-10.69,6.48-12.42,0.97
		c-1.69-5.15-2.05-10.61-3.15-15.89c-4.69-23.66-8.55-47.49-13.5-71.1c-4.74,6.14-8.27,13.05-12.28,19.65
		c-8.6,14.4-17.36,28.7-25.77,43.21c-1.66,3.16-4.52,5.37-7.63,6.99c-2.32-1.21-4.66-2.38-7.01-3.54V5.07C1.5,3.2,3.21,1.49,5.09,0
		 M47.16,79.14c-13.18,48.15-26.4,96.29-39.59,144.44c-1.35,5.85-0.9,11.91-0.54,17.85c3.1-3.85,5.41-8.24,7.92-12.48
		c13.67-22.65,26.99-45.51,40.88-68.03c1.18,4.44,2.01,8.96,2.8,13.49c4.81,26.12,9.82,52.2,14.59,78.32
		c0.64,3.51,1.31,7.01,2.23,10.45c3.3-28.72,5.31-57.57,8.76-86.27c1.62,2.02,3.2,4.08,4.76,6.15c23.64,32.01,47.36,63.95,71,95.95
		c1.58,2.16,3.27,4.24,5.11,6.19c-0.73-1.99-1.52-3.96-2.41-5.87C126.2,205.52,89.64,131.75,53.24,57.91
		C50.76,64.85,49.28,72.09,47.16,79.14z"/>
	<path fill="#F9FAFA" stroke="#F9FAFA" stroke-width="0.394" d="M1914.9399,0H1920v5.09C1918.5,3.21,1916.8101,1.5,1914.9399,0z"/>
	<path fill="#0093DD" stroke="#0093DD" stroke-width="0.394" d="M6.84,6.85C17.22,6.55,27.61,6.76,38,6.7c577.67,0,1155.33,0,1733,0
		c47.38,0.1,94.76-0.21,142.14,0.16c0.38,28.04,0.0599,56.09,0.17,84.14c0,105.67,0,211.33,0,317
		c-0.1901,22.41,0.37,44.83-0.3,67.24c-0.42-0.2-1.27-0.6-1.6901-0.8c-2.1499-9.23-3.1499-18.73-5.95-27.81
		c-1.67-5.29-3.12-10.94-6.75-15.27c-1.85-2.31-5.71-2.88-7.77-0.56c-3.41,3.67-4.27,8.88-4.96,13.66
		c-0.4501,2.92-1.0601,5.83-1.42,8.77c-6.1599-18.85-13.0499-37.47-19.49-56.23c-10.01-28.72-20.1-57.41-30.0699-86.14
		c-3.35-10.17-6.5901-20.38-9.6801-30.64c12.27-1.85,24.49-4.14,36.4501-7.51c6.7799-2.03,13.7599-4.24,19.4299-8.64
		c2.6901-2,4.5601-5.82,2.86-9.03c-2.5-4.55-7.46-6.94-12-8.97c-19.6799-7.68-40.9199-9.68-61.6899-12.46
		c-1.22-3.72-2.53-7.48-2.7001-11.42c-0.2699-4.23-0.24-8.67-2.23-12.53c-2.12-4.2-5.15-7.94-6.5599-12.49
		c-5.3301-16.68-10.39-33.47-15.9301-50.08c-1.13-4.67-7.33-5.99-10.8099-3.15c-1.7101,1.62-2.28,4-2.9801,6.15
		c-2.9299,10.48-5.6499,21.03-8.8999,31.41c-12.3-2.46-24.79-3.61-37.3201-3.67c-0.51-10.33-1.13-20.73-3.9299-30.73
		c-8.4701-32.72-32.14-60.71-62.28-75.69c-31.29-15.74-69.24-17.53-101.8-4.58c-17.83,6.89-33.88,18.16-46.6599,32.35
		c-9.0901,9.91-15.8301,21.7-21.38,33.89c-14.41-8.57-30.9401-13.75-47.76-13.83c-21.4-0.53-43.05,6.49-59.61,20.16
		c-13.9501,11.35-23.8501,27.65-26.5801,45.51c-18.0399-11.3-40.83-14.29-61.2-8.24c-15.35,4.5-30.1901,14.87-35.53,30.51
		c-2.8199,7.58-1.77,15.79-0.13,23.49c-24.3099,2.26-48.66,4.8-72.61,9.69c-7.78,1.71-15.67,3.51-22.8,7.18
		c-3.71,1.91-7.2999,5.14-7.6799,9.55c-0.5701,3.79,2.59,6.66,5.48,8.51c7.09,4.41,15.27,6.59,23.27,8.72
		c21.8099,5.35,44.1799,8.01,66.48,10.35c48.84,4.68,97.86,7.08,146.89,8.56c50.98,1.63,101.98,2.09,152.98,1.75
		c12.08,0.17,24.17-0.53,36.25-0.2c-1.39,11.98-3.71,23.83-5.38,35.77c-6.25,40.97-12.8099,81.89-19.1801,122.84
		c-3.96-7.27-6.0299-15.35-9.0299-23.02c-9.01-24.68-17.9601-49.39-26.9401-74.09c-2.13-5.23-3.34-10.89-6.25-15.76
		c-3.25-4.48-11.02-2.37-11.7999,3.09c-12.65,43.6-25.4501,87.18-37.9301,130.83c-12.1,41.73-24.4399,83.39-36.22,125.2
		c-83.4,28.86-165.66,60.86-248.4,91.52c-9.5,3.26-18.64,7.61-28.4399,9.92c-2.4301-8.34-5.02-16.77-9.52-24.26
		c-2.23-3.48-5.05-7.14-9.23-8.2c-3.79-0.43-6.9801,2.54-8.66,5.65c-4.09,7.46-5.0701,16.11-5.8201,24.45
		c-4.0699-1.0699-8.9099-2.71-12.6699,0.07c-6.65,5.01-8.98,13.4901-11.3301,21.08c-3.0399-1.65-6.0299-3.64-9.48-4.26
		c-3.2899-0.39-6.21,1.5-9.0599,2.82c-0.4701-8.48-3.73-18.73-12.75-21.43c-2.54-0.71-5.15-1.09-7.74-1.49
		c-0.27-2.63-0.55-5.26-0.8501-7.87c-0.3199,3.36-0.5,6.74-0.5099,10.12l-0.4701,0.06c0.36-10.48-0.58-21.16-4.25-31.05
		c-1.6-4.05-3.65-8.24-7.2999-10.81c-2.5901-1.84-5.91-1.6-8.9-1.87c0.39-10.02,0.84-20.06,0.35-30.08
		c-0.49-5.96-1.5599-12.32-5.41-17.1c-2.7999-3.74-8.5599-3.56-11.9999-0.86c-5.43,4.01-9.07,9.87-12.37,15.64
		c-8.3,15.06-14.09,31.35-19.13,47.75c-4.23-0.06-8.72-0.42-12.58,1.65c-6.43,3.28-10.34,9.7-13.69,15.83
		c-1.05-8.91-1.51-18.3-5.95-26.31c-1.43-2.76-4.33-4.13-6.99-5.41c0.08-10.41,0.56-20.83-0.08-31.23
		c-0.48-5.24-1.23-10.68-3.94-15.29c-1.3-2.39-4.45-3.98-6.97-2.46c-4.18,2.3-6.12,6.9901-8.07,11.09
		c-7.07,16.97-10.93,35.03-14.78,52.94c-2.55,0.78-5.25,1.33-7.51,2.79c-2.61,1.8-4.42,4.4901-6.02,7.18
		c-18.4-51.86-36.31-103.89-54.51-155.8199c-20.54-58.92-41.14-117.81-61.64-176.74c-13.62-39.19-27.3-78.36-40.99-117.52
		c-2.66-8.24-6.14-16.22-8.1-24.67c21.76-0.14,43.51-1.23,65.24-2.32c26.44-1.71,53.01-3.06,79.09-8.05
		c7.8199-1.66,15.8199-3.29,22.91-7.14c2.28-1.32,4.85-3.17,5.06-6.03c0.34-3.74-2.57-6.78-5.67-8.36
		c-5.28-2.71-11.19-3.78-16.96-4.92c-16.3-2.85-32.78-4.48-49.27-5.76c-0.09-5.21,0.07-10.75-2.6-15.43
		c-5.07-9.19-14.88-14.66-24.75-17.25c-14.3-3.97-29.68-2.2-43.21,3.64c-3.69-13.16-13.59-23.75-25.49-30.05
		c-21.44-11.53-48.19-11.24-70.03-0.91c-6.99-12.51-17.1-23.23-29.48-30.5c-32.25-19.6-75.73-18.87-107.2,2.02
		c-13.42,8.94-24.5,21.84-29.77,37.2c-2.17,6.12-2.96,12.6-3.76,19.01c-15.86,0.5-32.31,2.16-46.54,9.76
		c-4.78,2.64-9.27,6.25-11.81,11.18c-2.07,3.94-1.33,8.52-0.91,12.75c-13.93,1.57-28.01,2.83-41.49,6.86
		c-4.41,1.48-9.08,3.15-12.24,6.72c-1.68,1.77-2.26,4.74-0.54,6.7c3.25,3.93,8.35,5.5,13.02,7.06c13.52,4.08,27.59,5.86,41.57,7.53
		c39.92,4.1,80.06,5.44,120.15,6.58c29.63,0.98,59.28,1.02,88.93,1.02c21.35-0.11,42.71,0.07,64.06-0.58
		c-23.75,75.96-48.13,151.73-72.08,227.63c-6.96,21.9-13.7,43.88-21,65.67c-8.13-15.94-15.23-32.38-23.02-48.49
		c-13.93-29.79-27.9399-59.55-41.85-89.35c-17.75-41.02-36.22-81.73-54.03-122.73c-1.25-2.55-2.68-5.61-5.68-6.4
		c-2.82-0.63-5.57,0.71-8.16,1.64c-22.4,9.4-44.93,18.47-67.38,27.73c-14.82,5.97-29.49,12.31-44.4,18.03
		c-33.85-64.92-67.88-129.75-101.77-194.64c-1.47-3.15-4.57-6.1-8.32-4.96c-3.32,0.41-4.82,3.72-5.46,6.6
		c-14.58,65.82-29.35,131.61-43.84,197.46c-1.66,7.96-3.77,15.84-5,23.9c-8.08,2.67-14.75,8.22-20.61,14.22
		c-6.03-11.87-11.72-23.9-17.72-35.79c-36.9-74.86-74.04-149.6-110.92-224.47c-1.53-3.09-2.83-6.37-5.04-9.06
		c-2.62-3.26-8.57-2.63-10.35,1.2c-1.69,3.37-2.38,7.11-3.4,10.71c-10.63,38.98-21.34,77.94-32.02,116.91
		c-1.44,5.52-2.84,11.08-4.96,16.4c-0.32-4.13-0.41-8.27-0.38-12.41C6.84,126.28,6.55,66.56,6.84,6.85 M949.57,625.78
		c-0.79,8.11-1.2,16.29,0,24.39C950.75,642.09,950.59,633.86,949.57,625.78z"/>
	<path fill="#FFFFFF" stroke="#FFFFFF" stroke-width="0.394" d="M47.16,79.14c2.12-7.05,3.6-14.29,6.08-21.23
		c36.4,73.84,72.96,147.61,109.43,221.42c0.89,1.91,1.68,3.88,2.41,5.87c-1.84-1.95-3.53-4.03-5.11-6.19
		c-23.64-32-47.36-63.94-71-95.95c-1.56-2.07-3.14-4.13-4.76-6.15c-3.45,28.7-5.46,57.55-8.76,86.27
		c-0.92-3.44-1.59-6.94-2.23-10.45c-4.77-26.12-9.78-52.2-14.59-78.32c-0.79-4.53-1.62-9.05-2.8-13.49
		c-13.89,22.52-27.21,45.38-40.88,68.03c-2.51,4.24-4.82,8.63-7.92,12.48c-0.36-5.94-0.81-12,0.54-17.85
		C20.76,175.43,33.98,127.29,47.16,79.14z"/>
	<path fill="#76C4EF" stroke="#76C4EF" stroke-width="0.394" d="M533.4,74.41c31.47-20.89,74.95-21.62,107.2-2.02
		c12.38,7.27,22.4901,17.99,29.48,30.5c21.84-10.33,48.59-10.62,70.03,0.91c11.9,6.3,21.8,16.89,25.49,30.05
		c13.53-5.84,28.91-7.61,43.21-3.64c9.87,2.59,19.68,8.06,24.75,17.25c2.67,4.68,2.51,10.22,2.6,15.43
		c16.4901,1.28,32.97,2.91,49.27,5.76c5.77,1.14,11.68,2.21,16.96,4.92c3.1,1.58,6.01,4.62,5.67,8.36
		c-0.21,2.86-2.78,4.71-5.06,6.03c-7.09,3.85-15.09,5.48-22.91,7.14c-26.08,4.99-52.65,6.34-79.09,8.05
		c-21.73,1.09-43.48,2.18-65.24,2.32c1.96,8.45,5.44,16.43,8.1,24.67c13.69,39.16,27.37,78.33,40.99,117.52
		c-1.8,1.43-3.58,2.87-5.36,4.33c-2.11-0.07-4.22-0.13-6.31-0.19c-4.75-7.45-8.61-15.41-12.94-23.1
		c-4.29-7.58-7.79-15.62-12.74-22.81c-3.51,16.6-6.44,33.32-9.64,49.99c-1.09,5.22-1.39,10.68-3.37,15.68
		c-2.05,5.12-10.79,4.65-12.1-0.82c-4.76-14.57-8.05-29.6-13.1-44.08c-7.71,14.76-14.37,30.04-21.72,44.97
		c-8.68,17.99-17.08,36.11-25.81,54.08c-2.01,3.9-3.37,8.36-6.58,11.49c-2.42,1.22-5.25,1.01-7.87,1.31
		c-1.23-1.6-2.47-3.18-3.7-4.77c-0.41,0.02-1.22,0.06-1.62,0.09c23.95-75.9,48.33-151.67,72.08-227.63
		c-21.35,0.65-42.71,0.47-64.06,0.58c-29.65,0-59.3-0.04-88.93-1.02c-40.09-1.14-80.23-2.48-120.15-6.58
		c-13.98-1.67-28.05-3.45-41.57-7.53c-4.67-1.56-9.77-3.13-13.02-7.06c-1.72-1.96-1.14-4.93,0.54-6.7
		c3.16-3.57,7.83-5.24,12.24-6.72c13.48-4.03,27.56-5.29,41.49-6.86c-0.42-4.23-1.16-8.81,0.91-12.75
		c2.54-4.93,7.03-8.54,11.81-11.18c14.23-7.6,30.68-9.26,46.54-9.76c0.8-6.41,1.59-12.89,3.76-19.01
		C508.9,96.25,519.98,83.35,533.4,74.41 M552,71.98c-15.3,6.37-29.16,17.07-37.45,31.59c-6.01,10.12-8.41,22.04-7.64,33.73
		c-16.45-0.18-33.52,0.83-48.62,7.97c-5.14,2.63-11.01,6.48-11.69,12.74c-0.3,5.15,4.27,8.5,7.54,11.75
		c-14.75,1.33-29.51,2.75-44.12,5.24c-4.86,0.94-9.78,1.84-14.39,3.69c-1.96,0.61-3.02,2.42-4.14,3.99c4.47,2.69,9.5,4.23,14.6,5.19
		c11.6,2.25,23.34,3.68,35.1,4.77c42.12,4.21,84.46,5.32,126.75,6.84c49.46,0.81,98.94,1.11,148.4,0.05
		c1.11-3.11,1.61-6.71,4.03-9.14c2.87-2.08,7.85-1.88,9.75,1.43c1.3,2.23,2.04,4.71,2.93,7.12c27.88-0.35,55.73-1.81,83.56-3.41
		c22.39-1.64,44.85-3.1,66.98-6.96c6.41-1.36,13.3799-2.13,18.54-6.58c-4.03-4.4-10.22-5.13-15.72-6.39
		c-20.02-3.77-40.3799-5.28-60.68-6.81c1.86-3.86,4.21-7.87,3.75-12.31c-0.57-5.77-4.55-10.54-9.09-13.83
		c-6.25-4.45-13.83-6.68-21.38-7.57c-13.68-1.52-28.42,1.58-38.85,10.97c-0.17-4.98-0.47-10.08-2.5099-14.7
		c-4.71-11.57-15.19-19.83-26.51-24.47c-16.63-6.7-35.84-6.84-52.54-0.32c-4,1.47-7.54,3.93-11.48,5.53
		c-2.38-3.79-3.84-8.08-6.42-11.74c-9.81-14.92-25.4-25.46-42.26-30.85C596.91,62.54,572.92,63.33,552,71.98 M724.57,195.99
		c-24.27,75.73-48.11,151.59-72.27,227.36c-0.97,2.94-1.8,5.94-2.19,9.03c3.16-2.98,4.46-7.22,6.35-11
		c18.08-37.86,36.17-75.72,54.29-113.56c2.48,6.02,3.82,12.41,5.74,18.62c4.08,13.86,7.76,27.85,12.09,41.64
		c5.89-27.27,10.28-54.85,15.89-82.18c11.2401,19.44,21.38,39.52,32.27,59.17c-10.79-31.98-22.19-63.76-33.2-95.66
		C737.08,231.65,731.47,213.58,724.57,195.99z"/>
	<path fill="#76C4EF" stroke="#76C4EF" stroke-width="0.394" d="M1554.84,66.83c32.5601-12.95,70.51-11.16,101.8,4.58
		c30.14,14.98,53.8099,42.97,62.28,75.69c2.7999,10,3.4199,20.4,3.9299,30.73c12.53,0.06,25.02,1.21,37.3201,3.67
		c3.25-10.38,5.97-20.93,8.8999-31.41c0.7001-2.15,1.27-4.53,2.9801-6.15c3.48-2.84,9.6799-1.52,10.8099,3.15
		c5.54,16.61,10.6,33.4,15.9301,50.08c1.4099,4.55,4.4399,8.29,6.5599,12.49c1.99,3.86,1.9601,8.3,2.23,12.53
		c0.17,3.94,1.4801,7.7,2.7001,11.42c20.77,2.78,42.01,4.78,61.6899,12.46c4.54,2.03,9.5,4.42,12,8.97
		c1.7001,3.21-0.1699,7.03-2.86,9.03c-5.67,4.4-12.65,6.61-19.4299,8.64c-11.9601,3.37-24.1801,5.66-36.4501,7.51
		c3.09,10.26,6.3301,20.47,9.6801,30.64c-1.13,0.63-2.24,1.27-3.35,1.88c-2.52,0.87-5.5,2.25-8.0601,0.92
		c-3.11-2.49-4.54-6.38-6.42-9.76c-5.72-11.18-12.08-22.02-17.74-33.23c-2.0699-4.11-4.37-8.11-6.89-11.95
		c-2.3899,16.61-3.7699,33.34-5.6,50.01c-0.4199,2.47-0.6799,5.06-1.89,7.28c-3.35,3.59-11.37,2.53-11.75-3.13
		c-3.1499-23.57-5.2-47.32-8.4399-70.89c-4.4,6.86-6.88,14.73-11.16,21.65c-2.24,3.91-7.1,4.28-11.02,5.19
		c-1.77-2.21-3.45-4.48-5.02-6.82c5.7001-19.84,11.1901-39.74,16.8501-59.59c1.39-4.75,2.6699-9.54,3.7799-14.37
		c-13.85-3.2-28.1499-3.85-42.3099-3.25c0.89-17.66-1.59-35.61-8.88-51.81c-13.05-30.02-39.9401-53.3-71.16-62.81
		c-35.21-11.06-75.5399-4.67-105.14,17.52c-19.01,13.75-33.1499,33.66-40.6799,55.82c-12.36-9.24-27.02-15.47-42.41-17.09
		c-20.28-2.39-41.46,2.32-58.39,13.83c-12.96,8.91-23.49,21.89-27.85,37.14c-2.2,7.06-2.5,14.51-2.5699,21.85
		c-4.9501-4.84-10.1901-9.55-16.52-12.51c-18.41-8.8-40.9501-8.81-59.1901,0.46c-8.02,4.17-15.38,10.34-19.28,18.65
		c-3.0599,6.19-3.75,13.52-1.8099,20.16c1.0599,3.64,2.96,6.94,4.8,10.23c-25.14,2.48-50.3701,4.65-75.2401,9.24
		c-8.85,1.74-17.8199,3.46-26.1599,7c-2.5801,1.25-6.12,3.02-5.8,6.41c2.61,4.29,7.9401,5.56,12.38,7.13
		c18.58,5.33,37.87,7.59,57,10.01c49.84,5.54,99.96,8.16,150.0601,10.04c50.2899,1.77,100.62,2.51,150.95,2.34
		c18.54-0.02,37.09-0.06,55.63-0.59c9.9-64.97,20.3199-129.87,30.33-194.83c0.64-3.94,0.9301-7.99,2.23-11.79
		c1.27-3.74,6.3101-4.75,9.54-3.01c2.0801,1.07,2.8,3.49,3.51,5.56c17.42,64.11,34.9301,128.21,52.4401,192.3
		c-1.52,2.44-3.2401,4.76-5.12,6.92c-3.1201-0.63-6.7201-1.01-8.7001-3.82c-7.7999-10.3-14.3099-21.59-22.74-31.41
		c-1.3099,9.04-1.29,18.2-2.25,27.29c-1.4301,19.57-2.85,39.15-4.22,58.73c-0.4501,3.16-0.27,6.84-2.4601,9.39
		c-3.3999,1.83-9.34,1.72-10.7-2.64c-1.71-5.58-1.26-11.52-1.87-17.27c-2.53-27.11-4.54-54.27-7.15-81.37
		c-4.1599,10.87-6.9299,22.21-10.25,33.35c-5.33,19-11.4099,37.79-16.2899,56.92c-2.1901-0.25-4.37-0.49-6.53-0.75
		c-2.1901-0.27-4.37-0.57-6.53-0.84c1.67-11.94,3.99-23.79,5.38-35.77c-12.08-0.33-24.17,0.37-36.25,0.2
		c-51,0.34-102-0.12-152.98-1.75c-49.03-1.48-98.05-3.88-146.89-8.56c-22.3-2.34-44.67-5-66.48-10.35
		c-8-2.13-16.1801-4.31-23.27-8.72c-2.89-1.85-6.05-4.72-5.48-8.51c0.38-4.41,3.97-7.64,7.6799-9.55c7.13-3.67,15.02-5.47,22.8-7.18
		c23.95-4.89,48.3-7.43,72.61-9.69c-1.64-7.7-2.6899-15.91,0.13-23.49c5.34-15.64,20.1801-26.01,35.53-30.51
		c20.37-6.05,43.16-3.06,61.2,8.24c2.73-17.86,12.63-34.16,26.5801-45.51c16.5599-13.67,38.21-20.69,59.61-20.16
		c16.8199,0.08,33.35,5.26,47.76,13.83c5.5499-12.19,12.2899-23.98,21.38-33.89C1520.96,84.99,1537.01,73.72,1554.84,66.83
		 M1619.67,112.76c-11.1901,71.42-22.38,142.84-33.4701,214.27c6.1901-21.39,12.4801-42.75,18.7101-64.13
		c5.75-18.99,10.7899-38.21,16.9399-57.07c2.4401,18.99,3.36,38.15,5.25,57.2c1.9601,24.26,4.27,48.49,6.1901,72.76l0.45,0.02
		c0.6901-13.61,2.25-27.15,3.01-40.75c1.72-22.28,2.9301-44.6,5.0601-66.85c6.84,8.6,12.6799,17.93,19.1799,26.78
		c5.27,7.07,9.6901,14.79,15.58,21.38c-4.72-19.27-10.35-38.32-15.46-57.49c-12.25-44.66-24.21-89.4-36.67-134
		C1622.11,94.03,1621.3,103.48,1619.67,112.76 M1771.3101,167.22c-6.9901,24.71-13.9601,49.43-20.9401,74.14
		c-1.84,6.92-4.29,13.72-5.33,20.83c1.34-1.02,2.9199-1.9,3.74-3.46c6.85-13.24,12.74-26.98,19.97-40.02
		c3.9399,30.76,7.1801,61.63,10.8199,92.44c3.4601-24.77,5.1901-49.76,8.63-74.53c3.13,4.45,5.3201,9.45,7.9601,14.2
		c6.0499,11.28,12.11,22.57,18.14,33.86c3.85,6.83,7.0699,14.03,11.49,20.53c-8.8201-29.56-18.5901-58.84-27.7101-88.31
		c-7.2699-22.35-13.9099-44.92-21.5-67.17C1774.3199,155.4,1773.05,161.39,1771.3101,167.22 M1812.91,240.9
		c3.0399,11.15,6.85,22.07,10.2799,33.11c10.05-1.02,20-2.85,29.9-4.87c7.01-1.62,14.1901-3.1,20.65-6.41
		c2.17-1.2,5.2-3.39,3.8101-6.25c-2.3401-2.94-6.04-4.29-9.4401-5.56c-8.6799-2.9-17.7-4.62-26.6899-6.24
		C1831.95,243.16,1822.48,241.5,1812.91,240.9z"/>
	<path fill="#FFFFFF" stroke="#FFFFFF" stroke-width="0.394" d="M552,71.98c20.92-8.65,44.91-9.44,66.44-2.48
		c16.86,5.39,32.45,15.93,42.26,30.85c2.58,3.66,4.04,7.95,6.42,11.74c3.94-1.6,7.48-4.06,11.48-5.53
		c16.7-6.52,35.91-6.38,52.54,0.32c11.32,4.64,21.8,12.9,26.51,24.47c2.04,4.62,2.34,9.72,2.5099,14.7
		c10.4301-9.39,25.17-12.49,38.85-10.97c7.55,0.89,15.13,3.12,21.38,7.57c4.54,3.29,8.52,8.06,9.09,13.83
		c0.46,4.44-1.89,8.45-3.75,12.31c20.3,1.53,40.66,3.04,60.68,6.81c5.5,1.26,11.69,1.99,15.72,6.39
		c-5.16,4.45-12.13,5.22-18.54,6.58c-22.13,3.86-44.59,5.32-66.98,6.96c-27.83,1.6-55.68,3.06-83.56,3.41
		c-0.89-2.41-1.63-4.89-2.93-7.12c-1.9-3.31-6.88-3.51-9.75-1.43c-2.42,2.43-2.92,6.03-4.03,9.14c-49.46,1.06-98.94,0.76-148.4-0.05
		c-42.29-1.52-84.63-2.63-126.75-6.84c-11.76-1.09-23.5-2.52-35.1-4.77c-5.1-0.96-10.13-2.5-14.6-5.19
		c1.12-1.57,2.18-3.38,4.14-3.99c4.61-1.85,9.53-2.75,14.39-3.69c14.61-2.49,29.37-3.91,44.12-5.24c-3.27-3.25-7.84-6.6-7.54-11.75
		c0.68-6.26,6.55-10.11,11.69-12.74c15.1-7.14,32.17-8.15,48.62-7.97c-0.77-11.69,1.63-23.61,7.64-33.73
		C522.84,89.05,536.7,78.35,552,71.98z"/>
	<path fill="#FFFFFF" stroke="#FFFFFF" stroke-width="0.394" d="M1530.71,87.7c29.6001-22.19,69.9301-28.58,105.14-17.52
		c31.22,9.51,58.11,32.79,71.16,62.81c7.29,16.2,9.77,34.15,8.88,51.81c14.16-0.6,28.46,0.05,42.3099,3.25
		c-1.11,4.83-2.3899,9.62-3.7799,14.37c-5.66,19.85-11.15,39.75-16.8501,59.59c-1.83,7.05-3.9099,14.03-6.0499,20.98
		c-8.53-0.1-17.02,0.76-25.53,1.01c-6.53,0.28-13.08,0.39-19.5599,1.27c-0.9401-3.08-1.9301-6.13-2.75-9.22
		c-17.51-64.09-35.02-128.19-52.4401-192.3c-0.71-2.07-1.4299-4.49-3.51-5.56c-3.23-1.74-8.27-0.73-9.54,3.01
		c-1.2999,3.8-1.59,7.85-2.23,11.79c-10.01,64.96-20.4299,129.86-30.33,194.83c-18.54,0.53-37.09,0.57-55.63,0.59
		c-50.33,0.17-100.66-0.57-150.95-2.34c-50.1001-1.88-100.2201-4.5-150.0601-10.04c-19.13-2.42-38.42-4.68-57-10.01
		c-4.4399-1.57-9.77-2.84-12.38-7.13c-0.3199-3.39,3.22-5.16,5.8-6.41c8.34-3.54,17.3099-5.26,26.1599-7
		c24.87-4.59,50.1001-6.76,75.2401-9.24c-1.8401-3.29-3.7401-6.59-4.8-10.23c-1.9401-6.64-1.25-13.97,1.8099-20.16
		c3.9-8.31,11.26-14.48,19.28-18.65c18.24-9.27,40.78-9.26,59.1901-0.46c6.33,2.96,11.5699,7.67,16.52,12.51
		c0.0699-7.34,0.37-14.79,2.5699-21.85c4.36-15.25,14.89-28.23,27.85-37.14c16.9301-11.51,38.11-16.22,58.39-13.83
		c15.39,1.62,30.05,7.85,42.41,17.09C1497.5601,121.36,1511.7,101.45,1530.71,87.7z"/>
	<path fill="#77C4EF" stroke="#77C4EF" stroke-width="0.394" d="M266.38,80.33c3.75-1.14,6.85,1.81,8.32,4.96
		c33.89,64.89,67.92,129.72,101.77,194.64c14.91-5.72,29.58-12.06,44.4-18.03c22.45-9.26,44.98-18.33,67.38-27.73
		c2.59-0.93,5.34-2.27,8.16-1.64c3,0.79,4.43,3.85,5.68,6.4c17.81,41,36.28,81.71,54.03,122.73c-0.44,0.01-1.3,0.04-1.73,0.06
		c-0.86,0.78-1.72,1.56-2.59,2.32c-2.27,1.05-5.3,2.7-7.52,0.7c-3.8-3.26-6.4-7.63-9.54-11.48c-9.3-11.71-18.42-23.56-27.71-35.27
		c-5.12-6.42-9.85-13.17-15.55-19.1c-4.57,11.27-9.39,22.44-13.76,33.78c-1.04,2.55-2.04,5.17-3.68,7.4
		c-2.5,3.75-9.27,3.09-10.92-1.11c-1-2.25-1.53-4.68-2.1-7.06c-3.68-16.31-7.59-32.57-11.43-48.84c-8.32,0.69-16.46,2.57-24.68,3.89
		c-16.44,2.85-32.88,5.78-49.32,8.64c-3.66,0.81-7.77,0.19-9.93-3.19c-10.64-14.03-21.32-28.04-32.14-41.95
		c-13.77-17.92-27.28-36.06-41.44-53.67c-3.26,16.38-4.99,33.03-7.79,49.5c-1.41,7.42-1.59,15.09-3.71,22.36
		c-0.86,3.69-5.37,3.85-8.38,3.21c-3.01-0.54-3.84-3.91-4.69-6.37c-2.99-10.89-5.29-21.97-8.79-32.72
		c-9.55,16.31-18.18,33.17-27.27,49.74c-1.5,3.11-4.9,4.17-8.04,4.8c-1.99-1.22-4.1-2.23-6.33-2.91
		c14.49-65.85,29.26-131.64,43.84-197.46C261.56,84.05,263.06,80.74,266.38,80.33 M263.08,108.02
		c-9.52,43.09-19.21,86.15-28.72,129.25c-3.07,14.25-6.6,28.42-9.25,42.76c12.23-21.66,23.41-43.92,35.81-65.48
		c5.04,16.7,8.62,33.82,13.68,50.52c4.93-29.82,8.93-59.79,13.8-89.61c3.18,3.26,5.76,7.03,8.45,10.69
		c21.18,28.16,42.23,56.42,63.39,84.59c3.97,5.03,7.42,10.47,11.69,15.26c-4.81-10.29-10.52-20.14-15.64-30.28
		c-19.24-36.78-38.48-73.55-57.73-110.32c-10.29-19.31-19.98-38.95-30.64-58.06C265.92,94.14,264.76,101.15,263.08,108.02
		 M429.56,265.56c-17.87,7.4-35.89,14.47-53.61,22.24c26.11-4.19,51.99-9.72,78.07-14.07c5.18,20.56,9.73,41.27,14.91,61.83
		c7.36-16.37,13.83-33.13,20.72-49.7c1.42,1.42,2.82,2.86,4.1,4.42c13.17,16.81,26.37,33.6,39.54,50.42
		c4.27,5.21,8.06,10.86,12.88,15.6c-1.53-5.03-3.82-9.77-5.98-14.56c-15.12-34.25-30.23-68.5-45.48-102.7
		C472.85,247.5,451.31,256.78,429.56,265.56z"/>
	<path fill="#FEFFFE" stroke="#FEFFFE" stroke-width="0.394" d="M1619.67,112.76c1.63-9.28,2.4399-18.73,4.7699-27.88
		c12.4601,44.6,24.42,89.34,36.67,134c5.11,19.17,10.74,38.22,15.46,57.49c-5.8899-6.59-10.3099-14.31-15.58-21.38
		c-6.5-8.85-12.34-18.18-19.1799-26.78c-2.13,22.25-3.3401,44.57-5.0601,66.85c-0.76,13.6-2.3199,27.14-3.01,40.75l-0.45-0.02
		c-1.92-24.27-4.23-48.5-6.1901-72.76c-1.89-19.05-2.8099-38.21-5.25-57.2c-6.15,18.86-11.1899,38.08-16.9399,57.07
		c-6.23,21.38-12.52,42.74-18.7101,64.13C1597.29,255.6,1608.48,184.18,1619.67,112.76z"/>
	<path fill="#FEFFFE" stroke="#FEFFFE" stroke-width="0.394" d="M263.08,108.02c1.68-6.87,2.84-13.88,4.84-20.68
		c10.66,19.11,20.35,38.75,30.64,58.06c19.25,36.77,38.49,73.54,57.73,110.32c5.12,10.14,10.83,19.99,15.64,30.28
		c-4.27-4.79-7.72-10.23-11.69-15.26c-21.16-28.17-42.21-56.43-63.39-84.59c-2.69-3.66-5.27-7.43-8.45-10.69
		c-4.87,29.82-8.87,59.79-13.8,89.61c-5.06-16.7-8.64-33.82-13.68-50.52c-12.4,21.56-23.58,43.82-35.81,65.48
		c2.65-14.34,6.18-28.51,9.25-42.76C243.87,194.17,253.56,151.11,263.08,108.02z"/>
	<path fill="#FEFEFE" stroke="#FEFEFE" stroke-width="0.394" d="M1771.3101,167.22c1.74-5.83,3.0099-11.82,5.2699-17.49
		c7.5901,22.25,14.2301,44.82,21.5,67.17c9.12,29.47,18.89,58.75,27.7101,88.31c-4.42-6.5-7.64-13.7-11.49-20.53
		c-6.03-11.29-12.0901-22.58-18.14-33.86c-2.64-4.75-4.8301-9.75-7.9601-14.2c-3.4399,24.77-5.1699,49.76-8.63,74.53
		c-3.6399-30.81-6.88-61.68-10.8199-92.44c-7.23,13.04-13.12,26.78-19.97,40.02c-0.8201,1.56-2.4,2.44-3.74,3.46
		c1.0399-7.11,3.49-13.91,5.33-20.83C1757.35,216.65,1764.3199,191.93,1771.3101,167.22z"/>
	<path fill="#8E84B8" stroke="#8E84B8" stroke-width="0.394" d="M40.41,199.42c4.01-6.6,7.54-13.51,12.28-19.65
		c4.95,23.61,8.81,47.44,13.5,71.1c1.1,5.28,1.46,10.74,3.15,15.89c1.73,5.51,11.8,5.04,12.42-0.97c1.47-7.5,1.59-15.18,2.45-22.76
		c1.67-16.01,2.84-32.07,4.83-48.04c6.8,7.95,12.56,16.73,18.99,24.99c14.98,20.33,30.05,40.61,45.09,60.9
		c2.44,3.2,4.58,6.67,7.54,9.44c2.2,2.09,5.49,1.68,8.27,2.04c6.5,11.53,11.4,23.91,18.23,35.26c-6.21,8.16-11.85,16.74-16.95,25.64
		c-7-11.11-12.3-23.18-19.03-34.44c-0.64,22.36-1.44,44.72-1.42,67.1c-4.63-0.18-9.31,0.05-13.84,1.09
		c-2.37-6.24-4.02-12.72-5.78-19.14c-9.62-34.69-19.1-69.41-28.86-104.06c-3.44,9.9-5.34,20.24-8.21,30.31
		c-2.38,8.15-3.55,16.67-7.06,24.46c-2.31-3.38-4.88-7.51-9.26-8.26c-5.73-0.86-10.87,2.88-14.37,7.04
		c-4.73,5.72-8.11,12.4-11.43,18.99c-3.92-7.49-5.82-15.78-8.58-23.72c-4.79-13.9-8.96-28.01-14.02-41.82
		c0.19,17.08-0.27,34.15-0.54,51.23c-1.03,22.04-1.18,44.14-2.57,66.16c-8.27,2.65-14.21,9.53-18.28,16.92
		C6.72,363.08,6.92,321.04,6.85,279c0.08-9.8-0.19-19.59,0.16-29.38c3.11-1.62,5.97-3.83,7.63-6.99
		C23.05,228.12,31.81,213.82,40.41,199.42z"/>
	<path fill="#FEFFFF" stroke="#FEFFFF" stroke-width="0.394" d="M724.57,195.99c6.9,17.59,12.51,35.66,18.97,53.42
		c11.01,31.9,22.41,63.68,33.2,95.66c-10.89-19.65-21.03-39.73-32.27-59.17c-5.61,27.33-10,54.91-15.89,82.18
		c-4.33-13.79-8.01-27.78-12.09-41.64c-1.92-6.21-3.26-12.6-5.74-18.62c-18.12,37.84-36.21,75.7-54.29,113.56
		c-1.89,3.78-3.19,8.02-6.35,11c0.39-3.09,1.22-6.09,2.19-9.03C676.46,347.58,700.3,271.72,724.57,195.99z"/>
	<path fill="#8E84B8" stroke="#8E84B8" stroke-width="0.394" d="M292.08,196.78c14.16,17.61,27.67,35.75,41.44,53.67
		c10.82,13.91,21.5,27.92,32.14,41.95c2.16,3.38,6.27,4,9.93,3.19c16.44-2.86,32.88-5.79,49.32-8.64c8.22-1.32,16.36-3.2,24.68-3.89
		c3.84,16.27,7.75,32.53,11.43,48.84c0.57,2.38,1.1,4.81,2.1,7.06c1.65,4.2,8.42,4.86,10.92,1.11c1.64-2.23,2.64-4.85,3.68-7.4
		c4.37-11.34,9.19-22.51,13.76-33.78c5.7,5.93,10.43,12.68,15.55,19.1c9.29,11.71,18.41,23.56,27.71,35.27
		c3.14,3.85,5.74,8.22,9.54,11.48c2.22,2,5.25,0.35,7.52-0.7c16.47,36.23,33,72.43,49.48,108.66c7.1,14.9,13.35,30.21,20.7599,44.97
		c6.26-17.61,11.48-35.57,17.22-53.35c2.67-8.61,5.61-17.13,8.05-25.81c2.62-0.3,5.45-0.09,7.87-1.31
		c3.21-3.13,4.57-7.59,6.58-11.49c8.73-17.97,17.13-36.09,25.81-54.08c7.35-14.93,14.01-30.21,21.72-44.97
		c5.05,14.48,8.34,29.51,13.1,44.08c1.31,5.47,10.05,5.94,12.1,0.82c1.98-5,2.28-10.46,3.37-15.68c3.2-16.67,6.13-33.39,9.64-49.99
		c4.95,7.19,8.45,15.23,12.74,22.81c4.33,7.69,8.19,15.65,12.94,23.1c2.09,0.06,4.2,0.12,6.31,0.19
		c24.07,69.96,48.75,139.7,72.97,209.6c15.03,42.86,29.92,85.77,44.93,128.6299c-0.41,1.3701-0.78,2.76-1.1,4.17
		c-5.3-9.12-8.46-19.27-12.84-28.84c-38.23-91.06-76.6-182.07-114.9-273.1c-3.19-7.23-5.82-14.7-9.45-21.73
		c0.4901,18.45,2.07,36.85,2.9,55.28c1.61,28.99,3.29,57.97,4.91,86.96c0.5,12.7599,1.78,25.49,1.92,38.27
		c-6.25-16.83-11.17-34.11-16.97-51.09c-13.55-41.43-26.96-82.9-40.6-124.29c-4.62,52.36-8.59,104.78-13,157.16
		c-0.89,8.76-0.82,17.65-2.71,26.28c-4.95-46.87-9.31-93.81-14.13-140.69c-0.24-1.95-0.51-3.89-0.77-5.83
		c-7.69,13.82-14.23,28.25-21.52,42.29c-16.77,33.41-33.39,66.91-50.19,100.31c-8.4-14.31-15.65-29.25-23.79-43.7
		c-0.28,2.41-0.58,4.84-0.67,7.28c-0.39-8.32,1.09-17.46-3.5-24.94c-1.79-3.33-5.68-4.24-9.12-4.62c0.26-0.17,0.8-0.5,1.06-0.66
		c-19.2-35.68-38.46-71.34-57.59-107.05c-7.13-12.99-13.79-26.25-21.24-39.05c-11.5,18.27-22.01,37.17-33.62,55.38
		c-6.69-21.09-13.49-42.15-20.22-63.24c-3.2-9.38-5.51-19.09-9.53-28.17c-5.8,28.74-11.18,57.56-16.86,86.32
		c-3.39-3.4-7.42-6.61-12.28-7.44c-3.92-0.71-7.93,0.29-11.41,2.1c-4.88-11.96-11.44-23.14-16.95-34.81
		c-6.4-12.36-12.13-25.06-19.02-37.16c-7.96,25.08-14.86,50.5-22.76,75.6c-3.49-6.01-5.96-12.52-8.81-18.84
		c-12.53-28.09-24.5-56.42-37.26-84.4c-5.53,31.04-10.75,62.13-16.22,93.18c-1,5.28-2.32,10.54-2.35,15.94
		c-2.24-8.84-5.62-18.03-12.7-24.16c-4.03-3.57-9.47-5.09-14.78-4.89c-1.31-2.44-2.65-4.86-4.05-7.23
		c0.93-13.43,2.27-27.58-2.8-40.39c-2.25-6.09-7.5-10.69-13.74-12.39c1.37-6.95,2.61-13.94,4.68-20.73c3.14-0.63,6.54-1.69,8.04-4.8
		c9.09-16.57,17.72-33.43,27.27-49.74c3.5,10.75,5.8,21.83,8.79,32.72c0.85,2.46,1.68,5.83,4.69,6.37c3.01,0.64,7.52,0.48,8.38-3.21
		c2.12-7.27,2.3-14.94,3.71-22.36C287.09,229.81,288.82,213.16,292.08,196.78z"/>
	<path fill="#FEFFFE" stroke="#FEFFFE" stroke-width="0.394" d="M429.56,265.56c21.75-8.78,43.29-18.06,65.15-26.52
		c15.25,34.2,30.36,68.45,45.48,102.7c2.16,4.79,4.45,9.53,5.98,14.56c-4.82-4.74-8.61-10.39-12.88-15.6
		c-13.17-16.82-26.37-33.61-39.54-50.42c-1.28-1.56-2.68-3-4.1-4.42c-6.89,16.57-13.36,33.33-20.72,49.7
		c-5.18-20.56-9.73-41.27-14.91-61.83c-26.08,4.35-51.96,9.88-78.07,14.07C393.67,280.03,411.69,272.96,429.56,265.56z"/>
	<path fill="#FEFFFE" stroke="#FEFFFE" stroke-width="0.394" d="M1812.91,240.9c9.5699,0.6,19.0399,2.26,28.51,3.78
		c8.99,1.62,18.01,3.34,26.6899,6.24c3.4,1.27,7.1,2.62,9.4401,5.56c1.3899,2.86-1.64,5.05-3.8101,6.25
		c-6.46,3.31-13.64,4.79-20.65,6.41c-9.9,2.02-19.85,3.85-29.9,4.87C1819.76,262.97,1815.95,252.05,1812.91,240.9z"/>
	<path fill="#8E84B8" stroke="#8E84B8" stroke-width="0.394" d="M1608.22,275.22c3.3201-11.14,6.0901-22.48,10.25-33.35
		c2.61,27.1,4.62,54.26,7.15,81.37c0.61,5.75,0.16,11.69,1.87,17.27c1.36,4.36,7.3,4.47,10.7,2.64
		c2.1901-2.55,2.01-6.23,2.4601-9.39c1.37-19.58,2.7899-39.16,4.22-58.73c0.96-9.09,0.9401-18.25,2.25-27.29
		c8.4301,9.82,14.9401,21.11,22.74,31.41c1.98,2.81,5.58,3.19,8.7001,3.82c6.1,21.79,11.98,43.64,17.97,65.45
		c4.02,13.91,7.1799,28.07,11.75,41.81c11.53-40.44,22.85-80.94,34.3099-121.4c3.92-0.91,8.78-1.28,11.02-5.19
		c4.28-6.92,6.76-14.79,11.16-21.65c3.24,23.57,5.29,47.32,8.4399,70.89c0.38,5.66,8.4,6.72,11.75,3.13
		c1.2101-2.22,1.4701-4.81,1.89-7.28c1.8301-16.67,3.2101-33.4,5.6-50.01c2.52,3.84,4.8201,7.84,6.89,11.95
		c5.66,11.21,12.02,22.05,17.74,33.23c1.88,3.38,3.3101,7.27,6.42,9.76c2.5601,1.33,5.54-0.05,8.0601-0.92
		c13.84,40.5,27.2,81.17,40.99,121.69c3.1499,9.21,6,18.53,9.48,27.63c-6.77,4.13-8.12,12.33-10.6801,19.17
		c-1.49-2.32-2.95-4.65-4.35-7.01c-8.51-27.21-17.03-54.42-25.66-81.59c-2.01-6.49-3.7799-13.07-6.48-19.32
		c-2.35,16.41-2.63,33.05-4.9399,49.47c-3.2001-1.45-6.74-1.19-10.0601-0.43c-4.96-21.6-9.61-43.27-14.38-64.92
		c-2.38-9.85-4.0499-19.87-6.87-29.6c-3.73,26.09-7.6899,52.15-11.5699,78.23c-2.1801,13.08-3.4,26.33-6.3201,39.28
		c-5.4199-55.88-10.61-111.78-16.14-167.64c-3.13,7.25-4.98,14.94-7.47,22.41c-14.9,47.01-29.71,94.04-44.66,141.02
		c-8.46-19.37-15.74-39.24-23.8199-58.77c-6.5601-15.87-12.35-32.07-19.46-47.7c1.1899,38.46,3.3999,76.89,4.9199,115.34
		c0.5,11.74,1.3401,23.47,1.17,35.24c-1.74-2.67-3.74-5.14-5.7-7.63c-1-7.72-3.7101-15.07-5.51-22.62
		c-6.38-24.27-12.79-48.54-19.2201-72.81c-2.36-8.51-4.0699-17.23-7.23-25.51c-0.8199,10.62-0.4199,21.29-1.09,31.91
		c-0.6901,12.17-0.35,24.36-1.16,36.52c-0.76,12.7,0.0601,25.48-1.5,38.13c-7.12-14.93-12.6899-30.54-19.3199-45.69
		c-5.0601-12.29-10.11-24.58-15.22-36.85c-2.9501-6.99-5.51-14.15-8.9901-20.9c-3.4299,24.07-6.0199,48.25-9.08,72.37
		c-4.61,36.34-8.77,72.74-13.58,109.05c-4.8301-10.86-8.23-22.28-12.48-33.36c-4.14-10.65-7.4501-21.61-11.91-32.12
		c-0.7001,23.8-0.02,47.64-0.67,71.45c-8.9-16.72-16.5599-34.09-25.63-50.73c-4.4299,12.69-6.7,26.02-11.26,38.67
		c-7.5599-14.38-14.22-29.24-22.4099-43.27c-8.27,32.77-15.79,65.74-24.03,98.52c-6.72,2.28-13.42,4.6-20.1901,6.71
		c11.17-39.56,22.92-78.97,34.2201-118.5c2.86-0.41,6.37-0.42,7.97-3.33c8.2-12.35,15.85-25.09,24.3099-37.28
		c1.92,12.04,3.64,24.11,5.2201,36.19c0.5199,2.89,0.72,6.06,2.46,8.54c3.47,3,10.4299,2.02,11.3099-3.09
		c2.54-9.81,3.9401-19.89,6.0701-29.81c6.58,4.87,11.72,11.34,18.08,16.45c2.4,2.15,5.79,1.41,8.72,1.32
		c0.9501,4.43,2.77,8.6,4.52,12.76c3.5701-19.27,6.04-38.72,9.28-58.04c4.6901-30.31,9.5601-60.58,14.16-90.9
		c2.16,0.26,4.34,0.5,6.53,0.75C1596.8101,313.01,1602.89,294.22,1608.22,275.22z"/>
	<path fill="#B9B3D6" stroke="#B9B3D6" stroke-width="0.394" d="M0,246.08c2.35,1.16,4.69,2.33,7.01,3.54
		C6.66,259.41,6.93,269.2,6.85,279c0.07,42.04-0.13,84.08,0.11,126.12c-2.14,5.65-4.76,11.1-6.96,16.72V246.08z"/>
	<path fill="#BAB3D7" stroke="#BAB3D7" stroke-width="0.394" d="M1731.52,282.99c2.14-6.95,4.22-13.93,6.0499-20.98
		c1.5701,2.34,3.25,4.61,5.02,6.82c-11.46,40.46-22.7799,80.96-34.3099,121.4c-4.5701-13.74-7.73-27.9-11.75-41.81
		c-5.99-21.81-11.87-43.66-17.97-65.45c1.8799-2.16,3.6-4.48,5.12-6.92c0.8199,3.09,1.8099,6.14,2.75,9.22
		c0.58,2.13,1.09,4.29,1.6,6.45c5.15,20.36,11.0399,40.54,16.4099,60.85c1.1001,4.25,2.3201,8.48,3.9,12.58
		c7.3-24.25,13.9401-48.71,20.78-73.1C1729.9,289.03,1730.6801,286,1731.52,282.99z"/>
	<path fill="#6C609E" stroke="#6C609E" stroke-width="0.394" d="M93.07,294.12c2.87-10.07,4.77-20.41,8.21-30.31
		c9.76,34.65,19.24,69.37,28.86,104.06c1.76,6.42,3.41,12.9,5.78,19.14c-10.67,3.29-19.07,11.15-25.31,20.16
		c-1.51-12.37-3.65-25.81-12.67-35.16c-2.09-2.01-4.89-2.91-7.57-3.83c0.5-5.48,0.51-11-0.15-16.47
		c-0.34-11.14-0.53-22.47-4.21-33.13C89.52,310.79,90.69,302.27,93.07,294.12z"/>
	<path fill="#6C609E" stroke="#6C609E" stroke-width="0.394" d="M28.35,270.81c5.06,13.81,9.23,27.92,14.02,41.82
		c2.76,7.94,4.66,16.23,8.58,23.72c-7.32,16.59-13.03,33.83-17.94,51.27c-2.59,0.14-5.19,0.26-7.77,0.58
		c1.39-22.02,1.54-44.12,2.57-66.16C28.08,304.96,28.54,287.89,28.35,270.81z"/>
	<path fill="#6C609E" stroke="#6C609E" stroke-width="0.394" d="M1757.11,300.11c2.49-7.47,4.34-15.16,7.47-22.41
		c5.53,55.86,10.7201,111.76,16.14,167.64c2.92-12.95,4.14-26.2,6.3201-39.28c3.88-26.08,7.84-52.14,11.5699-78.23
		c2.8201,9.73,4.49,19.75,6.87,29.6c4.77,21.65,9.42,43.32,14.38,64.92c-1.66,2.55-3.41,5.06-4.72,7.82
		c-4.3201,7.38-2.11,16.27-4.85,24.08c-3.24-0.22-6.5901,0.76-8.6901,3.32c-5.9,6.56-7.2999,15.66-8.73,24.05
		c-4.0699-0.45-8.65-1.54-12.3,0.92c-3.9199,2.41-5.5499,6.93-7.13,11.01c-2.33-0.82-4.6499-1.93-7.1499-1.95
		c-2.7101,0.14-5.25,1.16-7.79,1.98c-1.5-5.25-3-11.03-7.36-14.68c-2.99-2.64-7.2001-1.64-10.78-1.39
		c-0.41-6.51-0.39-13.8-4.78-19.07c-2.0399-2.5-5.8099-2.87-8.5199-1.36c-3.5901,1.97-6.0901,5.35-8.3101,8.68
		c-6.23,9.67-9.75,20.71-13.15,31.6c-3.34,1.21-6.7999,2.37-9.6,4.62c-3.23,2.53-5.51,5.99-7.84,9.31
		c-1.3201-2.79-2.4401-5.72-4.3201-8.17c-1.6699-2.15-4.5-2.71-6.88-3.66c-0.7899-4.72-1.33-9.47-1.7-14.22
		c0.17-11.77-0.67-23.5-1.17-35.24c-1.52-38.45-3.73-76.88-4.9199-115.34c7.11,15.63,12.8999,31.83,19.46,47.7
		c8.08,19.53,15.36,39.4,23.8199,58.77C1727.4,394.15,1742.21,347.12,1757.11,300.11z"/>
	<path fill="#75C4F0" stroke="#75C4F0" stroke-width="0.394" d="M1705.99,284c8.51-0.25,17-1.11,25.53-1.01
		c-0.84,3.01-1.62,6.04-2.4,9.06c0.08-0.67,0.26-2.01,0.35-2.69c-13.8099,0.98-27.6599,1.12-41.4399,2.36
		c-0.51-2.16-1.02-4.32-1.6-6.45C1692.91,284.39,1699.46,284.28,1705.99,284z"/>
	<path fill="#BAB4D5" stroke="#BAB4D5" stroke-width="0.394" d="M217.08,284.39c2.23,0.68,4.34,1.69,6.33,2.91
		c-2.07,6.79-3.31,13.78-4.68,20.73c-2.22-0.04-4.44,0.05-6.65,0.26C213.31,300.23,215.42,292.35,217.08,284.39z"/>
	<path fill="#B9B4D7" stroke="#B9B4D7" stroke-width="0.394" d="M168.93,292.36c1.57-1.91,3.17-3.79,4.82-5.64
		c6,11.89,11.69,23.92,17.72,35.79c-1.52,1.63-2.94,3.35-4.31,5.11C180.33,316.27,175.43,303.89,168.93,292.36z"/>
	<path fill="#6C609E" stroke="#6C609E" stroke-width="0.394" d="M285.37,287.97c12.76,27.98,24.73,56.31,37.26,84.4
		c2.85,6.32,5.32,12.83,8.81,18.84c7.9-25.1,14.8-50.52,22.76-75.6c6.89,12.1,12.62,24.8,19.02,37.16
		c5.51,11.67,12.07,22.85,16.95,34.81c-10.17,8.21-12.22,21.95-14.23,34.07c-6.15-2.56-13.31-4.31-19.61-1.21
		c-10.53,4.83-15.9,15.84-20.15,25.98c-5.35-2.79-10.98-5.69-17.18-5.62c-4.53-0.1-8.73,1.83-12.69,3.78
		c-1.45-8.77-5.22-17.98-13.34-22.54c-7.04-4.4-15.68-3.59-23.47-2.14c-0.21-7.67-1.07-15.31-2.7-22.81
		c0.03-5.4,1.35-10.66,2.35-15.94C274.62,350.1,279.84,319.01,285.37,287.97z"/>
	<path fill="#0193DD" stroke="#0193DD" stroke-width="0.394" d="M1688.03,291.72c13.78-1.24,27.63-1.38,41.4399-2.36
		c-0.09,0.68-0.27,2.02-0.35,2.69c-6.84,24.39-13.48,48.85-20.78,73.1c-1.58-4.1-2.7999-8.33-3.9-12.58
		C1699.0699,332.26,1693.1801,312.08,1688.03,291.72z"/>
	<path fill="#6C609E" stroke="#6C609E" stroke-width="0.394" d="M430.72,306.6c4.02,9.08,6.33,18.79,9.53,28.17
		c6.73,21.09,13.53,42.15,20.22,63.24c11.61-18.21,22.12-37.11,33.62-55.38c7.45,12.8,14.11,26.06,21.24,39.05
		c19.13,35.71,38.39,71.37,57.59,107.05c-0.26,0.16-0.8,0.49-1.06,0.66c-8.43,3.68-11.99,12.62-15.36,20.49
		c-3.69-2.53-7.9-4.32-11.31-7.23c-1.99-18.86-2.88-38.46-10.79-56.04c-2.47-5.06-5.76-10.86-11.67-12.23
		c-5.75-1.18-10.9,3-13.67,7.66c-5.35,8.91-7.22,19.32-9.26,29.36c-3.97-0.2-8.32-0.74-11.85,1.52
		c-6.38,3.89-9.94,10.76-13.25,17.19c-3.51-6.76-7.43-13.52-13.4-18.42c-5.45-4.9-12.32-7.72-19.23-9.88
		c-3.36-15.9-7.53-31.73-14.26-46.57c-3.61-8.01-8.04-15.76-13.95-22.32C419.54,364.16,424.92,335.34,430.72,306.6z"/>
	<path fill="#B7DD7D" stroke="#B7DD7D" stroke-width="0.394" d="M212.08,308.29c2.21-0.21,4.43-0.3,6.65-0.26
		c6.24,1.7,11.49,6.3,13.74,12.39c5.07,12.81,3.73,26.96,2.8,40.39c-0.28,2.5-0.6,5.01-0.88,7.53c1.64-0.12,3.28-0.22,4.93-0.3
		c5.31-0.2,10.75,1.32,14.78,4.89c7.08,6.13,10.46,15.32,12.7,24.16c1.63,7.5,2.49,15.14,2.7,22.81c7.79-1.45,16.43-2.26,23.47,2.14
		c8.12,4.56,11.89,13.77,13.34,22.54c3.96-1.95,8.16-3.88,12.69-3.78c6.2-0.07,11.83,2.83,17.18,5.62
		c4.25-10.14,9.62-21.15,20.15-25.98c6.3-3.1,13.46-1.35,19.61,1.21c2.01-12.12,4.06-25.86,14.23-34.07
		c3.48-1.81,7.49-2.81,11.41-2.1c4.86,0.83,8.89,4.04,12.28,7.44c5.91,6.56,10.34,14.31,13.95,22.32
		c6.73,14.84,10.9,30.67,14.26,46.57c6.91,2.16,13.78,4.98,19.23,9.88c5.97,4.9,9.89,11.66,13.4,18.42
		c3.31-6.43,6.87-13.3,13.25-17.19c3.53-2.26,7.88-1.72,11.85-1.52c2.04-10.04,3.91-20.45,9.26-29.36
		c2.77-4.66,7.92-8.84,13.67-7.66c5.91,1.37,9.2,7.17,11.67,12.23c7.91,17.58,8.8,37.18,10.79,56.04c3.41,2.91,7.62,4.7,11.31,7.23
		c3.37-7.87,6.93-16.81,15.36-20.49c3.44,0.38,7.33,1.29,9.12,4.62c4.59,7.48,3.11,16.62,3.5,24.94c1.65,3.04,4.97,4.81,6.65,7.88
		c3.15,5.66,3.46,12.3,4.44,18.57c3.01,1.47,6.37,2.81,8.32,5.7c2.14,3.19,2.81,7.05,3.74,10.71c3.02-1.29,6.05-2.81,9.38-3.08
		c3.01-0.12,5.85,1.07,8.66,1.99c2.08-6.24,5.43-12.4399,11.28-15.85c3.17-2.05,6.9-2.84,10.54-3.61c1.9-7.88,3.62-16.36,9.2-22.58
		c2.86-3.26,7.73-5.23,11.89-3.27c5.19,2.4301,7.89,7.95,9.95,13.01c3.45,9.12,4.86,18.88,5.64,28.57c0.21,1.86,0.28,3.8,1.04,5.55
		c3.58,2.82,8.06,4.61,10.79,8.45c4.33,5.17,6.07,12.03,5.36,18.69c2.58-2.83,5.59-5.84,9.68-6.05c4-0.65,8.4,1.84,9.3,5.92
		c1.48,6.15-0.78,12.3-2.86,18.02c-2.26,5.38,1.24,10.94,0.52,16.48c0.03,4.56-3.22,9.28-0.74,13.65c0.57,1.29,1.2,2.55,1.83,3.83
		c2.83-0.1201,5.66-0.15,8.5-0.11c5.74-8.28,12.21-16.71,21.39-21.37c3.27-1.64,8.62-2.62,10.53,1.45
		c2.68,7.52-2.51,14.5-4.18,21.56c0.75,3.49,2.81,6.57,3.35,10.14c0.95,5.32-0.45,10.66-2.19,15.66
		c45.45,18.92,90.84,38.07,137.01,55.2c0.03-9.95,0.9-19.9,2.79-29.67c0.32-1.41,0.69-2.8,1.1-4.17c1.04-3.39,2.18-6.7599,3.61-10
		c1.6-2.6899,3.41-5.3799,6.02-7.18c2.26-1.46,4.96-2.0099,7.51-2.79c3.85-17.91,7.71-35.97,14.78-52.94
		c1.95-4.1,3.89-8.79,8.07-11.09c2.52-1.52,5.67,0.07,6.97,2.46c2.71,4.61,3.46,10.05,3.94,15.29c0.64,10.4,0.16,20.82,0.08,31.23
		c2.66,1.28,5.56,2.65,6.99,5.41c4.44,8.01,4.9,17.4,5.95,26.31c3.35-6.13,7.26-12.55,13.69-15.83c3.86-2.07,8.35-1.71,12.58-1.65
		c5.04-16.4,10.83-32.69,19.13-47.75c3.3-5.77,6.94-11.63,12.37-15.64c3.44-2.7,9.2-2.88,11.9999,0.86
		c3.8501,4.78,4.92,11.14,5.41,17.1c0.49,10.02,0.04,20.06-0.35,30.08c2.99,0.27,6.3099,0.03,8.9,1.87
		c3.6499,2.57,5.7,6.7599,7.2999,10.81c3.67,9.89,4.61,20.57,4.25,31.05l0.4701-0.06c3.0199-0.34,6.0499-0.68,9.1-0.76
		c9.02,2.7,12.2799,12.95,12.75,21.43c2.85-1.32,5.77-3.21,9.0599-2.82c3.4501,0.62,6.4401,2.61,9.48,4.26
		c2.3501-7.59,4.6801-16.07,11.3301-21.08c3.76-2.78,8.6-1.14,12.6699-0.07c0.75-8.34,1.7301-16.99,5.8201-24.45
		c1.6799-3.11,4.87-6.08,8.66-5.65c4.1799,1.06,7,4.72,9.23,8.2c4.5,7.49,7.09,15.92,9.52,24.26
		c9.7999-2.31,18.9399-6.66,28.4399-9.92c82.74-30.66,165-62.66,248.4-91.52c2.49-0.89,5.02-1.74,7.5599-2.56
		c6.77-2.11,13.4701-4.43,20.1901-6.71c32.35-10.57,64.89-20.6,97.79-29.35c3.7999-0.68,4.6899-4.95,7.1799-7.31
		c2.59-0.69,4.58,1.59,6.7,2.71c0.9701,0.24,1.9801,0.19,3,0.13c11.1201-2.81,22.28-5.48,33.4601-8.07
		c0.26-0.52,0.7899-1.55,1.0499-2.06c0.4401-0.89,0.9-1.77,1.39-2.64c2.9,0.4399,5.8,0.95,8.6801,1.59
		c1.4199-3.35,3.58-6.37,6.86-8.11c1.0699,0.61,2.17,1.22,3.29,1.84c-0.1901,1-0.36,2-0.5,3.01c-1.28-0.18-2.52-0.35-3.75-0.52
		c-0.79,1.14-1.5701,2.29-2.3301,3.44c19.7201-3.66,39.35-7.79,59.2101-10.67c43.01-6.63,86.5299-10.21,130.0699-9.68
		c0.9-4.94,2.14-10.85,7.1801-13.19c6.97-3.29,14.6699,0.48,20.49,4.45c4.6599,2.87,8.1799,7.3,12.89,10.07
		c7.22,1.51,14.71,1.33,22.0299,2.35c10.25,1.08,20.4601,2.48,30.65,4.07c2.9501,0.62,5.86-0.29,8.65-1.22
		c-0.05-17.28,0.1799-34.55-0.13-51.82c-1.71-0.21-3.39-0.42-5.0601-0.62c-0.46-3.87-1-7.72-1.6-11.56
		c0.4301,0.32,1.28,0.96,1.7101,1.28c0.3099,2.02,0.5299,4.08,1.1899,6.04c3.27,2.49,7.1901,3.97,10.63,6.25V1432.96
		c-1.41,2.26-3.1899,4.39-5.64,5.55c-0.7999-0.0601-2.4-0.17-3.2-0.23c-0.6801-1.24-1.3301-2.4401-1.9701-3.63
		c2.4501,0.45,4.91,0.89,7.4301,0.91c0.64-2.6101-1.67-4.3201-3.17-6.04c-0.26-86.17-0.0399-172.34-0.11-258.52
		c0-124.33,0-248.66,0-373c0.05-6.99,0.05-13.98-0.2899-20.96c-43.5,10.89-87.13,21.31-131.14,29.92
		c-86.29,17.06-173.78,28.39-261.66,32.46c-54.08,2.19-108.28,2.07-162.29-1.47c-82.3999-5.26-164.3099-17.91-244.5399-37.41
		c-77.2101-18.72-152.8101-43.61-226.98-72C765.88,682.69,649.1,627.46,528.02,582.92c-80.36-29.33-162.94-53.64-247.71-66.16
		c-90.55-13.85-183.15-14.22-273.83-1.24c-0.35,2.14-0.7,4.29-1.05,6.44c-0.81-1.51-1.61-3.02-2.41-4.53
		c1.8-2.52,5.45-4.96,4.28-8.5c-1.62-6.46-4.01-12.77-4.41-19.48c1.5,0.73,3.04,1.38,4.42,2.33c0.4,2.02,0.34,4.1,0.42,6.15
		c0.85,1.71,1.97,3.35,2.39,5.24c-0.11,2-1.39,3.71-2.17,5.51c1.39-0.8,2.77-1.59,4.16-2.37c-0.57,1.57-1.15,3.15-1.73,4.73
		c0.94,0.7,1.88,1.4,2.82,2.12c0.22-1.75,0.45-3.5,0.57-5.25c96.89-13.22,195.83-10.76,292.09,6.24
		c83.82,14.68,165.37,40.1,244.85,70.17c51.7,19.5,102.66,40.91,153.56,62.41c3.5,1.41,6.87,3.27,10.62,3.97
		c1.1-3.15,2.04-7.43-0.44-10.14c-1.85-0.66-3.81-0.84-5.71-1.16c2.01-6.76,5.01-13.76,3.71-20.9301
		c-0.46-3.14-4.19-1.8799-6.35-1.97c3.15-5.98,6.1-12.16,7.77-18.74c0.83-2.79,0.19-5.67-0.51-8.39c-3.35,1.44-6.58,3.22-9.19,5.79
		c-6.53,6.21-11.82,13.55-17.11,20.8c4.35-8.37,8.15-17.36,8.12-26.96c0.07-5.91-1.17-12.35-5.54-16.64
		c-2.79-2.91-6.91-3.66-10.65-4.58c-0.78-12.8701-1.9-25.98-6.6-38.11c-1.43-3.25-3.22-6.98-6.76-8.3
		c-3.36-0.77-5.74,2.48-7.23,5.01c-4.1801,7.85-5.73,16.79-6.87,25.52c-2.41-2.2401-4.77-5.75-8.5-5.27
		c-3.82,0.64-6.46,3.84-8.55,6.84c-3.46,5.07-5.46,10.9301-7.44,16.69c-3.44-2.58-7.61-6.16-12.2-4.3199
		c-5.88,2.55-7.58,9.36-9.08,14.98c-2.12-0.27-4.25-0.52-6.37-0.73c1.23-6.76,2.33-13.75,1.03-20.58c-0.6-2.67-1.73-5.83-4.59-6.76
		c-2.44-0.32-4.68,1.02-6.92,1.78c0.04-7.1801-0.04-14.4901-2.05-21.44c-0.86-2.51-1.97-5.6201-4.83-6.3701
		c-1.83,0.51-3.52,1.39-5.2401,2.19c0.89-7.6,1.61-15.27,1.13-22.92c-0.28-3.46-0.86-7.17-3.26-9.84c-3.1-0.08-4.98,2.74-6.54,4.99
		c-4.86,7.77-7.53,16.61-10.54,25.19c-2.2-4.81-4.15-10.11-8.48-13.44c-2.99-2.46-6.92-3.07-10.59-3.75
		c-0.69-17.68-2.12-35.52-7.02-52.6c-1.51-4.75-3.09-9.72-6.48-13.5c-1.55-1.81-4.28-3.01-6.46-1.57c-3.17,1.98-4.86,5.52-6.31,8.82
		c-4.54,11.2-6.1,23.28-7.86,35.16c-2.48-3.17-4.78-7.8-9.38-7.87c-4.74,0.3-7.93,4.43-10.34,8.09c-5.31,8.2-7.68,17.76-10.74,26.92
		c-3.42-4.42-2.86-10.2-4.23-15.33c-2.62-10.41-9.47-19.86-18.99-24.96c-4.45-2.47-9.42-3.68-14.36-4.7
		c-3.64-19.6-8.78-39.16-18.01-56.94c-3.48-6.45-7.5-13.05-13.78-17.13c-3.43-2.38-8.47-2.55-11.6,0.43
		c-4.68,4.34-6.74,10.67-8.28,16.69c-2.03,8.35-2.69,16.96-3.02,25.53c-4.26-4.67-8.94-10.02-15.64-10.69
		c-6.55-0.82-12.26,3.62-15.92,8.6c-5.29,7-7.95,15.5-10.2,23.87c-6.21-5.23-13.34-10.83-21.92-10.49
		c-5.32,0.04-9.77,3.89-12.03,8.46c-3.82,7.31-3.44,15.81-3.23,23.81c-2.63-0.13-5.26-0.25-7.88-0.43c3.94-12.2,7.09-25.37,4-38.12
		c-1.56-6.68-6.07-13.13-12.92-15.08c-7.85-2.33-15.9,0.65-22.99,3.96c0.14-14.63-0.28-29.91-6.63-43.39
		c-2.75-5.7-7.54-11.43-14.27-12.01c-6.36-0.62-11.85,3.2-16.8,6.65c3.04-16.17,5.73-32.76,3.57-49.22
		c-0.89-5.87-2.53-12.55-7.8-16.04c-4.99-2.85-10.98-0.38-15.23,2.69c-9.05,6.63-15.84,15.78-22,25.03
		c-10.38,15.72-18.51,32.81-25.7,50.19c-7.41-1.9-15.45-2.56-22.69,0.38c-10.54,3.97-18.16,13.31-22.55,23.41
		c-2.33,5.04-2.69,11.47-7.91,14.63c-0.39-15.16-0.04-30.73-4.97-45.29c-1.55-4.05-3.57-8.85-8.06-10.29
		c-4.75-0.94-8.06,3.43-11.18,6.25c1.95-17.68,4.01-35.62,1.66-53.37c-0.78-4.25-1.49-9.19-5.08-12.06
		c-2.86-2.11-6.23,0.29-8.31,2.36c-5.02,5.3-8.38,11.9-11.55,18.39c-8.54,18.37-14.55,37.8-19.61,57.38
		c-5.15-1.52-11.19-2.32-15.69,1.31c-9.12,6.85-12.5,18.54-14.94,29.17c-2.49,12.15-2.96,24.63-2.38,37
		c-0.56-1.74-1.2-3.44-1.82-5.15c-1,0.62-1.99,1.23-2.98,1.86v-38.11c2.2-5.62,4.82-11.07,6.96-16.72
		c4.07-7.39,10.01-14.27,18.28-16.92c2.58-0.32,5.18-0.44,7.77-0.58c4.91-17.44,10.62-34.68,17.94-51.27
		c3.32-6.59,6.7-13.27,11.43-18.99c3.5-4.16,8.64-7.9,14.37-7.04c4.38,0.75,6.95,4.88,9.26,8.26c3.68,10.66,3.87,21.99,4.21,33.13
		c-0.45,5.98-1.07,11.95-1.26,17.95c3.03,0.62,6.07,1.27,8.98,2.35c9.02,9.35,11.16,22.79,12.67,35.16
		c6.24-9.01,14.64-16.87,25.31-20.16c4.53-1.04,9.21-1.27,13.84-1.09c1.43,0.06,2.86,0.14,4.29,0.23
		c5.07-11.12,10.1-22.27,16.16-32.89c5.1-8.9,10.74-17.48,16.95-25.64c1.37-1.76,2.79-3.48,4.31-5.11
		C197.33,316.51,204,310.96,212.08,308.29 M1818.63,520.62c-1.9301,5.4-0.96,11.32-0.0601,16.84
		c4.1901,20.22,12.8601,39.13,21.4301,57.8c-4.24-2.03-8.71-4.99-13.63-3.89c-3.79,0.88-5.83,4.73-6.7,8.21
		c-2.03,8.32-0.79,16.96,0.4099,25.3c2.16,12.06,5.61,23.86,9.6901,35.4c-5.64-1.3101-12.12-3.33-17.41,0.09
		c-6,4.01-6.74,12.16-6.09,18.73c1.87,16.58,9.5499,31.79,17.97,45.95c-5.16,1.17-10.75,2.67-14.1,7.11
		c-5.12,6.32-4.5701,15.28-1.92,22.53c5.17,13.86,16.3301,24.84,28.99,32.09c1.77,1.28,3.9701,0.91,5.9701,0.45
		c23.4199-5.42,46.7599-11.16,70.0199-17.22c0.16-55.34,0.02-110.67,0.0701-166.01c-0.14-22.08,0.3099-44.17-0.22-66.25
		c-5.92,5.31-7.0601,13.59-8.4801,20.98c-1.85,9.9-1.7,20.01-2.63,29.99c-1.6799,1.9301-4.08,3.05-6.1299,4.52
		c-14.8-22.09-30.2401-44.05-49.41-62.63c-5.8101-5.37-11.87-11.07-19.5801-13.47C1823.67,516.04,1819.78,517.32,1818.63,520.62
		 M1754.04,532.99c-91.73,6.11-181.55,28.33-268.9401,56.02c-81.02,25.73-160.4399,56.14-239.99,86.03
		c-80.83,30.52-161.96,60.38-244.32,86.53c16.93,6.17,34.3901,10.79,51.6301,15.99c42.5399,12.17,85.5699,22.64,129.01,31.01
		c94.3099,18.38,190.5099,26.82,286.5699,25.67c101.52-1.1,202.76-12.63,302.42-31.74c19.71-3.92,39.51-7.58,59.0199-12.41
		c-5.1-4.04-10.3899-7.91-14.72-12.8c-8.87-9.85-16.12-22.65-14.9199-36.32c0.63-8.74,6.5499-16.3199,14.2999-20.09
		c-6.63-12.83-12.9-26.28-14.22-40.85c-0.72-7.78,0.0599-16.54,5.64-22.52c3.66-4.03,9.15-5.44,14.4-5.89
		c-3.51-11.62-6.5701-23.47-7.52-35.6c-0.4301-8.75-0.54-18.4,4.75-25.87c2.37-3.57,6.63-4.89,10.53-6.04
		c-7.2101-16.91-14.51-34.27-16.15-52.77C1792.36,531.28,1773.17,531.65,1754.04,532.99 M1858.87,533.75
		c13.51,14.81,25.46,30.95,36.85,47.41c1-14.3,1.92-29.05,8.11-42.23C1888.9,536.74,1873.9301,534.68,1858.87,533.75
		 M1565.1899,556.92c-0.23,0.31-0.7,0.92-0.9399,1.23C1565.21,561.63,1568.98,556.41,1565.1899,556.92 M1020.95,610.93
		c-4.9,3.55-7.97,8.94-11.01,14.04c-8.88,16.02-14.68,33.4901-20.04,50.94c-4.2401-1-8.88-2.0099-12.95,0.13
		c-7.63,3.72-11.63,11.93-14.21,19.61c-1.57,4.09-1.24,9.13-4.69,12.3c-0.83-13.64,0.09-27.67-4.16-40.86
		c-0.93-2.25-2.07-5.32-4.88-5.55c-2.8,0.53-4.1,3.48-5.87,5.42c1.14-10.95,1.7-21.96,1.6-32.96c-0.17-7.88,0.24-16.34-4.03-23.33
		c-1.71,0.85-3.61,1.63-4.63,3.35c-3.4,5.1-5.4,10.98-7.36,16.75c-5.03,15.3-8.3,31.1-11.41,46.88c-2.49-0.81-5.43-2-7.79-0.19
		c-4.1,2.89-6.06,7.83-7.63,12.41c-3.57,11.57-4.41,23.77-4.54,35.81c30.12,11.11,60.28,22.22,90.88,31.98
		c7.11-0.37,13.74-4.02,20.67-5.69c22.24-7.04,44.3199-14.55,66.4199-22.02c0.3101-6.45,0.26-13.13-1.98-19.27
		c-1.39-3.72-4.1699-7.47-8.34-8.09c-4.3199-0.76-8.1801,1.74-11.85,3.6c0.0699-12.18-0.23-24.66-4.0801-36.32
		c-1.58-3.96-3.6499-8.74-8.1399-9.97c-4.55-0.86-7.8201,3.12-10.79,5.88c2.1-12.4901,3.1899-25.2,2.6899-37.86
		c-0.45-5.63-0.75-11.76-4.1699-16.5C1026.87,608.86,1023.17,609.12,1020.95,610.93 M748,625.04c-7.96,6.62-14.21,15-20.1,23.45
		c-2.38-0.9-5.01-2.49-7.54-1.17c-1.67,0.9-3.95,1.66-4.47,3.69c0.21,0.26,0.63,0.78,0.83,1.03c11.5,4.73,22.89,9.73,34.42,14.4
		c1.51-5.17,3.39-10.81,1.73-16.15c-0.94-2.73-4.12-0.97-6.13-0.87c3.98-8.39,9.1-17.12,8.16-26.76
		C752.45,622.93,749.89,623.31,748,625.04 M1133.49,674.46c-2.8,1.7-4.1,4.92-5.12,7.88c-2.9301,9.3199-3.27,19.18-3.72,28.87
		c-2.48-3.18-4.6-7.2401-8.73-8.45c-3.04-0.98-5.99,1.07-7.8101,3.33c-3.3199,4.15-5.04,9.3-6.33,14.39
		c16.5399-5.43,32.88-11.47,49.2-17.55c-2.49-8.31-4.99-16.81-9.77-24.13C1139.48,676.36,1136.8199,673.32,1133.49,674.46
		 M1078.7,728.67c4.91-1.56,9.79-3.23,14.5701-5.16c-2.46-1.31-5.15-3.09-8.0601-2.28C1081.7,722.14,1080.21,725.76,1078.7,728.67z"
		/>
	<path fill="#B9B4D9" stroke="#B9B4D9" stroke-width="0.394" d="M1831.5601,312.74c1.11-0.61,2.22-1.25,3.35-1.88
		c9.97,28.73,20.0599,57.42,30.0699,86.14c6.4401,18.76,13.3301,37.38,19.49,56.23c-0.1599,2.46-0.33,4.92-0.5,7.38
		c-0.49,0.36-1.46,1.09-1.9399,1.45c-3.48-9.1-6.3301-18.42-9.48-27.63C1858.76,393.91,1845.4,353.24,1831.5601,312.74z"/>
	<path fill="#00923F" stroke="#00923F" stroke-width="0.394" d="M205.76,318.75c4.25-3.07,10.24-5.54,15.23-2.69
		c5.27,3.49,6.91,10.17,7.8,16.04c2.16,16.46-0.53,33.05-3.57,49.22c4.95-3.45,10.44-7.27,16.8-6.65
		c6.73,0.58,11.52,6.31,14.27,12.01c6.35,13.48,6.77,28.76,6.63,43.39c7.09-3.31,15.14-6.29,22.99-3.96
		c6.85,1.95,11.36,8.4,12.92,15.08c3.09,12.75-0.06,25.92-4,38.12c2.62,0.18,5.25,0.3,7.88,0.43c-0.21-8-0.59-16.5,3.23-23.81
		c2.26-4.57,6.71-8.42,12.03-8.46c8.58-0.34,15.71,5.26,21.92,10.49c2.25-8.37,4.91-16.87,10.2-23.87c3.66-4.98,9.37-9.42,15.92-8.6
		c6.7,0.67,11.38,6.02,15.64,10.69c0.33-8.57,0.99-17.18,3.02-25.53c1.54-6.02,3.6-12.35,8.28-16.69c3.13-2.98,8.17-2.81,11.6-0.43
		c6.28,4.08,10.3,10.68,13.78,17.13c9.23,17.78,14.37,37.34,18.01,56.94c4.94,1.02,9.91,2.23,14.36,4.7
		c9.52,5.1,16.37,14.55,18.99,24.96c1.37,5.13,0.81,10.91,4.23,15.33c3.06-9.16,5.43-18.72,10.74-26.92
		c2.41-3.66,5.6-7.79,10.34-8.09c4.6,0.07,6.9,4.7,9.38,7.87c1.76-11.88,3.32-23.96,7.86-35.16c1.45-3.3,3.14-6.84,6.31-8.82
		c2.18-1.44,4.91-0.24,6.46,1.57c3.39,3.78,4.97,8.75,6.48,13.5c4.9,17.08,6.33,34.92,7.02,52.6c3.67,0.68,7.6,1.29,10.59,3.75
		c4.33,3.33,6.28,8.63,8.48,13.44c3.01-8.58,5.68-17.42,10.54-25.19c1.56-2.25,3.44-5.07,6.54-4.99c2.4,2.67,2.98,6.38,3.26,9.84
		c0.48,7.65-0.24,15.32-1.13,22.92c1.72-0.8,3.41-1.68,5.2401-2.19c2.86,0.75,3.97,3.86,4.83,6.3701
		c2.01,6.95,2.09,14.2599,2.05,21.44c2.2401-0.76,4.48-2.1,6.92-1.78c2.86,0.93,3.99,4.09,4.59,6.76c1.3,6.83,0.2,13.82-1.03,20.58
		c2.12,0.21,4.25,0.46,6.37,0.73c1.5-5.62,3.2-12.43,9.08-14.98c4.59-1.84,8.7599,1.74,12.2,4.3199
		c1.98-5.7599,3.98-11.62,7.44-16.69c2.09-3,4.73-6.2,8.55-6.84c3.73-0.48,6.09,3.03,8.5,5.27c1.14-8.73,2.6899-17.67,6.87-25.52
		c1.49-2.53,3.87-5.78,7.23-5.01c3.54,1.32,5.33,5.05,6.76,8.3c4.7,12.13,5.82,25.24,6.6,38.11c3.74,0.92,7.86,1.67,10.65,4.58
		c4.37,4.29,5.61,10.73,5.54,16.64c0.03,9.6-3.77,18.59-8.12,26.96c5.29-7.25,10.58-14.59,17.11-20.8
		c2.61-2.5699,5.84-4.35,9.19-5.79c0.7,2.72,1.34,5.6,0.51,8.39c-1.67,6.58-4.62,12.76-7.77,18.74c2.16,0.09,5.89-1.17,6.35,1.97
		c1.3,7.17-1.7,14.17-3.71,20.9301c1.9,0.3199,3.86,0.5,5.71,1.16c2.48,2.71,1.54,6.99,0.44,10.14c-3.75-0.7-7.12-2.56-10.62-3.97
		c-50.9-21.5-101.86-42.91-153.56-62.41c-79.48-30.07-161.03-55.49-244.85-70.17c-96.26-17-195.2-19.46-292.09-6.24
		c-4.87-14.45-7.81-29.47-8.97-44.67c-0.58-12.37-0.11-24.85,2.38-37c2.44-10.63,5.82-22.32,14.94-29.17
		c4.5-3.63,10.54-2.83,15.69-1.31c5.06-19.58,11.07-39.01,19.61-57.38c3.17-6.49,6.53-13.09,11.55-18.39
		c2.08-2.07,5.45-4.47,8.31-2.36c3.59,2.87,4.3,7.81,5.08,12.06c2.35,17.75,0.29,35.69-1.66,53.37c3.12-2.82,6.43-7.19,11.18-6.25
		c4.49,1.44,6.51,6.24,8.06,10.29c4.93,14.56,4.58,30.13,4.97,45.29c5.22-3.16,5.58-9.59,7.91-14.63
		c4.39-10.1,12.01-19.44,22.55-23.41c7.24-2.94,15.28-2.28,22.69-0.38c7.19-17.38,15.32-34.47,25.7-50.19
		C189.92,334.53,196.71,325.38,205.76,318.75z"/>
	<path fill="#6C609E" stroke="#6C609E" stroke-width="0.394" d="M151.18,318.82c6.73,11.26,12.03,23.33,19.03,34.44
		c-6.06,10.62-11.09,21.77-16.16,32.89c-1.43-0.09-2.86-0.17-4.29-0.23C149.74,363.54,150.54,341.18,151.18,318.82z"/>
	<path fill="#BAB3D7" stroke="#BAB3D7" stroke-width="0.394" d="M1578.87,330.55c2.16,0.27,4.34,0.57,6.53,0.84
		c-4.6,30.32-9.47,60.59-14.16,90.9c-3.24,19.32-5.71,38.77-9.28,58.04c-1.75-4.16-3.5699-8.33-4.52-12.76
		c0.52-4.76,1.5601-9.45,2.25-14.18C1566.0601,412.44,1572.62,371.52,1578.87,330.55z"/>
	<path fill="#77C4EF" stroke="#77C4EF" stroke-width="0.394" d="M1505.67,343.61c0.7799-5.46,8.5499-7.57,11.7999-3.09
		c2.91,4.87,4.12,10.53,6.25,15.76c8.98,24.7,17.9301,49.41,26.9401,74.09c3,7.67,5.0699,15.75,9.0299,23.02
		c-0.6899,4.73-1.73,9.42-2.25,14.18c-2.9299,0.09-6.3199,0.83-8.72-1.32c-6.36-5.11-11.5-11.58-18.08-16.45
		c-2.13,9.92-3.53,20-6.0701,29.81c-0.88,5.11-7.84,6.09-11.3099,3.09c-1.74-2.48-1.9401-5.65-2.46-8.54
		c-1.5801-12.08-3.3-24.15-5.2201-36.19c-8.46,12.19-16.11,24.93-24.3099,37.28c-1.6,2.91-5.11,2.92-7.97,3.33
		c-1.8501-1.41-3.7001-2.79-5.5601-4.14C1480.22,430.79,1493.02,387.21,1505.67,343.61 M1505.59,367.6
		c-7.47,26.12-15.1599,52.17-22.6899,78.27c-2.24,8.4-5.2101,16.6-6.92,25.13c7.53-11.2,14.6801-22.66,22.05-33.97
		c3.97-5.73,7.21-11.97,11.61-17.4c3.33,19.08,5.0599,38.43,8.6899,57.46c3.0801-13.53,5.25-27.24,8.49-40.73
		c9.3101,7.99,17.1001,17.75,27.0901,24.89c-0.9401-6.95-4.17-13.27-6.35-19.86c-11.7101-32.13-23.3301-64.3-35.1201-96.4
		C1509.8199,352.42,1507.91,360.07,1505.59,367.6z"/>
	<path fill="#FEFFFE" stroke="#FEFFFE" stroke-width="0.394" d="M1505.59,367.6c2.3201-7.53,4.23-15.18,6.85-22.61
		c11.79,32.1,23.41,64.27,35.1201,96.4c2.1799,6.59,5.4099,12.91,6.35,19.86c-9.99-7.14-17.78-16.9-27.0901-24.89
		c-3.24,13.49-5.4099,27.2-8.49,40.73c-3.63-19.03-5.36-38.38-8.6899-57.46c-4.4,5.43-7.64,11.67-11.61,17.4
		c-7.37,11.31-14.52,22.77-22.05,33.97c1.71-8.53,4.6801-16.73,6.92-25.13C1490.4301,419.77,1498.12,393.72,1505.59,367.6z"/>
	<path fill="#BAB3D6" stroke="#BAB3D6" stroke-width="0.394" d="M779.49,351.99c1.78-1.46,3.56-2.9,5.36-4.33
		c20.5,58.93,41.1,117.82,61.64,176.74C864.69,576.33,882.6,628.36,901,680.22c-1.43,3.2401-2.57,6.61-3.61,10
		c-15.01-42.86-29.9-85.77-44.93-128.6299C828.24,491.69,803.56,421.95,779.49,351.99z"/>
	<path fill="#676877" stroke="#676877" stroke-width="0.394" d="M90.22,351.71c0.66,5.47,0.65,10.99,0.15,16.47
		c2.68,0.92,5.48,1.82,7.57,3.83c-2.91-1.08-5.95-1.73-8.98-2.35C89.15,363.66,89.77,357.69,90.22,351.71z"/>
	<path fill="#6C609E" stroke="#6C609E" stroke-width="0.394" d="M1637.6,356.67c3.16,8.28,4.87,17,7.23,25.51
		c6.4301,24.27,12.8401,48.54,19.2201,72.81c1.7999,7.55,4.51,14.9,5.51,22.62c-2.4901,0.94-5.3701,1.67-6.8201,4.11
		c-3.86,5.92-5.66,12.89-7.33,19.68c-1.2001,4.62-1.3,9.51-2.91,14.02c-1.61,1.56-3.62,2.6-5.46,3.79
		c-1.37-3.59-2.3301-7.47-4.7201-10.55c-1.5399-2.16-5.1599-2.18-6.58,0.1c-3.4299,4.93-1.67,11.75-5.39,16.55
		c-2.6699,3.5-3.97,7.73-4.97,11.95c-3.28,1.74-5.4401,4.76-6.86,8.11c-2.88-0.64-5.78-1.15-8.6801-1.59
		c-0.86-2.29-1.59-4.66-2.98-6.6801c-1.63-2.18-4.14-3.4-6.38-4.8c-1.1-4.8-1.2-10.32-4.63-14.17c-2.49-2.59-6.38-0.85-7.95,1.83
		c-4.49,6.67-5.53,14.89-7.2101,22.58c-5.1699,2.92-9.2999,7.76-9.75,13.88c-2.12-1.12-4.11-3.4-6.7-2.71
		c-2.49,2.36-3.38,6.63-7.1799,7.31c-32.9,8.75-65.4401,18.78-97.79,29.35c8.24-32.78,15.76-65.75,24.03-98.52
		c8.1899,14.03,14.85,28.89,22.4099,43.27c4.5601-12.65,6.8301-25.98,11.26-38.67c9.0701,16.64,16.73,34.01,25.63,50.73
		c0.65-23.81-0.03-47.65,0.67-71.45c4.46,10.51,7.77,21.47,11.91,32.12c4.25,11.08,7.6499,22.5,12.48,33.36
		c4.8099-36.31,8.97-72.71,13.58-109.05c3.0601-24.12,5.65-48.3,9.08-72.37c3.4801,6.75,6.04,13.91,8.9901,20.9
		c5.11,12.27,10.1599,24.56,15.22,36.85c6.63,15.15,12.2,30.76,19.3199,45.69c1.5601-12.65,0.74-25.43,1.5-38.13
		c0.8101-12.16,0.47-24.35,1.16-36.52C1637.1801,377.96,1636.78,367.29,1637.6,356.67z"/>
	<path fill="#665E85" stroke="#665E85" stroke-width="0.394" d="M235.27,360.81c1.4,2.37,2.74,4.79,4.05,7.23
		c-1.65,0.08-3.29,0.18-4.93,0.3C234.67,365.82,234.99,363.31,235.27,360.81z"/>
	<path fill="#B9B3D7" stroke="#B9B3D7" stroke-width="0.394" d="M554.39,361.72c0.43-0.02,1.29-0.05,1.73-0.06
		c13.91,29.8,27.92,59.56,41.85,89.35c7.79,16.11,14.89,32.55,23.02,48.49c7.3-21.79,14.04-43.77,21-65.67
		c0.4-0.03,1.21-0.07,1.62-0.09c1.23,1.59,2.47,3.17,3.7,4.77c-2.44,8.68-5.38,17.2-8.05,25.81c-5.74,17.78-10.96,35.74-17.22,53.35
		c-7.41-14.76-13.66-30.07-20.7599-44.97c-16.48-36.23-33.01-72.43-49.48-108.66C552.67,363.28,553.53,362.5,554.39,361.72z"/>
	<path fill="#6C609E" stroke="#6C609E" stroke-width="0.394" d="M759.1,370.72c3.63,7.03,6.26,14.5,9.45,21.73
		c38.3,91.03,76.67,182.04,114.9,273.1c4.38,9.57,7.54,19.72,12.84,28.84c-1.89,9.77-2.7599,19.72-2.79,29.67
		c-46.17-17.13-91.56-36.28-137.01-55.2c1.74-5,3.14-10.34,2.19-15.66c-0.54-3.57-2.6-6.65-3.35-10.14
		c1.67-7.06,6.86-14.04,4.18-21.56c-1.91-4.07-7.26-3.09-10.53-1.45c-9.18,4.66-15.65,13.09-21.39,21.37
		c-2.84-0.04-5.67-0.01-8.5,0.11c-0.63-1.28-1.26-2.54-1.83-3.83c-2.48-4.37,0.77-9.09,0.74-13.65c0.72-5.54-2.78-11.1-0.52-16.48
		c2.08-5.72,4.34-11.87,2.86-18.02c-0.9-4.08-5.3-6.57-9.3-5.92c-4.09,0.21-7.1,3.22-9.68,6.05c0.71-6.66-1.03-13.52-5.36-18.69
		c-2.73-3.84-7.21-5.63-10.79-8.45c-0.76-1.75-0.83-3.69-1.04-5.55c-0.78-9.69-2.19-19.45-5.64-28.57
		c-2.0601-5.06-4.76-10.58-9.95-13.01c-4.16-1.96-9.03,0.01-11.89,3.27c-5.58,6.22-7.3,14.7-9.2,22.58
		c-3.64,0.77-7.37,1.56-10.54,3.61c-5.85,3.41-9.2,9.61-11.28,15.85c-2.81-0.92-5.65-2.11-8.66-1.99c-3.33,0.27-6.36,1.79-9.38,3.08
		c-0.93-3.66-1.6-7.52-3.74-10.71c-1.95-2.89-5.31-4.23-8.32-5.7c-0.98-6.27-1.29-12.91-4.44-18.57c-1.68-3.07-5-4.84-6.65-7.88
		c0.09-2.44,0.39-4.87,0.67-7.28c8.14,14.45,15.39,29.39,23.79,43.7c16.8-33.4,33.42-66.9,50.19-100.31
		c7.29-14.04,13.83-28.47,21.52-42.29c0.2599,1.94,0.53,3.88,0.77,5.83c4.82,46.88,9.18,93.82,14.13,140.69
		c1.89-8.63,1.82-17.52,2.71-26.28c4.41-52.38,8.38-104.8,13-157.16c13.64,41.39,27.05,82.86,40.6,124.29
		c5.8,16.98,10.72,34.26,16.97,51.09c-0.14-12.78-1.42-25.51-1.92-38.27c-1.62-28.99-3.3-57.97-4.91-86.96
		C761.17,407.57,759.59,389.17,759.1,370.72z"/>
	<path fill="#6C609E" stroke="#6C609E" stroke-width="0.394" d="M1829.92,422.78c2.3099-16.42,2.59-33.06,4.9399-49.47
		c2.7001,6.25,4.47,12.83,6.48,19.32c8.63,27.17,17.15,54.38,25.66,81.59c-4.39-3.85-10.03-5.65-15.71-6.41
		C1846.65,451.9,1841.87,434.9,1829.92,422.78z"/>
	<path fill="#B8E088" stroke="#B8E088" stroke-width="0.394" d="M1819.86,422.35c3.3201-0.76,6.86-1.02,10.0601,0.43
		c11.95,12.12,16.73,29.12,21.37,45.03c5.6799,0.76,11.3199,2.56,15.71,6.41c1.4,2.36,2.86,4.69,4.35,7.01
		c2.5601-6.84,3.91-15.04,10.6801-19.17c0.48-0.36,1.45-1.09,1.9399-1.45c0.17-2.46,0.3401-4.92,0.5-7.38
		c0.36-2.94,0.97-5.85,1.42-8.77c0.0699,0.39,0.21,1.19,0.28,1.58c0.7999-1.76,1.6-3.53,2.4299-5.29c0.13,0.42,0.4,1.25,0.53,1.66
		c-0.89,9.09-1.71,18.23-1.16,27.37c-1.9299-1.86-4.97-5.52-7.4399-2.27c-6.14,8.48-5.4601,19.63-7.75,29.43
		c-2.9-6.89-3.3101-15.23-9.22-20.51c-3.7001-3.96-9.38-4.54-14.4701-4.01c-2.7799-10.82-6.0699-21.57-10.89-31.66
		c-2.6-5.1-5.2799-10.46-9.8099-14.12c-1.92-1.65-5.1-2.28-6.96-0.23c-2.6101,2.64-3.4301,6.46-4.14,9.98
		c-1.4401,8.4-1.2001,17-0.48,25.47c-2.4401-1.63-4.79-3.84-7.8201-4.12c-3.7,0.1-6.3,3.31-7.9,6.32
		c-3.73,7.34-4.85,15.66-5.49,23.77c-3.53-1.75-7.36-4.1-11.4299-3.03c-3.8101,1.07-6,4.8-7.0701,8.35
		c-2.01,6.87-1.1,14.13-0.1,21.09c-0.87,0.03-2.6,0.08-3.46,0.1c0.0599-5.89,1.63-13.24-3.16-17.78
		c-4.77-3.45-10.23,0.68-14.27,3.32c-1.0599-6.5-1.97-14.25-7.72-18.39c-4.17-2.77-8.26,1.29-11.41,3.68
		c0.03-7.52,0.78-15.57-2.59-22.55c-1.17-2.93-4.99-3.46-7.25-1.47c-5.8201,4.56-8.74,11.67-11.78,18.19
		c-3.13,6.69-4.66,13.96-7.25,20.84c-3.9,2.12-8.67,2.71-11.87,6.04c-5.28,4.71-6.4,11.94-8.73,18.25
		c-1.92-6.52-2.05-14.03-6.6-19.44c-2.27-2.72-5.16,0.63-7.1901,1.93c-0.35-8.72-0.11-18.1-4.9-25.78
		c-4.7,2.21-6.4199,7.29-7.84,11.89c-2.7,8.5-4.0499,17.34-5.4,26.14c-4.88,0.87-8.25,4.5-10.4299,8.71
		c-1.28-5.68-1.64-12.09-5.42-16.78c-0.41-0.11-1.21-0.35-1.62-0.47c-2.75,5.56-2.2999,11.96-2.34,17.98
		c-1.3101-0.34-2.61-0.67-3.87-0.98c-1.5601,3.65-2.65,7.49-3.23,11.43c-1.12-0.62-2.2201-1.23-3.29-1.84
		c1-4.22,2.3-8.45,4.97-11.95c3.72-4.8,1.9601-11.62,5.39-16.55c1.42-2.28,5.04-2.26,6.58-0.1c2.39,3.08,3.3501,6.96,4.7201,10.55
		c1.84-1.19,3.85-2.23,5.46-3.79c1.61-4.51,1.71-9.4,2.91-14.02c1.6699-6.79,3.47-13.76,7.33-19.68c1.45-2.44,4.33-3.17,6.8201-4.11
		c1.96,2.49,3.96,4.96,5.7,7.63c0.37,4.75,0.91,9.5,1.7,14.22c2.38,0.95,5.2101,1.51,6.88,3.66c1.88,2.45,3,5.38,4.3201,8.17
		c2.33-3.32,4.61-6.78,7.84-9.31c2.8-2.25,6.26-3.41,9.6-4.62c3.4-10.89,6.92-21.93,13.15-31.6c2.22-3.33,4.72-6.71,8.3101-8.68
		c2.71-1.51,6.48-1.14,8.5199,1.36c4.39,5.27,4.37,12.56,4.78,19.07c3.58-0.25,7.79-1.25,10.78,1.39c4.36,3.65,5.86,9.43,7.36,14.68
		c2.54-0.82,5.08-1.84,7.79-1.98c2.5,0.02,4.8199,1.13,7.1499,1.95c1.5801-4.08,3.2101-8.6,7.13-11.01
		c3.65-2.46,8.2301-1.37,12.3-0.92c1.4301-8.39,2.83-17.49,8.73-24.05c2.1-2.56,5.4501-3.54,8.6901-3.32
		c0.88,0.03,1.7799,0.08,2.71,0.15c-0.04-8.12,0.34-16.29,2.14-24.23C1816.45,427.41,1818.2,424.9,1819.86,422.35z"/>
	<path fill="#01923F" stroke="#01923F" stroke-width="0.394" d="M1821.4301,426.41c1.86-2.05,5.0399-1.42,6.96,0.23
		c4.53,3.66,7.21,9.02,9.8099,14.12c4.8201,10.09,8.1101,20.84,10.89,31.66c5.0901-0.53,10.77,0.05,14.4701,4.01
		c5.9099,5.28,6.3199,13.62,9.22,20.51c2.2899-9.8,1.61-20.95,7.75-29.43c2.47-3.25,5.51,0.41,7.4399,2.27
		c-0.5499-9.14,0.27-18.28,1.16-27.37c0.87-3.57,2.3-6.97,4.13-10.16c4.21,2.16,6.2,6.59,7.54,10.89
		c2.5599,7.84,4.2999,15.94,5.6699,24.07c0.6,3.84,1.14,7.69,1.6,11.56c1.67,0.2,3.3501,0.41,5.0601,0.62
		c0.3099,17.27,0.08,34.54,0.13,51.82c-2.79,0.93-5.7,1.84-8.65,1.22c-10.1899-1.59-20.4-2.99-30.65-4.07
		c-7.3199-1.02-14.8099-0.84-22.0299-2.35c-4.7101-2.77-8.2301-7.2-12.89-10.07c-5.8201-3.97-13.52-7.74-20.49-4.45
		c-5.04,2.34-6.28,8.25-7.1801,13.19c-43.54-0.53-87.0599,3.05-130.0699,9.68c-19.8601,2.88-39.49,7.01-59.2101,10.67
		c0.76-1.15,1.54-2.3,2.3301-3.44c1.23,0.17,2.47,0.34,3.75,0.52c0.14-1.01,0.3099-2.01,0.5-3.01c0.58-3.94,1.6699-7.78,3.23-11.43
		c1.26,0.31,2.5599,0.64,3.87,0.98c0.04-6.02-0.41-12.42,2.34-17.98c0.41,0.12,1.21,0.36,1.62,0.47c3.78,4.69,4.14,11.1,5.42,16.78
		c2.1799-4.21,5.5499-7.84,10.4299-8.71c1.3501-8.8,2.7001-17.64,5.4-26.14c1.42-4.6,3.14-9.68,7.84-11.89
		c4.79,7.68,4.55,17.06,4.9,25.78c2.03-1.3,4.92-4.65,7.1901-1.93c4.5499,5.41,4.6799,12.92,6.6,19.44
		c2.33-6.31,3.45-13.54,8.73-18.25c3.2-3.33,7.97-3.92,11.87-6.04c2.59-6.88,4.12-14.15,7.25-20.84
		c3.04-6.52,5.96-13.63,11.78-18.19c2.26-1.99,6.08-1.46,7.25,1.47c3.37,6.98,2.62,15.03,2.59,22.55c3.15-2.39,7.24-6.45,11.41-3.68
		c5.75,4.14,6.66,11.89,7.72,18.39c4.04-2.64,9.5-6.77,14.27-3.32c4.79,4.54,3.22,11.89,3.16,17.78c0.86-0.02,2.59-0.07,3.46-0.1
		c-1-6.96-1.91-14.22,0.1-21.09c1.0701-3.55,3.26-7.28,7.0701-8.35c4.0699-1.07,7.8999,1.28,11.4299,3.03
		c0.64-8.11,1.76-16.43,5.49-23.77c1.6-3.01,4.2001-6.22,7.9-6.32c3.03,0.28,5.38,2.49,7.8201,4.12
		c-0.7201-8.47-0.9601-17.07,0.48-25.47C1818,432.87,1818.8199,429.05,1821.4301,426.41z"/>
	<path fill="#B2E48E" stroke="#B2E48E" stroke-width="0.394" d="M1890.85,430.8c2.0601-2.32,5.92-1.75,7.77,0.56
		c3.63,4.33,5.08,9.98,6.75,15.27c2.8,9.08,3.8,18.58,5.95,27.81c0.42,0.2,1.27,0.6,1.6901,0.8c2.33,1.04,4.7,2.05,6.99,3.24v2.3
		c-3.4399-2.28-7.36-3.76-10.63-6.25c-0.66-1.96-0.88-4.02-1.1899-6.04c-0.4301-0.32-1.28-0.96-1.7101-1.28
		c-1.37-8.13-3.11-16.23-5.6699-24.07c-1.3401-4.3-3.3301-8.73-7.54-10.89c-1.83,3.19-3.26,6.59-4.13,10.16
		c-0.13-0.41-0.4-1.24-0.53-1.66c-0.83,1.76-1.63,3.53-2.4299,5.29c-0.0701-0.39-0.2101-1.19-0.28-1.58
		C1886.58,439.68,1887.4399,434.47,1890.85,430.8z"/>
	<path fill="#676779" stroke="#676779" stroke-width="0.394" d="M1810.29,454.25c2.74-7.81,0.5299-16.7,4.85-24.08
		c-1.8,7.94-2.1801,16.11-2.14,24.23C1812.0699,454.33,1811.17,454.28,1810.29,454.25z"/>
	<path fill="#B8DC7A" stroke="#B8DC7A" stroke-width="0.394" d="M0,459.95c0.99-0.63,1.98-1.24,2.98-1.86
		c0.62,1.71,1.26,3.41,1.82,5.15c1.16,15.2,4.1,30.22,8.97,44.67c-0.12,1.75-0.35,3.5-0.57,5.25c-0.94-0.72-1.88-1.42-2.82-2.12
		c0.58-1.58,1.16-3.16,1.73-4.73c-1.39,0.78-2.77,1.57-4.16,2.37c0.78-1.8,2.06-3.51,2.17-5.51c-0.42-1.89-1.54-3.53-2.39-5.24
		c-0.08-2.05-0.02-4.13-0.42-6.15c-1.38-0.95-2.92-1.6-4.42-2.33c0.4,6.71,2.79,13.02,4.41,19.48c1.17,3.54-2.48,5.98-4.28,8.5
		c0.8,1.51,1.6,3.02,2.41,4.53c0.35-2.15,0.7-4.3,1.05-6.44C6.91,564.01,6.55,612.51,6.67,661c0,222.33,0,444.67,0,667
		c0.13,34.62-0.26,69.25,0.19,103.87c621.05,0.0699,1242.1,0.02,1863.14,0.03c14.3101-0.23,28.65,0.46,42.95-0.3
		c0.13-0.52,0.38-1.5599,0.5-2.08c1.5,1.72,3.8101,3.4299,3.17,6.04c-2.52-0.02-4.98-0.4601-7.4301-0.91
		c0.64,1.1899,1.29,2.39,1.9701,3.63c-18.7101-0.61-37.4401-0.0901-56.16-0.26c-606.67,0-1213.3301,0-1820,0
		c-9.77,0.0699-19.56-0.3301-29.31,0.5c-2.2-1.15-4.04-2.8301-5.69-4.64V459.95z"/>
	<path fill="#BAB3D7" stroke="#BAB3D7" stroke-width="0.394" d="M1431.52,599.64c11.78-41.81,24.12-83.47,36.22-125.2
		c1.86,1.35,3.71,2.73,5.5601,4.14c-11.3,39.53-23.05,78.94-34.2201,118.5C1436.54,597.9,1434.01,598.75,1431.52,599.64z"/>
	<path fill="#85C226" stroke="#85C226" stroke-width="0.394" d="M6.48,515.52c90.68-12.98,183.28-12.61,273.83,1.24
		c84.77,12.52,167.35,36.83,247.71,66.16c121.08,44.54,237.86,99.77,358.42,145.62c74.17,28.39,149.77,53.28,226.98,72
		c80.23,19.5,162.14,32.15,244.5399,37.41c54.01,3.54,108.2101,3.66,162.29,1.47c87.88-4.07,175.37-15.4,261.66-32.46
		c44.01-8.61,87.64-19.03,131.14-29.92c0.34,6.98,0.34,13.97,0.2899,20.96c0,124.34,0,248.67,0,373
		c0.0701,86.1801-0.15,172.35,0.11,258.52c-0.12,0.52-0.37,1.5599-0.5,2.08c-14.2999,0.76-28.6399,0.0701-42.95,0.3
		c-621.04-0.01-1242.0901,0.0399-1863.14-0.03c-0.45-34.62-0.06-69.25-0.19-103.87c0-222.33,0-444.67,0-667
		C6.55,612.51,6.91,564.01,6.48,515.52z"/>
	<path fill="#B9E28F" stroke="#B9E28F" stroke-width="0.394" d="M1587.9,519.96c1.5699-2.68,5.46-4.42,7.95-1.83
		c3.4301,3.85,3.53,9.37,4.63,14.17c2.24,1.4,4.75,2.62,6.38,4.8c1.39,2.02,2.12,4.39,2.98,6.6801c-0.49,0.87-0.95,1.75-1.39,2.64
		c-1.34-3.2-2.21-6.73-4.5199-9.41c-1.6801-2.1-4.26-0.08-6.1901,0.48c-0.39-6.25-0.26-13.51-5.36-18.02
		c-6.3199,7.13-7.4,16.96-9.04,25.95c-2.1899,1.05-4.63,1.82-6.3199,3.63c-1.74,2.14-2.29,4.93-3.0801,7.5
		c-1.0199,0.06-2.0299,0.11-3-0.13c0.4501-6.12,4.5801-10.96,9.75-13.88C1582.37,534.85,1583.41,526.63,1587.9,519.96z"/>
	<path fill="#00923F" stroke="#00923F" stroke-width="0.394" d="M1818.63,520.62c1.15-3.3,5.04-4.58,8.1899-3.48
		c7.7101,2.4,13.77,8.1,19.5801,13.47c19.1699,18.58,34.61,40.54,49.41,62.63c2.0499-1.47,4.45-2.59,6.1299-4.52
		c0.9301-9.98,0.78-20.09,2.63-29.99c1.42-7.39,2.5601-15.67,8.4801-20.98c0.5299,22.08,0.08,44.17,0.22,66.25
		c-0.05,55.34,0.09,110.67-0.0701,166.01c-23.26,6.06-46.6,11.8-70.0199,17.22c-2,0.46-4.2001,0.83-5.9701-0.45
		c-12.6599-7.25-23.8199-18.23-28.99-32.09c-2.65-7.25-3.2-16.21,1.92-22.53c3.35-4.44,8.9399-5.94,14.1-7.11
		c-8.42-14.16-16.1-29.37-17.97-45.95c-0.65-6.5699,0.09-14.72,6.09-18.73c5.29-3.42,11.77-1.4,17.41-0.09
		c-4.0801-11.54-7.53-23.34-9.6901-35.4c-1.2-8.34-2.4399-16.98-0.4099-25.3c0.87-3.48,2.9099-7.33,6.7-8.21
		c4.92-1.1,9.39,1.86,13.63,3.89c-8.5699-18.67-17.24-37.58-21.4301-57.8C1817.67,531.94,1816.7,526.02,1818.63,520.62z"/>
	<path fill="#03913D" stroke="#03913D" stroke-width="0.394" d="M1592.38,519.47c5.1,4.51,4.97,11.77,5.36,18.02
		c1.9301-0.56,4.51-2.58,6.1901-0.48c2.3099,2.68,3.1799,6.21,4.5199,9.41c-0.26,0.51-0.7899,1.54-1.0499,2.06
		c-11.1801,2.59-22.34,5.26-33.4601,8.07c0.79-2.57,1.3401-5.36,3.0801-7.5c1.6899-1.81,4.13-2.58,6.3199-3.63
		C1584.98,536.43,1586.0601,526.6,1592.38,519.47z"/>
	<path fill="#00923F" stroke="#00923F" stroke-width="0.394" d="M1754.04,532.99c19.13-1.34,38.3199-1.71,57.49-1.65
		c1.64,18.5,8.9399,35.86,16.15,52.77c-3.9,1.15-8.16,2.47-10.53,6.04c-5.29,7.47-5.1801,17.12-4.75,25.87
		c0.95,12.13,4.01,23.98,7.52,35.6c-5.25,0.45-10.74,1.86-14.4,5.89c-5.5801,5.98-6.36,14.74-5.64,22.52
		c1.3199,14.5699,7.59,28.02,14.22,40.85c-7.75,3.77-13.6699,11.35-14.2999,20.09c-1.2001,13.67,6.0499,26.47,14.9199,36.32
		c4.3301,4.89,9.62,8.76,14.72,12.8c-19.5099,4.83-39.3099,8.49-59.0199,12.41c-99.66,19.11-200.9,30.64-302.42,31.74
		c-96.0601,1.15-192.26-7.29-286.5699-25.67c-43.4401-8.37-86.4701-18.84-129.01-31.01c-17.24-5.2-34.7001-9.82-51.6301-15.99
		c82.36-26.15,163.4901-56.01,244.32-86.53c79.55-29.89,158.97-60.3,239.99-86.03C1572.49,561.32,1662.3101,539.1,1754.04,532.99z"
		/>
	<path fill="#02923E" stroke="#02923E" stroke-width="0.394" d="M1858.87,533.75c15.0601,0.93,30.03,2.99,44.96,5.18
		c-6.1899,13.18-7.11,27.93-8.11,42.23C1884.33,564.7,1872.38,548.56,1858.87,533.75z"/>
	<path fill="#5A8E3A" stroke="#5A8E3A" stroke-width="0.394" d="M1565.1899,556.92c3.79-0.51,0.02,4.71-0.9399,1.23
		C1564.49,557.84,1564.96,557.23,1565.1899,556.92z"/>
	<path fill="#00923F" stroke="#00923F" stroke-width="0.394" d="M1020.95,610.93c2.22-1.81,5.92-2.07,7.71,0.49
		c3.4199,4.74,3.72,10.87,4.1699,16.5c0.5,12.66-0.59,25.37-2.6899,37.86c2.97-2.76,6.24-6.7401,10.79-5.88
		c4.49,1.23,6.5599,6.0099,8.1399,9.97c3.8501,11.66,4.15,24.14,4.0801,36.32c3.6699-1.86,7.53-4.36,11.85-3.6
		c4.17,0.62,6.95,4.37,8.34,8.09c2.24,6.14,2.29,12.82,1.98,19.27c-22.1,7.47-44.1799,14.98-66.4199,22.02
		c-6.9301,1.67-13.56,5.32-20.67,5.69c-30.6-9.7599-60.76-20.87-90.88-31.98c0.13-12.04,0.97-24.24,4.54-35.81
		c1.57-4.58,3.53-9.52,7.63-12.41c2.36-1.81,5.3-0.62,7.79,0.19c3.11-15.78,6.38-31.58,11.41-46.88c1.96-5.77,3.96-11.65,7.36-16.75
		c1.02-1.72,2.92-2.5,4.63-3.35c4.27,6.99,3.86,15.45,4.03,23.33c0.1,11-0.46,22.01-1.6,32.96c1.77-1.94,3.07-4.89,5.87-5.42
		c2.81,0.23,3.95,3.3,4.88,5.55c4.25,13.19,3.33,27.22,4.16,40.86c3.45-3.17,3.12-8.21,4.69-12.3
		c2.58-7.6801,6.58-15.89,14.21-19.61c4.07-2.14,8.71-1.13,12.95-0.13c5.36-17.45,11.16-34.92,20.04-50.94
		C1012.98,619.87,1016.05,614.48,1020.95,610.93z"/>
	<path fill="#03913E" stroke="#03913E" stroke-width="0.394" d="M748,625.04c1.89-1.73,4.45-2.11,6.9-2.38
		c0.94,9.64-4.1801,18.3701-8.16,26.76c2.01-0.1,5.19-1.86,6.13,0.87c1.66,5.34-0.22,10.98-1.73,16.15
		c-11.53-4.67-22.92-9.67-34.42-14.4c-0.2-0.25-0.62-0.77-0.83-1.03c0.52-2.03,2.8-2.79,4.47-3.69c2.53-1.32,5.16,0.27,7.54,1.17
		C733.79,640.04,740.04,631.66,748,625.04z"/>
	<path fill="#1589AB" stroke="#1589AB" stroke-width="0.394" d="M949.57,625.78c1.02,8.08,1.18,16.31,0,24.39
		C948.37,642.07,948.78,633.89,949.57,625.78z"/>
	<path fill="#03913E" stroke="#03913E" stroke-width="0.394" d="M1133.49,674.46c3.33-1.14,5.99,1.9,7.72,4.34
		c4.78,7.32,7.28,15.82,9.77,24.13c-16.3199,6.08-32.66,12.12-49.2,17.55c1.2899-5.09,3.01-10.24,6.33-14.39
		c1.8201-2.26,4.77-4.31,7.8101-3.33c4.13,1.21,6.25,5.27,8.73,8.45c0.45-9.69,0.7899-19.55,3.72-28.87
		C1129.39,679.38,1130.6899,676.16,1133.49,674.46z"/>
	<path fill="#228CA1" stroke="#228CA1" stroke-width="0.394" d="M1057.0601,697.76c0.0099-3.38,0.1899-6.76,0.5099-10.12
		c0.3,2.61,0.5801,5.24,0.8501,7.87c2.59,0.4,5.2,0.78,7.74,1.49C1063.11,697.08,1060.08,697.42,1057.0601,697.76z"/>
	<path fill="#088D37" stroke="#088D37" stroke-width="0.394" d="M1078.7,728.67c1.51-2.91,3-6.53,6.51-7.44
		c2.91-0.81,5.6001,0.97,8.0601,2.28C1088.49,725.44,1083.61,727.11,1078.7,728.67z"/>
	<path fill="#FBFDF5" stroke="#FBFDF5" stroke-width="0.394" d="M1914.36,1438.51c2.4501-1.16,4.23-3.29,5.64-5.55v6.04h-6.5601
		L1914.36,1438.51z"/>
	<path fill="#F9FDF6" stroke="#F9FDF6" stroke-width="0.394" d="M0,1433.88c1.65,1.8099,3.49,3.49,5.69,4.64L6.6,1439H0V1433.88z"/>
	<path fill="#CAE99B" stroke="#CAE99B" stroke-width="0.394" d="M5.69,1438.52c9.75-0.8301,19.54-0.4301,29.31-0.5
		c606.67,0,1213.33,0,1820,0c18.72,0.1699,37.45-0.35,56.16,0.26c0.7999,0.0599,2.4,0.1699,3.2,0.23l-0.92,0.49H6.6L5.69,1438.52z"
		/>
</g>
</svg>
